<?xml version="1.0" encoding="utf-8"?>
<!-- Generator: Adobe Illustrator 16.0.0, SVG Export Plug-In . SVG Version: 6.00 Build 0)  -->
<!DOCTYPE svg PUBLIC "-//W3C//DTD SVG 1.1//EN" "http://www.w3.org/Graphics/SVG/1.1/DTD/svg11.dtd">
<svg version="1.1" id="Layer_1" xmlns="http://www.w3.org/2000/svg" xmlns:xlink="http://www.w3.org/1999/xlink" x="0px" y="0px"
	 width="57px" height="24px" viewBox="0 0 57 24" enable-background="new 0 0 57 24" xml:space="preserve">
<path fill="#FFFFFF" d="M53.938,10.674V4.148h-4.176v6.525h-2.35V1.799h-3.916v8.875h-2.609V4.148h-4.178v6.525H24.062
	C23.315,4.67,18.276,0,12.178,0C5.569,0,0.19,5.283,0.19,11.893C0.19,18.504,5.569,24,12.179,24c5.673,0,10.429-3.93,11.666-9.15
	h32.965v-4.176H53.938z M12.178,19.555c-4.277,0-7.757-3.479-7.757-7.758c0-4.277,3.479-7.758,7.758-7.758
	c4.276,0,7.757,3.48,7.757,7.758C19.936,16.076,16.456,19.555,12.178,19.555"/>
<rect x="0.146" y="0.313" fill="none" width="56.62" height="24"/>
</svg>
