<?xml version="1.0" standalone="no"?>
<!DOCTYPE svg PUBLIC "-//W3C//DTD SVG 20010904//EN"
 "http://www.w3.org/TR/2001/REC-SVG-20010904/DTD/svg10.dtd">
<svg version="1.0" xmlns="http://www.w3.org/2000/svg"
 width="3360.000000pt" height="336.000000pt" viewBox="0 0 3360.000000 336.000000"
 preserveAspectRatio="xMidYMid meet">
<metadata>
Created by potrace 1.13, written by Peter Selinger 2001-2015
</metadata>
<g transform="translate(0.000000,336.000000) scale(0.100000,-0.100000)"
fill="#000000" stroke="none">
<path d="M9881 3278 c-17 -40 -38 -82 -46 -92 -31 -40 -116 -43 -1331 -42
l-1152 1 -20 25 c-11 14 -40 57 -64 97 l-43 72 -77 1 -76 0 -16 -47 c-8 -27
-33 -111 -55 -188 -58 -202 -113 -376 -155 -488 -20 -53 -34 -102 -31 -107 3
-5 33 -25 66 -45 40 -25 67 -35 82 -31 13 3 63 56 115 120 119 147 230 258
284 284 77 37 156 43 491 40 361 -3 345 1 358 -90 13 -88 23 -2002 11 -2183
-14 -212 -16 -217 -103 -249 -39 -14 -138 -44 -220 -66 -156 -41 -199 -58
-236 -93 -20 -17 -23 -31 -23 -89 0 -81 -41 -75 319 -47 225 18 311 20 561 15
162 -4 333 -11 380 -16 47 -5 178 -12 292 -16 l207 -7 6 34 c3 19 2 59 -2 89
l-8 54 -60 19 c-33 10 -127 31 -210 48 -192 38 -182 34 -196 77 -14 43 -36
2235 -24 2406 l7 104 30 6 c46 9 597 6 647 -3 70 -14 91 -37 144 -157 74 -167
160 -344 173 -355 13 -11 150 16 172 33 9 8 12 117 12 484 l0 474 -88 0 -88 0
-33 -72z"/>
<path d="M1561 3238 c-206 -556 -1065 -2796 -1085 -2831 -58 -98 -90 -114
-333 -165 l-128 -27 -3 -84 -3 -84 138 7 c76 4 186 15 244 24 102 17 119 17
360 1 140 -10 302 -18 362 -18 l107 -1 0 85 c0 47 -3 85 -7 85 -4 0 -66 9
-137 21 -222 36 -276 67 -276 160 0 55 35 165 167 517 l87 232 470 -2 469 -3
148 -365 c155 -382 168 -429 131 -463 -27 -24 -85 -43 -250 -78 -90 -19 -152
-37 -159 -47 -8 -9 -13 -45 -13 -84 l0 -68 78 5 c411 29 847 33 1157 10 110
-8 237 -15 283 -15 l82 0 -1 58 c-2 106 -7 114 -72 134 -32 10 -96 24 -142 32
-110 19 -151 40 -183 90 -39 63 -128 263 -197 447 -35 91 -99 253 -143 360
-45 107 -108 266 -142 354 -87 228 -147 373 -238 585 -44 102 -166 389 -271
638 -105 249 -198 466 -206 482 l-16 30 -135 0 c-130 0 -135 -1 -143 -22z
m-14 -955 c81 -178 302 -735 338 -852 l7 -24 -361 5 c-199 3 -365 8 -368 11
-5 6 338 937 345 937 2 0 19 -35 39 -77z"/>
<path d="M14130 3127 l0 -94 108 -22 c250 -51 252 -51 289 -84 46 -40 70 -94
78 -177 13 -143 46 -1238 52 -1765 5 -441 3 -568 -7 -599 -11 -34 -20 -42 -84
-72 -39 -18 -130 -52 -203 -75 -151 -49 -151 -49 -138 -160 l7 -60 62 7 c33 3
108 13 166 21 167 24 730 29 965 9 105 -9 232 -16 283 -16 92 0 93 0 103 28
10 26 9 155 -2 166 -3 3 -109 18 -236 34 -127 16 -235 32 -241 35 -17 11 -22
166 -23 777 0 333 -5 871 -10 1195 -11 687 -16 649 80 687 48 19 76 22 201 22
121 1 158 -3 223 -22 152 -43 222 -93 296 -206 83 -126 117 -279 108 -483 -9
-236 -77 -375 -232 -475 -100 -65 -176 -83 -342 -82 l-143 2 0 -87 c0 -47 4
-91 8 -97 12 -20 128 -73 219 -101 83 -26 99 -27 288 -27 230 0 293 12 440 85
225 112 386 306 461 556 35 118 45 342 20 455 -50 221 -216 464 -390 567 -73
44 -226 96 -341 116 -122 22 -459 30 -665 16 -314 -22 -762 -25 -1045 -7 -143
9 -281 18 -307 21 l-48 6 0 -94z"/>
<path d="M27130 1946 c0 -16 -113 -381 -129 -420 -17 -38 -19 -52 -9 -63 12
-15 61 -43 76 -43 5 0 46 44 90 99 45 54 101 111 123 127 l42 29 222 3 c189 3
225 1 237 -12 13 -12 17 -64 23 -288 10 -381 2 -1096 -12 -1129 -12 -28 -62
-49 -203 -84 -88 -23 -130 -49 -130 -83 0 -56 0 -56 206 -42 115 8 250 10 344
6 85 -3 228 -9 318 -12 l162 -7 0 50 0 50 -42 12 c-24 6 -83 20 -132 30 -48
10 -92 24 -96 32 -18 28 -21 175 -18 814 l3 660 195 3 c125 1 204 -1 221 -8
29 -12 33 -19 108 -182 47 -102 51 -108 80 -108 16 0 41 4 55 10 l26 10 0 275
0 275 -53 0 -53 0 -21 -49 c-19 -47 -23 -50 -64 -55 -59 -7 -1347 -16 -1381
-9 -18 3 -38 22 -62 59 -35 52 -38 54 -81 54 -25 0 -45 -2 -45 -4z"/>
<path d="M3582 1870 l3 -44 129 -47 c71 -26 132 -53 137 -60 4 -7 11 -41 14
-74 11 -98 -3 -1373 -15 -1395 -6 -11 -25 -21 -43 -24 -184 -27 -242 -38 -249
-49 -4 -6 -8 -34 -8 -61 l0 -49 63 7 c185 18 688 27 977 16 168 -6 393 -13
501 -17 l197 -6 6 29 c11 52 36 337 36 415 0 86 -2 89 -74 89 l-43 0 -27 -74
c-66 -179 -205 -276 -438 -306 -112 -14 -453 -13 -480 1 l-21 11 7 742 c5 417
12 748 17 758 10 19 32 26 179 61 l95 22 0 49 0 49 -483 1 -483 1 3 -45z"/>
<path d="M5432 1870 l3 -44 129 -47 c71 -26 132 -53 137 -60 4 -7 11 -41 14
-74 11 -98 -3 -1373 -15 -1395 -6 -11 -25 -21 -43 -24 -184 -27 -242 -38 -249
-49 -4 -6 -8 -34 -8 -61 l0 -49 63 7 c185 18 688 27 977 16 168 -6 393 -13
501 -17 l197 -6 6 29 c11 52 36 337 36 415 0 86 -2 89 -74 89 l-43 0 -27 -74
c-66 -179 -205 -276 -438 -306 -112 -14 -453 -13 -480 1 l-21 11 7 742 c5 417
12 748 17 758 10 19 32 26 179 61 l95 22 0 49 0 49 -483 1 -483 1 3 -45z"/>
<path d="M19815 1899 c-199 -21 -399 -109 -562 -247 -118 -99 -222 -275 -265
-448 -33 -129 -32 -361 1 -489 68 -264 178 -421 395 -565 166 -110 329 -146
630 -137 210 5 321 29 460 96 569 276 702 1072 254 1519 -216 217 -533 311
-913 271z m263 -144 c184 -44 334 -185 396 -373 44 -134 56 -208 62 -385 10
-263 -13 -411 -88 -567 -91 -190 -266 -299 -478 -300 -131 0 -242 45 -333 134
-75 74 -96 110 -146 245 -117 318 -105 758 27 1005 62 115 157 197 277 238 63
22 197 23 283 3z"/>
<path d="M32785 1895 c-111 -23 -222 -83 -294 -160 -99 -106 -141 -212 -141
-355 0 -95 20 -173 68 -264 81 -155 176 -215 577 -362 262 -96 351 -178 350
-324 -1 -144 -109 -250 -294 -287 -97 -20 -188 -7 -288 42 -109 54 -168 130
-246 317 l-16 38 -67 0 -67 0 7 -201 c4 -110 10 -207 13 -214 5 -14 102 -48
258 -91 80 -22 347 -31 443 -14 139 23 337 143 407 245 99 143 123 416 51 567
-33 69 -101 151 -162 195 -70 51 -208 113 -359 163 -71 23 -163 58 -203 78
-198 95 -258 272 -139 408 71 81 185 117 299 94 143 -28 225 -104 293 -273 36
-89 43 -94 124 -96 l44 -1 -6 138 c-3 75 -11 172 -17 215 l-12 77 -67 20
c-181 55 -415 74 -556 45z"/>
<path d="M17635 1874 c-115 -9 -252 -13 -322 -9 -66 3 -167 2 -222 -1 l-101
-7 0 -54 0 -53 53 -1 c28 -1 81 -6 117 -13 l65 -11 3 -245 c4 -330 -9 -1285
-18 -1299 -4 -7 -51 -21 -106 -32 -143 -29 -134 -24 -134 -76 l0 -46 148 9
c188 11 446 11 635 0 l147 -9 0 52 c0 60 2 58 -145 96 -49 13 -101 27 -115 32
l-24 10 -2 319 c-2 175 0 331 3 347 4 26 6 27 76 27 96 -1 143 -13 179 -47 19
-17 91 -150 190 -348 88 -176 180 -357 205 -403 l45 -83 36 8 c47 9 303 9 455
-1 l117 -7 0 36 c0 36 -1 37 -77 71 -120 54 -123 56 -152 94 -15 19 -80 123
-146 230 -65 107 -160 260 -212 339 -51 78 -95 147 -96 152 -1 5 23 20 55 33
134 55 218 128 271 235 30 62 32 71 32 181 0 107 -2 119 -29 175 -18 37 -56
87 -100 131 -165 166 -352 203 -831 168z m318 -154 c133 -50 202 -172 202
-355 0 -73 -5 -100 -24 -143 -29 -65 -95 -124 -165 -151 -85 -31 -293 -53
-339 -35 -13 5 -14 52 -10 352 4 236 9 350 17 355 6 5 67 6 136 4 96 -4 138
-10 183 -27z"/>
<path d="M25785 1874 c-115 -9 -252 -13 -322 -9 -66 3 -167 2 -222 -1 l-101
-7 0 -54 0 -53 53 -1 c28 -1 81 -6 117 -13 l65 -11 3 -245 c4 -330 -9 -1285
-18 -1299 -4 -7 -51 -21 -106 -32 -143 -29 -134 -24 -134 -76 l0 -46 148 9
c188 11 446 11 635 0 l147 -9 0 52 c0 60 2 58 -145 96 -49 13 -101 27 -115 32
l-24 10 -2 319 c-2 175 0 331 3 347 4 26 6 27 76 27 96 -1 143 -13 179 -47 19
-17 91 -150 190 -348 88 -176 180 -357 205 -403 l45 -83 36 8 c47 9 303 9 455
-1 l117 -7 0 36 c0 36 -1 37 -77 71 -120 54 -123 56 -152 94 -15 19 -80 123
-146 230 -65 107 -160 260 -212 339 -51 78 -95 147 -96 152 -1 5 23 20 55 33
134 55 218 128 271 235 30 62 32 71 32 181 0 107 -2 119 -29 175 -18 37 -56
87 -100 131 -165 166 -352 203 -831 168z m318 -154 c133 -50 202 -172 202
-355 0 -73 -5 -100 -24 -143 -29 -65 -95 -124 -165 -151 -85 -31 -293 -53
-339 -35 -13 5 -14 52 -10 352 4 236 9 350 17 355 6 5 67 6 136 4 96 -4 138
-10 183 -27z"/>
<path d="M9582 1829 l3 -54 119 -17 c65 -9 123 -21 128 -26 24 -24 30 -238 24
-842 -3 -344 -8 -642 -12 -663 -8 -46 -15 -49 -156 -74 l-103 -19 -3 -44 -3
-45 471 -1 470 0 0 43 c0 53 -2 53 -155 77 -60 9 -114 21 -120 27 -12 12 -14
683 -2 696 9 8 939 6 969 -3 14 -4 17 -21 20 -97 5 -140 -10 -579 -19 -588 -5
-5 -36 -14 -68 -19 -33 -6 -90 -18 -128 -26 -71 -17 -83 -31 -75 -85 3 -24 4
-24 103 -19 156 8 483 6 668 -4 l167 -9 0 50 0 50 -72 21 c-40 12 -98 27 -128
35 l-55 13 -3 731 c-1 448 1 740 7 756 10 27 75 53 193 78 l57 12 7 44 c3 24
4 47 0 50 -3 4 -124 1 -269 -5 -180 -9 -295 -9 -367 -2 -58 5 -147 9 -197 10
l-93 0 0 -40 c0 -38 1 -40 43 -50 85 -22 196 -61 205 -73 23 -28 33 -169 30
-405 -2 -194 -6 -244 -17 -251 -35 -22 -936 -27 -970 -6 -17 10 -15 659 2 673
7 6 57 18 112 26 169 27 155 20 155 78 l0 51 -122 -9 c-155 -11 -433 -11 -651
0 l-168 9 3 -54z"/>
<path d="M21210 1832 c0 -58 -7 -53 118 -76 46 -9 91 -20 101 -25 26 -14 49
-52 55 -92 19 -111 45 -1348 30 -1405 -6 -24 -59 -51 -169 -88 l-70 -23 -3
-53 -3 -52 33 5 c163 28 466 32 796 11 l92 -6 0 59 0 60 -142 17 c-79 10 -144
19 -145 20 -2 1 -6 345 -9 763 l-7 760 28 19 c42 28 238 27 309 0 137 -53 221
-227 201 -416 -14 -131 -63 -214 -156 -265 -48 -26 -65 -30 -161 -33 l-108 -4
0 -48 c0 -58 11 -72 85 -99 225 -84 495 -26 635 138 94 109 134 233 128 393
-3 91 -6 101 -51 192 -76 152 -165 227 -328 273 -58 16 -96 18 -389 14 -479
-7 -540 -7 -712 3 l-158 8 0 -50z"/>
<path d="M29110 1823 l0 -59 95 -11 c52 -6 107 -17 122 -25 26 -12 29 -19 36
-95 4 -44 4 -375 0 -735 -7 -599 -9 -656 -26 -681 -17 -26 -58 -42 -194 -77
l-43 -11 0 -50 0 -50 83 8 c109 11 552 10 700 -1 l117 -9 0 59 0 60 -122 16
c-72 10 -125 22 -130 30 -9 14 -10 1420 -1 1476 6 39 12 42 156 79 l97 26 0
54 0 54 -147 -8 c-187 -10 -278 -10 -535 0 l-208 9 0 -59z"/>
<path d="M12070 1848 c0 -14 -3 -39 -6 -55 l-6 -30 89 -8 c48 -4 117 -14 153
-23 l65 -17 7 -60 c10 -86 22 -1371 14 -1427 -7 -45 -9 -47 -54 -62 -37 -12
-225 -45 -264 -46 -5 0 -8 -19 -8 -42 l0 -43 732 -3 c403 -1 812 -4 908 -5
l174 -2 13 85 c7 47 27 154 43 237 42 211 43 203 -26 203 l-55 0 -25 -56 c-58
-132 -150 -239 -240 -281 -88 -40 -231 -55 -479 -50 -240 5 -290 14 -312 57
-9 19 -13 109 -13 353 0 300 1 328 17 334 33 13 506 9 535 -4 40 -18 63 -63
88 -167 12 -50 24 -99 27 -108 3 -14 15 -18 52 -18 l48 0 -4 268 c-2 147 -4
311 -3 365 l0 97 -49 0 -49 0 -22 -100 c-25 -106 -45 -150 -82 -174 -34 -22
-178 -36 -380 -36 l-178 0 0 356 0 357 333 -7 c399 -7 435 -11 470 -51 31 -35
115 -181 138 -239 16 -40 17 -41 71 -44 l55 -3 -5 213 c-3 141 -8 217 -16 225
-33 34 -406 38 -1131 12 -267 -9 -338 -7 -562 17 -62 7 -63 7 -63 -18z"/>
<path d="M22990 1848 c0 -14 -3 -39 -6 -55 l-6 -30 89 -8 c48 -4 117 -14 153
-23 l65 -17 7 -60 c10 -86 22 -1371 14 -1427 -7 -45 -9 -47 -54 -62 -37 -12
-225 -45 -264 -46 -5 0 -8 -19 -8 -42 l0 -43 732 -3 c403 -1 812 -4 908 -5
l174 -2 13 85 c7 47 27 154 43 237 42 211 43 203 -26 203 l-55 0 -25 -56 c-58
-132 -150 -239 -240 -281 -88 -40 -231 -55 -479 -50 -240 5 -290 14 -312 57
-9 19 -13 109 -13 353 0 300 1 328 17 334 33 13 506 9 535 -4 40 -18 63 -63
88 -167 12 -50 24 -99 27 -108 3 -14 15 -18 52 -18 l48 0 -4 268 c-2 147 -4
311 -3 365 l0 97 -49 0 -49 0 -22 -100 c-25 -106 -45 -150 -82 -174 -34 -22
-178 -36 -380 -36 l-178 0 0 356 0 357 333 -7 c399 -7 435 -11 470 -51 31 -35
115 -181 138 -239 16 -40 17 -41 71 -44 l55 -3 -5 213 c-3 141 -8 217 -16 225
-33 34 -406 38 -1131 12 -267 -9 -338 -7 -562 17 -62 7 -63 7 -63 -18z"/>
<path d="M30200 1848 c0 -14 -3 -39 -6 -55 l-6 -30 89 -8 c48 -4 117 -14 153
-23 l65 -17 7 -60 c10 -86 22 -1371 14 -1427 -7 -45 -9 -47 -54 -62 -37 -12
-225 -45 -264 -46 -5 0 -8 -19 -8 -42 l0 -43 732 -3 c403 -1 812 -4 908 -5
l174 -2 13 85 c7 47 27 154 43 237 42 211 43 203 -26 203 l-55 0 -25 -56 c-58
-132 -150 -239 -240 -281 -88 -40 -231 -55 -479 -50 -240 5 -290 14 -312 57
-9 19 -13 109 -13 353 0 300 1 328 17 334 33 13 506 9 535 -4 40 -18 63 -63
88 -167 12 -50 24 -99 27 -108 3 -14 15 -18 52 -18 l48 0 -4 268 c-2 147 -4
311 -3 365 l0 97 -49 0 -49 0 -22 -100 c-25 -106 -45 -150 -82 -174 -34 -22
-178 -36 -380 -36 l-178 0 0 356 0 357 333 -7 c399 -7 435 -11 470 -51 31 -35
115 -181 138 -239 16 -40 17 -41 71 -44 l55 -3 -5 213 c-3 141 -8 217 -16 225
-33 34 -406 38 -1131 12 -267 -9 -338 -7 -562 17 -62 7 -63 7 -63 -18z"/>
</g>
</svg>
