<svg xmlns="http://www.w3.org/2000/svg" width="780" height="283.3" viewBox="0 0 780 283.3"><defs><style>.cls-1{fill:#c13555;}.cls-2{fill:#c13655;}.cls-3{fill:#c13755;}.cls-4{fill:#3a3835;}.cls-5{fill:#231f20;}</style></defs><g id="Layer_2" data-name="Layer 2"><g id="Layer_1-2" data-name="Layer 1"><path class="cls-1" d="M439.16,0c19.45,14.48,33.07,34.71,50.41,51.49.72-1,1.3-1.41,1.36-1.9,2.22-19.42,5.41-23,25.19-21.48,31.52,2.41,27-1.3,26.54,28.3-.1,6.55-1.25,13.08-2.21,22.35C535.06,68,534,58.71,533.34,49.68c-.51-6.71-3-8.13-9.25-7.91-16.85.61-16.85.35-15.8,16.95a43.3,43.3,0,0,1,.25,6.91c-.38,3.89,2.92,9.43-3.05,11.1-6.3,1.76-12.75,5.94-19.42-.51-14.95-14.48-30.57-28.28-45.42-42.85-4.91-4.82-7.84-4.47-13-.39C400.49,54.55,373,75.67,345.58,97c-6.07,4.73-12.5,6-19.31,2.09-5.85-3.34-7.5-8.87-6.85-15.26.6-5.92,5-9,9.25-12.18C362.34,46.07,397.3,22.35,433.2,0Z"/><path class="cls-1" d="M479.49,129.61c19-2.48,18.95-2.47,25.95,14.3,9.11,21.83,18.25,43.65,28.21,67.47,6.62-15.58,12.55-29.5,18.45-43.43q5.21-12.27,10.3-24.58c6.77-16.4,6.75-16.4,26-13.55q-20.83,48.69-41.52,97-8.73,20.4-17.49,40.8c-7.21,16.9-7.2,16.9-26.68,14.58,5.64-12.75,10.81-25.46,16.89-37.73,3.09-6.23,2.7-11.29,0-17.51-12.93-29.88-25.39-59.95-37.9-90C480.69,134.65,478.79,132.46,479.49,129.61Z"/><path class="cls-2" d="M419.83,174.46c0-6.6-.42-13.24.11-19.8.68-8.28-.05-14.22-11-12.53-5.86.9-4.54-4.13-4.74-7.55-.21-3.59.09-7.17,5-6.32,11.43,2,10.85-5.1,10.82-12.86,0-4-2.94-9.27,3.2-12.15,11.84-5.54,14.54-4,14.54,8.85v1c0,15,0,14.81,15.25,15.23,4.29.12,11.29-3.61,11.3,6.1,0,5.91-1.44,8-7.75,8-18.81.14-18.87.43-18.78,19.21.07,12.87-.19,25.77.71,38.59.83,11.89,4.76,14.8,16.68,14.31,4.13-.17,7.83-1.26,7.8,5.24,0,5,.1,8.52-6.36,9.78-21.2,4.15-34.36-4.88-36.28-26.43-.85-9.49-.15-19.12-.15-28.69Z"/><path class="cls-3" d="M608.93,149.66c0-23.42.46-46.85-.24-70.25-.26-9,4.47-8.14,10.34-8.33s9.48.11,9.41,8.06q-.63,70.24,0,140.5c.05,7.45-2.66,8.87-9.14,8.34-5.53-.45-10.86,1.24-10.58-8.07C609.39,196.51,608.93,173.08,608.93,149.66Z"/><path class="cls-4" d="M134.57,145.17c6.71-10.28,14.24-17.91,26.65-19.15,4.3-.43,8.89-.11,7.15,5.78-1.16,3.93,5.66,11.49-5.7,11.63-15.69.18-25,11.75-25.52,30.52-.43,14.83-.1,29.67-.12,44.51,0,8.44-8.74,13.48-16.27,9.48-2.29-1.22-1.79-3.23-1.8-5.1-.29-30-.42-60-.95-90-.08-4.73,2.38-5.07,5.37-4.5,3.87.74,10-3.35,11.08,4C135.1,136.52,134.57,140.88,134.57,145.17Z"/><path class="cls-4" d="M392,164.24c-3.49-17.7-12.24-31.8-30.46-36.73s-34,.17-46.55,17.07c-.44-4.75-.94-8.1-1-11.46-.24-8.52-6.66-3.93-10.34-4.78-4.5-1-6.13.9-6.09,5.86.36,42.59.38,85.18.59,127.78,0,2.4-1.27,5.33,2,7,7.85,4,16.08-.94,16.09-9.81,0-14.17,0-28.33,0-44.32,16.93,22.69,56.35,20.8,70.84-9.11C393.38,192.57,394.83,178.59,392,164.24Zm-21.1,33.69C366,210.44,353.31,217.66,341,215.77c-13.6-2.1-23.17-12-24.62-25.73a90.82,90.82,0,0,1-.06-10.13c-.72-9.75.22-18.53,5.46-26.21,6.2-9.08,14.9-14,26.05-12.91,11.55,1.17,19.36,8,23.44,18.6C376.21,172.16,375.84,185.26,370.9,197.93Z"/><path class="cls-4" d="M91,151.66c-8.4-20-27.58-29.46-48.49-24.63-10,2.3-17.62,8.19-24.76,17.69-.27-4.8-.67-7.65-.55-10.48.36-8.82-6.27-5.34-10.47-6-4.88-.74-6.94.82-6.68,6.41C2,176.84.82,219,.75,261.21c0,8,3.5,8.06,9.48,8.15,6.29.11,9.57-.68,9.22-8.36-.68-14.63-.2-29.31-.2-44.82,23,24.47,59.7,15,71.18-11.73C97.89,187.08,98.32,169.17,91,151.66ZM73.88,197.12c-5.16,13.42-17.65,20.79-30.43,18.58C29,213.19,19.77,202.47,19.28,187.46c-.09-2.64,0-5.28,0-9.22-.5-7.72.08-16.51,5.21-24.41,11.79-18.18,36.84-17.66,47.4,1.28C79.4,168.63,79.35,182.92,73.88,197.12Z"/><path class="cls-2" d="M688.8,180.64c10.59.39,21.2.11,31.81.11h20.87c21.6,0,21.6,0,16.09-21.61-5.91-23.2-21.8-36.26-44.38-36.45-23.42-.21-41,13.37-47,36.27a79.14,79.14,0,0,0-1.75,29.5c2.64,22.44,16.43,36.93,38.24,40.87,22.13,4,42.43-5.3,52-24,1.25-2.44,4-5.11,2-8.16s-17.09-.89-19.37,2.67c-8.68,13.49-17.32,17.48-31.5,14.54-12.6-2.61-21.09-12.35-23.5-26.29C681.25,182.37,682.91,180.42,688.8,180.64Zm-4.28-22c3.83-12.16,15-21.21,26.94-21.42s24.32,9.29,28,21.4c1.32,4.4,1.12,6.81-4.49,6.58-7.6-.32-15.23-.08-22.84-.08s-15.23-.17-22.84.05C684.06,165.37,683,163.47,684.52,158.68Z"/><path class="cls-4" d="M226.91,125.8c-29.37,0-50.12,22.19-50,53.49.13,30.12,20.23,51.19,48.67,51.06,29.65-.14,50.42-22.29,50-53.38C275.28,146.7,255.39,125.82,226.91,125.8ZM243,210.32c-7.8,6.28-16.61,7.87-26.08,4.33-12.59-4.7-17.76-15.08-20.26-27.22a47.26,47.26,0,0,1-.52-8.24c.2-26,13.48-40.67,33.55-39A24.28,24.28,0,0,1,244,146.31C261,161,260.48,196.29,243,210.32Z"/><path class="cls-5" d="M756.49,94.39v15h-2.2v-15H749.5v-2.1h11.78v2.1Z"/><path class="cls-5" d="M765.78,109.43h-2.2V92.29h2.2l6,10.43h.1l6-10.43H780v17.14h-2.2V99.25l.09-2.87h-.09l-5.37,9.41h-1.29l-5.36-9.41h-.1l.1,2.87Z"/></g></g></svg>