<svg xmlns="http://www.w3.org/2000/svg" width="227.34" height="160" viewBox="0 0 227.34 160">
    <defs>
        <style>
            .cls-1{fill:#fafafa}.cls-2{fill:#e0e0e0}.cls-3{fill:#fff}.cls-4{fill:#f0f0f0}.cls-5{fill:#37474f}.cls-6{fill:#cfd8dc}.cls-7{opacity:.2}.cls-11{fill:#f5f5f5}.cls-12{fill:#455a64}.cls-13{fill:#263238}
        </style>
    </defs>
    <g id="For_sale-amico_1_" transform="translate(-8.044 -76.69)">
        <g id="freepik--Floor--inject-1--inject-51" transform="translate(8.044 117.922)">
            <path id="Path_19973" d="M54.7 298.779c44.391 23.193 116.364 23.193 160.755 0s44.391-60.787 0-83.98S99.089 191.611 54.7 214.8s-44.388 60.791 0 83.979z" class="cls-1" transform="translate(-21.406 -197.406)"/>
        </g>
        <g id="freepik--Plants--inject-1--inject-51" transform="translate(26.738 136.913)">
            <path id="Path_19975" d="M66.8 226.459l2.891-1.65a49.828 49.828 0 0 0 .35-14.2c-1.478-9.23-7.742-12.412-10.023-11.5s-2.822 3.65 1.3 8.984c2.432 3.152 5.56 9.801 5.482 18.366z" class="cls-2" transform="translate(-52.221 -198.963)"/>
            <path id="Path_19976" d="M70.281 224.715a.286.286 0 0 1-.271-.305c.635-11.515-1.542-18.3-7.358-22.75a.286.286 0 0 1-.054-.4.3.3 0 0 1 .4-.054c5.984 4.58 8.25 11.535 7.565 23.242a.286.286 0 0 1-.286.271z" class="cls-3" transform="translate(-54.393 -200.071)"/>
            <path id="Path_19977" d="M51.861 239.785c-.458.261-1.4-.31-1.758-.552a4.339 4.339 0 0 1-1.448-1.665 4.044 4.044 0 0 1-.364-2.463 9.979 9.979 0 0 1 .31-1.3c.123-.424.241-.847.364-1.266a3.255 3.255 0 0 0 .187-1.276 3.34 3.34 0 0 0-1.581-2A3.263 3.263 0 0 1 46 226.891a3.694 3.694 0 0 1 .916-2.182c.493-.63 1.093-1.187 1.542-1.852a2.576 2.576 0 0 0 .527-1.62 2.665 2.665 0 0 0-.355-1.01 14.5 14.5 0 0 1-1.108-2.029 2.054 2.054 0 0 1 .35-2.157 2.4 2.4 0 0 1 1.793-.448 4.187 4.187 0 0 1 1.67.586c1.655.921 2.6 2.881 4.354 3.59a18.111 18.111 0 0 0 2.133.517 2.61 2.61 0 0 1 1.748 1.2c.645 1.285-.552 2.871-.1 4.241.4 1.207 1.576 1.67 2.236 2.758a2.6 2.6 0 0 1 .31 1.586 7.541 7.541 0 0 1-.67 2.674 18.715 18.715 0 0 1-1.478 2.408s-7.958 4.592-8.007 4.632z" class="cls-4" transform="translate(-46 -207.388)"/>
            <path id="Path_19978" d="M59.86 238.428h-.034a.286.286 0 0 1-.251-.32c.837-6.624-2.325-15.554-7.038-19.908a.286.286 0 0 1 .389-.419c4.925 4.536 8.092 13.5 7.22 20.4a.291.291 0 0 1-.286.247z" class="cls-3" transform="translate(-49.271 -208.474)"/>
            <path id="Path_19979" d="M58.564 239.975a.281.281 0 0 1-.172-.059c-2.517-1.886-6.526-1.532-6.565-1.532a.287.287 0 0 1-.054-.571c.172 0 4.275-.369 6.964 1.65a.286.286 0 0 1 .054.4.276.276 0 0 1-.227.112z" class="cls-3" transform="translate(-48.797 -218.665)"/>
            <path id="Path_19980" d="M64.716 233.007a.3.3 0 0 1-.276-.3 7.541 7.541 0 0 1 2.66-5.329.288.288 0 0 1 .355.453 7.1 7.1 0 0 0-2.463 4.9.291.291 0 0 1-.276.276z" class="cls-3" transform="translate(-55.358 -213.352)"/>
        </g>
        <g id="freepik--Tree--inject-1--inject-51" transform="translate(183.007 103.946)">
            <path id="Rectangle_1746" d="M0 0H11.21V0.916H0z" class="cls-5" transform="rotate(-63.09 42.001 2.76)"/>
            <path id="Rectangle_1747" d="M0 0H0.916V9.397H0z" class="cls-5" transform="rotate(-31.75 58.096 -12.792)"/>
            <path id="Path_19981" d="M405.787 187.31v24.084a.394.394 0 0 1-.227.315 1.2 1.2 0 0 1-1.084 0 .384.384 0 0 1-.227-.315V187.31z" class="cls-5" transform="translate(-384.072 -160.083)"/>
            <circle id="Ellipse_28" cx="11.185" cy="11.185" r="11.185" class="cls-6" transform="rotate(-22.82 41.14 -28.01)"/>
            <path id="Path_19982" d="M413.6 157.7c1.443-4.541 2.98-6.319 2-6.871a11.185 11.185 0 1 0 3.118 16.849c-3.305.974-6.959-4.085-5.118-9.978z" class="cls-7" transform="translate(-381.36 -140.834)"/>
            <circle id="Ellipse_29" cx="7.861" cy="7.861" r="7.861" class="cls-6" transform="rotate(-45 27.637 11.447)"/>
            <path id="Path_19983" d="M378.847 162.545a7.851 7.851 0 0 0-4.6 1.478c-.212 4.8 3.866 9.486 2.724 11.057s-3.94.611-4.925-.729a7.88 7.88 0 1 0 6.8-11.821z" class="cls-6" transform="translate(-367.731 -147.508)"/>
            <path id="Path_19984" d="M378.847 162.545a7.851 7.851 0 0 0-4.6 1.478c-.212 4.8 3.866 9.486 2.724 11.057s-3.94.611-4.925-.729a7.88 7.88 0 1 0 6.8-11.821z" class="cls-7" transform="translate(-367.731 -147.508)"/>
            <circle id="Ellipse_30" cx="14.421" cy="14.421" r="14.421" class="cls-6" transform="translate(6.526)"/>
            <path id="Path_19985" d="M404.984 151.669a14.421 14.421 0 1 1-21.134-15.849 14.664 14.664 0 0 0-3.379 2.645 14.778 14.778 0 0 0-.379 3.295 14.416 14.416 0 0 0 24.892 9.91z" opacity="0.1" transform="translate(-370 -133.953)"/>
        </g>
        <g id="freepik--House--inject-1--inject-51" transform="translate(26.684 76.69)">
            <path id="Path_19986" d="M234.886 197.628l-101.9 58.832a2.359 2.359 0 0 1-2.133 0l-83.9-48.435a2.364 2.364 0 0 1-1.064-1.847v-2.157a2.354 2.354 0 0 1 1.064-1.847l101.928-58.837a2.359 2.359 0 0 1 2.133 0l83.872 48.463a2.364 2.364 0 0 1 1.064 1.847v2.157a2.364 2.364 0 0 1-1.064 1.822z" class="cls-6" transform="translate(-45.89 -110.383)"/>
            <path id="Path_19987" d="M234.886 197.628l-101.9 58.832a2.359 2.359 0 0 1-2.133 0l-83.9-48.435a2.364 2.364 0 0 1-1.064-1.847v-2.157a2.354 2.354 0 0 1 1.064-1.847l101.928-58.837a2.359 2.359 0 0 1 2.133 0l83.872 48.463a2.364 2.364 0 0 1 1.064 1.847v2.157a2.364 2.364 0 0 1-1.064 1.822z" class="cls-7" transform="translate(-45.89 -110.383)"/>
            <path id="Path_19988" d="M324.586 243.244a2.364 2.364 0 0 0-1.064-1.847l-.936-.537-102.036 58.906v6.57a2.152 2.152 0 0 0 1.064-.256l101.9-58.832a2.364 2.364 0 0 0 1.064-1.847z" transform="translate(-134.526 -160.002)" style="mix-blend-mode:multiply;isolation:isolate" fill="#cfd8dc"/>
            <path id="Path_19989" d="M324.586 243.244a2.364 2.364 0 0 0-1.064-1.847l-.936-.537-102.036 58.906v6.57a2.152 2.152 0 0 0 1.064-.256l101.9-58.832a2.364 2.364 0 0 0 1.064-1.847z" transform="translate(-134.526 -160.002)" style="mix-blend-mode:multiply;isolation:isolate" opacity="0.2"/>
            <path id="Path_19990" d="M47.6 203.406l83.9 48.435a2.359 2.359 0 0 0 2.133 0l101.9-58.832a.65.65 0 0 0 0-1.231l-83.9-48.44a2.359 2.359 0 0 0-2.133 0L47.6 202.174a.65.65 0 0 0 0 1.231z" class="cls-6" transform="translate(-46.532 -110.383)"/>
            <path id="Path_19991" d="M112.774 270.05c2.344-1.354 2.344-3.571 0-4.925l-10.634-6.112a.739.739 0 0 1 0-1.281l4.9-2.822-8-4.62-9.742 5.6c-2.344 1.354-2.339 3.566 0 4.925l10.663 6.127a.739.739 0 0 1 0 1.281l-6.925 3.994 8.033 4.6z" class="cls-11" transform="translate(-67.023 -164.788)"/>
            <path id="Path_19992" d="M196.18 204.277l26.01-15.017v27.724L196.18 232z" class="cls-2" transform="translate(-122.159 -133.817)"/>
            <path id="Path_19993" d="M221.9 213.3l-8.939 5.142a1.2 1.2 0 0 0-.532.926v10.343c0 .34.241.492.532.305l8.939-5.142a1.177 1.177 0 0 0 .532-.926V213.6c.001-.338-.232-.49-.532-.3z" class="cls-12" transform="translate(-130.405 -145.974)"/>
            <path id="Path_19994" d="M222.424 225.519a.8.8 0 0 0 .039-.1v-9.2l-7.994 4.6a.8.8 0 0 0-.039.1v9.2z" class="cls-11" transform="translate(-131.42 -147.498)"/>
            <path id="Path_19995" d="M222.433 223.3l-10 5.763v1.153l10-5.758z" class="cls-12" transform="translate(-130.405 -151.091)"/>
            <path id="Path_19996" d="M222.57 218.01v11.574l-1 .557v-11.55z" class="cls-12" transform="translate(-135.043 -148.407)"/>
            <path id="Path_19997" d="M196.18 260.562v2.31l26.01-15.012v-2.31z" class="cls-13" transform="translate(-122.159 -162.382)"/>
            <path id="Path_19998" d="M275 204.277l-26.01-15.017v27.724L275 232z" class="cls-4" transform="translate(-148.958 -133.817)"/>
            <path id="Path_19999" d="M265.772 213.3l8.939 5.142a1.2 1.2 0 0 1 .532.926v10.343c0 .34-.241.492-.532.305l-8.939-5.142a1.177 1.177 0 0 1-.532-.926V213.6c0-.338.236-.49.532-.3z" class="cls-12" transform="translate(-157.205 -145.974)"/>
            <path id="Path_20000" d="M267.274 225.519s-.034-.069-.044-.1v-9.2l7.994 4.6a.8.8 0 0 1 .039.1v9.2z" class="cls-11" transform="translate(-158.215 -147.498)"/>
            <path id="Path_20001" d="M265.24 223.3l10 5.763v1.153l-10-5.758z" class="cls-12" transform="translate(-157.205 -151.091)"/>
            <path id="Path_20002" d="M274.37 218.01v11.574l1 .557v-11.55z" class="cls-12" transform="translate(-161.838 -148.407)"/>
            <path id="Path_20003" d="M275 260.562v2.31l-26.01-15.012v-2.31z" class="cls-12" transform="translate(-148.958 -162.382)"/>
            <path id="Path_20004" d="M301.8 175.716l22.006-42.736 16.007 20.789v27.719L301.8 203.436z" class="cls-2" transform="translate(-175.758 -105.256)"/>
            <path id="Path_20005" d="M322.461 216.147l-8.939 5.142a1.182 1.182 0 0 0-.532.926v10.343c0 .34.236.493.532.31l8.939-5.147a1.177 1.177 0 0 0 .532-.921v-10.343c0-.34-.236-.478-.532-.31z" class="cls-12" transform="translate(-181.437 -147.425)"/>
            <path id="Path_20006" d="M322.984 228.359a.8.8 0 0 0 .039-.1v-9.2l-7.994 4.6a.666.666 0 0 0-.039.094v9.205z" class="cls-11" transform="translate(-182.452 -148.939)"/>
            <path id="Path_20007" d="M322.993 226.15l-10 5.758v1.157l10-5.758z" class="cls-12" transform="translate(-181.437 -152.537)"/>
            <path id="Path_20008" d="M323.13 220.86v11.574l-1 .552v-11.55z" class="cls-12" transform="translate(-186.075 -149.853)"/>
            <path id="Path_20009" d="M359.021 195.023l-8.939 5.147a1.167 1.167 0 0 0-.532.921v10.343c0 .34.236.493.532.31l8.934-5.142a1.187 1.187 0 0 0 .537-.926v-10.343c0-.359-.241-.478-.532-.31z" class="cls-12" transform="translate(-199.99 -136.703)"/>
            <path id="Path_20010" d="M359.539 207.239a.56.56 0 0 0 .039-.1v-9.2l-7.994 4.6a.713.713 0 0 0-.044.1v9.2z" class="cls-11" transform="translate(-201 -138.222)"/>
            <path id="Path_20011" d="M359.553 205.03l-10 5.758v1.157l10-5.758z" class="cls-12" transform="translate(-199.99 -141.82)"/>
            <path id="Path_20012" d="M359.69 199.74v11.574l-1 .552v-11.55z" class="cls-12" transform="translate(-204.629 -139.135)"/>
            <path id="Path_20013" d="M336.857 160.988l4.925-2.852c.291-.167.532-.03.532.31v10.344a1.2 1.2 0 0 1-.532.926l-4.925 2.847c-.3.172-.537.034-.537-.305v-10.344a1.187 1.187 0 0 1 .537-.926z" class="cls-12" transform="translate(-193.276 -117.986)"/>
            <path id="Path_20014" d="M338.32 163.469l.064-.089 3.97-2.29v9.23a.543.543 0 0 1-.064.084l-3.965 2.29z" class="cls-11" transform="translate(-194.291 -119.521)"/>
            <path id="Path_20015" d="M342.354 169.34l-4.034 2.33v1.152l4.034-2.33z" class="cls-12" transform="translate(-194.291 -123.708)"/>
            <path id="Path_20016" d="M301.8 253.417l38.008-21.947v2.31L301.8 255.727z" class="cls-13" transform="translate(-175.758 -155.237)"/>
            <path id="Path_20017" d="M157.013 175.716l-22.006-42.736L119 153.769v27.719l38.013 21.947z" class="cls-11" transform="translate(-82.992 -105.256)"/>
            <path id="Path_20018" d="M127.13 214.739V193.95l8 4.62v20.794z" class="cls-13" transform="translate(-87.117 -136.197)"/>
            <path id="Path_20019" d="M160.162 213.3l8.934 5.142a1.187 1.187 0 0 1 .537.926v10.343c0 .34-.241.492-.537.305l-8.934-5.142a1.177 1.177 0 0 1-.532-.926V213.6c-.005-.338.236-.49.532-.3z" class="cls-12" transform="translate(-103.61 -145.974)"/>
            <path id="Path_20020" d="M161.664 225.519a.674.674 0 0 1-.044-.1v-9.2l7.994 4.6a.672.672 0 0 1 .044.1v9.2z" class="cls-11" transform="translate(-104.62 -147.498)"/>
            <path id="Path_20021" d="M159.62 223.3l10.008 5.763v1.153l-10.008-5.758z" class="cls-12" transform="translate(-103.605 -151.091)"/>
            <path id="Path_20022" d="M168.76 218.01v11.574l1 .557v-11.55z" class="cls-12" transform="translate(-108.244 -148.407)"/>
            <path id="Path_20023" d="M154.947 160.988l-4.925-2.852c-.3-.167-.532-.03-.532.31v10.344a1.182 1.182 0 0 0 .532.926l4.925 2.847c.3.172.532.034.532-.305v-10.344a1.182 1.182 0 0 0-.532-.926z" class="cls-12" transform="translate(-98.465 -117.986)"/>
            <path id="Path_20024" d="M155.5 163.469l-.059-.089-3.97-2.29v9.23a.541.541 0 0 0 .064.084l3.965 2.29z" class="cls-11" transform="translate(-99.469 -119.521)"/>
            <path id="Path_20025" d="M151.47 169.34l4.034 2.33v1.152l-4.034-2.33z" class="cls-12" transform="translate(-99.469 -123.708)"/>
            <path id="Path_20026" d="M275.429 149.747l-26.439-15.269V79.03l48.445 27.98z" class="cls-12" transform="translate(-148.958 -77.877)"/>
            <path id="Path_20027" d="M346.008 132.98l-.458.887 17.55 19.277.916-.532z" class="cls-12" transform="translate(-197.96 -105.256)"/>
            <path id="Path_20028" d="M363.185 154.895l-1.084.626L345.72 137.7l.655-1.271z" class="cls-13" transform="translate(-198.047 -107.007)"/>
            <path id="Path_20029" d="M275 147.15l-26.01-15.017V76.69l48.016 27.724z" class="cls-5" transform="translate(-148.958 -76.69)"/>
            <path id="Path_20030" d="M172.636 149.747l26.439-15.268V79.03l-48.445 27.98z" class="cls-12" transform="translate(-99.043 -77.877)"/>
            <path id="Path_20031" d="M132.947 132.98l.458.887-17.549 19.277-.916-.532z" class="cls-12" transform="translate(-80.931 -105.256)"/>
            <path id="Path_20032" d="M116.8 154.895l1.084.626 16.381-17.82-.655-1.271z" class="cls-13" transform="translate(-81.875 -107.007)"/>
            <path id="Path_20033" d="M173.506 147.15l26.01-15.017V76.69L151.5 104.414z" class="cls-13" transform="translate(-99.485 -76.69)"/>
            <path id="Path_20034" d="M197.2 158.714l5.5 10.683v-11.55l-5.5-3.177z" class="cls-4" transform="translate(-122.676 -116.263)"/>
            <path id="Path_20035" d="M208.37 150.407l6-10.4 4 4.62v11.55l-10 5.777z" class="cls-2" transform="translate(-128.345 -108.823)"/>
            <path id="Path_20036" d="M214.354 156.271l3.7-2.138c.222-.128.4-.025.4.231v7.742a.882.882 0 0 1-.4.69l-3.7 2.138a.249.249 0 0 1-.4-.227v-7.742a.886.886 0 0 1 .4-.694z" class="cls-12" transform="translate(-131.176 -115.963)"/>
            <path id="Path_20037" d="M215.45 158.1a.776.776 0 0 1 .049-.064l2.955-1.719v6.925l-.044.064-2.955 1.714z" class="cls-11" transform="translate(-131.938 -117.1)"/>
            <path id="Path_20038" d="M218.474 162.51l-3.024 1.744v.867l3.024-1.748z" class="cls-12" transform="translate(-131.938 -120.242)"/>
            <path id="Path_20039" d="M220.55 140.01l2 1.157 4 4.62-2-1.157z" class="cls-13" transform="translate(-134.526 -108.823)"/>
            <path id="Path_20040" d="M220.55 139.01l2 1.153 4 4.625-2-1.157z" class="cls-13" transform="translate(-134.526 -108.316)"/>
            <path id="Path_20041" d="M208.127 137.595l-8 11.55-8-4.62 8-11.555z" class="cls-5" transform="translate(-120.098 -105.251)"/>
            <path id="Path_20042" d="M208.127 136.59l-8 11.555-8-4.62 8-11.555z" class="cls-5" transform="translate(-120.098 -104.743)"/>
            <path id="Path_20043" d="M224.62 141.35v.5l4 4.62v-.493z" class="cls-12" transform="translate(-136.591 -109.503)"/>
            <path id="Path_20044" d="M216.374 141.35l-8 11.555v.493l8-11.55z" class="cls-12" transform="translate(-128.345 -109.503)"/>
            <path id="Path_20045" d="M192.12 155.43v.493l8 4.62v-.493z" class="cls-13" transform="translate(-120.098 -116.649)"/>
            <path id="Path_20046" d="M295.111 158.714l-5.5 10.683v-11.55l5.5-3.177z" class="cls-2" transform="translate(-169.572 -116.263)"/>
            <path id="Path_20047" d="M279.3 150.407l-6-10.4-4 4.62v11.55l10 5.777z" class="cls-11" transform="translate(-159.265 -108.823)"/>
            <path id="Path_20048" d="M278.983 156.271l-3.7-2.138c-.222-.128-.4-.025-.4.231v7.742a.886.886 0 0 0 .4.69l3.7 2.138a.246.246 0 0 0 .4-.227v-7.742a.882.882 0 0 0-.4-.694z" class="cls-12" transform="translate(-162.097 -115.963)"/>
            <path id="Path_20049" d="M279.429 158.1a.519.519 0 0 0-.044-.064l-2.955-1.719v6.925a.5.5 0 0 1 .049.064l2.955 1.714z" class="cls-1" transform="translate(-162.884 -117.1)"/>
            <path id="Path_20050" d="M276.38 162.51l3.024 1.744v.867l-3.024-1.748z" class="cls-12" transform="translate(-162.858 -120.242)"/>
            <path id="Path_20051" d="M271.239 140.01l-2 1.157-4 4.62 2-1.157z" class="cls-13" transform="translate(-157.205 -108.823)"/>
            <path id="Path_20052" d="M271.239 139.01l-2 1.153-4 4.625 2-1.157z" class="cls-13" transform="translate(-157.205 -108.316)"/>
            <path id="Path_20053" d="M273.36 137.595l8 11.55 8-4.62-8-11.555z" class="cls-5" transform="translate(-161.326 -105.251)"/>
            <path id="Path_20054" d="M273.36 136.59l8 11.555 8-4.62-8-11.555z" class="cls-12" transform="translate(-161.326 -104.743)"/>
            <path id="Path_20055" d="M269.239 141.35v.5l-4 4.62v-.493z" class="cls-12" transform="translate(-157.205 -109.503)"/>
            <path id="Path_20056" d="M273.36 141.35l8 11.555v.493l-8-11.55z" class="cls-12" transform="translate(-161.326 -109.503)"/>
            <path id="Path_20057" d="M297.614 155.43v.493l-8 4.62v-.493z" class="cls-13" transform="translate(-169.572 -116.649)"/>
            <path id="Path_20058" d="M187.939 276.03l-8 4.625v2.31l8-4.625z" class="cls-13" transform="translate(-113.917 -177.85)"/>
            <path id="Path_20059" d="M140.773 262.8l-38.013-21.95v2.315l38.013 21.947z" class="cls-12" transform="translate(-74.75 -159.997)"/>
            <path id="Path_20060" d="M110.759 231.47l-8 4.62 38.013 21.952 8-4.625z" class="cls-5" transform="translate(-74.75 -155.237)"/>
            <path id="Path_20061" d="M177.86 250.116a.493.493 0 0 0 .3.4 1.586 1.586 0 0 0 1.443 0 .493.493 0 0 0 .3-.4V221.55h-2.053v28.566z" class="cls-13" transform="translate(-112.857 -150.203)"/>
            <path id="Path_20062" d="M111 211.692a.493.493 0 0 0 .3.409 1.606 1.606 0 0 0 1.438 0 .493.493 0 0 0 .3-.409V183.15H111z" class="cls-13" transform="translate(-78.932 -130.716)"/>
            <path id="Path_20063" d="M146.706 195.944l-40.013-23.1-8 4.62 40.013 23.1z" class="cls-12" transform="translate(-72.685 -125.484)"/>
            <path id="Path_20064" d="M179.93 224.37v1.152l8-4.62v-1.152z" class="cls-13" transform="translate(-113.912 -149.29)"/>
            <path id="Path_20065" d="M138.7 205.324L98.69 182.22v1.157l40.013 23.1z" class="cls-5" transform="translate(-72.685 -130.244)"/>
        </g>
        <g id="freepik--for-sale--inject-1--inject-51" transform="translate(116.619 180.145)">
            <path id="Path_20066" d="M265.73 349.6a1.118 1.118 0 0 0 .645.887 3.472 3.472 0 0 0 3.147 0 1.118 1.118 0 0 0 .645-.887v-32.41h-4.433v32.41z" class="cls-13" transform="translate(-247.388 -302.193)"/>
            <path id="Path_20067" d="M228.49 309.7v-19.64l39.688 22.912v19.642z" class="cls-4" transform="translate(-228.49 -288.425)"/>
            <path id="Path_20068" d="M228.49 288.375l2.832-1.635 39.692 22.912-2.837 1.635z" class="cls-11" transform="translate(-228.49 -286.74)"/>
            <path id="Path_20069" d="M311.907 333.26v19.64l-2.837 1.635V334.9z" class="cls-2" transform="translate(-269.382 -310.348)"/>
            <path id="Path_20070" d="M234.92 313.018v-7.156c0-.148.025-.241.079-.276s.138 0 .251.049l2.635 1.522c.163.094.241.3.241.626v.291c0 .32-.079.438-.241.345l-1.67-.985v1.97l1.551.891c.163.094.241.305.241.625v.3c0 .32-.079.433-.241.34l-1.551-.891v3.093c0 .113-.039.172-.113.177a.778.778 0 0 1-.384-.138l-.3-.177c-.331-.188-.498-.389-.498-.606z" class="cls-13" transform="translate(-231.753 -296.297)"/>
            <path id="Path_20071" d="M242.85 314.84q0-4 2.517-2.556t2.482 5.452q0 4.024-2.5 2.581t-2.499-5.477zm3.413 4.1a4.3 4.3 0 0 0 .291-1.97 6.974 6.974 0 0 0-.286-2.285 2.049 2.049 0 0 0-.891-1.143c-.409-.236-.714-.2-.906.1a4.257 4.257 0 0 0-.3 1.97 6.96 6.96 0 0 0 .3 2.3 2.083 2.083 0 0 0 .906 1.157q.591.331.886-.131z" class="cls-13" transform="translate(-235.777 -299.508)"/>
            <path id="Path_20072" d="M255.1 324.678v-7.156c0-.143.025-.231.084-.266s.138 0 .256.044l1.581.906a3.581 3.581 0 0 1 1.97 3.27q0 1.335-.916 1.374v.044a4.088 4.088 0 0 1 .665 1.606l.581 2.512a.417.417 0 0 1 0 .084.231.231 0 0 1 0 .079c0 .172-.172.158-.522-.044l-.3-.158c-.305-.177-.493-.36-.493-.552l-.532-2.463a2.368 2.368 0 0 0-.271-.685 1.315 1.315 0 0 0-.463-.409l-.36-.212v2.783c0 .217-.172.227-.493 0l-.261-.153c-.359-.182-.526-.387-.526-.604zm1.97-3.009a.335.335 0 0 0 .448-.044 1.039 1.039 0 0 0 .187-.7 1.936 1.936 0 0 0-.182-.9 1.207 1.207 0 0 0-.493-.537l-.665-.384v2.157z" class="cls-13" transform="translate(-241.994 -302.219)"/>
            <path id="Path_20073" d="M268.088 333.056a3.645 3.645 0 0 1-.69-.818 2.085 2.085 0 0 1-.089-.227.625.625 0 0 1-.03-.2 1.02 1.02 0 0 1 .118-.492q.118-.222.266-.133a.792.792 0 0 1 .192.2c.084.1.138.172.167.2a3.157 3.157 0 0 0 .906.837.817.817 0 0 0 .625.138c.172-.049.261-.236.261-.552a1.674 1.674 0 0 0-.231-.862 7.161 7.161 0 0 0-.7-.985 11.434 11.434 0 0 1-.813-1.079 4.607 4.607 0 0 1-.493-1.029 3.541 3.541 0 0 1-.182-1.157c0-.675.187-1.1.566-1.266a1.65 1.65 0 0 1 1.478.271 4.1 4.1 0 0 1 .68.492 3.72 3.72 0 0 1 .566.606.655.655 0 0 1 .138.379 1.251 1.251 0 0 1-.108.493c-.074.158-.153.212-.246.163a1.447 1.447 0 0 1-.222-.212 3.355 3.355 0 0 0-.739-.566q-.414-.236-.621-.118a.493.493 0 0 0-.212.463 1.611 1.611 0 0 0 .133.645 2.547 2.547 0 0 0 .3.527c.113.148.32.4.621.773a7.728 7.728 0 0 1 1.024 1.532 3.581 3.581 0 0 1 .33 1.547 2.01 2.01 0 0 1-.236 1.044.852.852 0 0 1-.714.419 2.034 2.034 0 0 1-1.133-.35 4.971 4.971 0 0 1-.912-.683z" class="cls-13" transform="translate(-248.175 -306.44)"/>
            <path id="Path_20074" d="M275.49 337.518v-.182l1.6-6.3c.039-.163.212-.158.527 0l.492.3a.985.985 0 0 1 .586.611l1.591 8.141v.2q0 .222-.4 0l-.394-.227c-.276-.163-.428-.32-.458-.493l-.31-1.724-1.694-.985-.31 1.359c-.03.128-.167.118-.424-.03l-.389-.222q-.417-.226-.417-.448zm3.064-.956l-.527-2.926c-.044-.266-.084-.557-.118-.867l-.049-.03c-.034.276-.074.517-.118.734l-.492 2.32z" class="cls-13" transform="translate(-252.341 -309.158)"/>
            <path id="Path_20075" d="M286.708 343.132a.734.734 0 0 1-.079-.369v-7.151c0-.217.167-.232.493-.039l.3.172a1.28 1.28 0 0 1 .379.3.492.492 0 0 1 .118.315v6.309l1.655.956a.433.433 0 0 1 .2.231 1.117 1.117 0 0 1 .059.4v.291a.65.65 0 0 1-.059.335c-.039.054-.1.059-.2 0l-2.62-1.512a.7.7 0 0 1-.246-.238z" class="cls-13" transform="translate(-257.994 -311.453)"/>
            <path id="Path_20076" d="M294.778 347.784a.734.734 0 0 1-.079-.369v-7.043c0-.148.025-.241.079-.276s.138 0 .251.054l2.847 1.64a.492.492 0 0 1 .2.231 1.148 1.148 0 0 1 .054.4v.3a.651.651 0 0 1-.054.33c-.039.054-.108.059-.2 0l-1.881-1.084v1.97l1.675.985a.424.424 0 0 1 .2.227 1.138 1.138 0 0 1 .059.4v.3a.626.626 0 0 1-.059.33c-.039.059-.1.059-.2 0l-1.675-.985v2.138l1.891 1.093a.409.409 0 0 1 .187.217 1.123 1.123 0 0 1 .054.4v.3a.626.626 0 0 1-.054.335c-.039.054-.1.054-.187 0l-2.857-1.645a.7.7 0 0 1-.251-.248z" class="cls-13" transform="translate(-262.089 -313.81)"/>
        </g>
        <g id="freepik--Clouds--inject-1--inject-51" transform="translate(31.491 89.096)">
            <path id="Path_20077" d="M100.688 106.928l-1.423.547v-3.132c0-2.463-1.97-3.083-4.132-1.842a8.625 8.625 0 0 0-3.9 6.753v.458a2.074 2.074 0 0 0-1.808.276 6.2 6.2 0 0 0-2.807 4.861v.207l-1.97 1.143a4.093 4.093 0 0 0-1.847 3.2c0 1.177.827 1.655 1.847 1.064l16.056-9.269a4.078 4.078 0 0 0 1.847-3.2c-.016-1.175-.843-1.652-1.863-1.066z" class="cls-4" transform="translate(-69.428 -101.879)"/>
            <path id="Path_20078" d="M70.8 112.77l-2.576 1.478v-1.088c0-1.33-.936-1.872-2.088-1.207a4.142 4.142 0 0 0-1.221 1.192c-.187-1.675-1.478-2.3-3.093-1.374a6.9 6.9 0 0 0-3.123 5.418v1.118a2.886 2.886 0 0 0 .266 1.3l-2.152 1.246a2.561 2.561 0 0 0-1.157 2c0 .739.522 1.039 1.157.67l13.987-8.078a2.556 2.556 0 0 0 1.157-2c-.004-.745-.522-1.039-1.157-.675z" class="cls-4" transform="translate(-55.65 -106.682)"/>
        </g>
    </g>
</svg>
