<svg width="595" height="528" viewBox="0 0 595 528" fill="none" xmlns="http://www.w3.org/2000/svg">
<g clip-path="url(#clip0)">
<path d="M129.159 518.797H300.604V527.08H129.159V518.797Z" stroke="#23110C" stroke-miterlimit="10"/>
<path d="M135.823 495.099H307.268V518.797H135.823V495.099Z" stroke="#23110C" stroke-miterlimit="10"/>
<path d="M217.18 279.286H161.334C161.334 279.286 105.718 215.325 125.942 167.008H264.062C263.833 167.008 265.901 244.315 217.18 279.286Z" fill="#F8C844"/>
<path d="M194.887 206.582C194.887 206.582 179.49 205.201 171.906 190.706C165.011 177.822 151.452 111.099 152.371 92.2331C153.29 73.3667 150.762 51.9695 198.335 47.8281C245.447 43.6867 271.877 53.35 278.771 59.7922C286.815 67.1546 289.573 78.1984 286.125 107.648C282.908 137.328 275.094 192.087 253.031 202.21C230.969 212.334 194.887 206.582 194.887 206.582Z" fill="#2D2A9F"/>
<path d="M535.479 190.936H98.3637" stroke="#23110C" stroke-miterlimit="10"/>
<path d="M171.904 190.706L173.972 190.936H265.21L430.68 512.125H401.493C401.493 512.125 320.367 447.933 286.813 349.92C287.043 350.15 155.817 236.262 171.904 190.706Z" fill="#000233"/>
<path d="M239.701 190.936C239.701 190.936 329.33 228.439 350.933 297.462C372.536 366.486 250.043 512.125 250.043 512.125H220.167C220.167 512.125 239.701 404.679 301.522 331.054C301.522 331.054 212.583 296.542 187.303 268.933C187.303 268.933 155.358 238.793 172.135 190.476L239.701 190.936Z" fill="#FF205D"/>
<path d="M282.677 134.107C282.677 134.107 299.684 190.476 315.082 190.706C330.479 190.936 335.765 190.706 335.765 190.706C335.765 190.706 366.101 173.681 343.119 46.6777H327.262C327.262 46.6777 314.392 100.976 319.218 137.788C319.218 137.788 320.597 65.7742 265.211 52.6598L282.677 134.107Z" fill="#2D2A9F"/>
<path d="M232.278 3.8768L241.686 25.1208L224.878 32.5809L215.47 11.3368L232.278 3.8768Z" fill="#FACCBC"/>
<path d="M232.348 3.8833C232.348 3.8833 244.298 15.8473 245.907 22.9797C246.826 28.0415 241.54 31.9528 236.025 31.0325C234.186 30.8024 232.118 29.652 230.509 28.0414L232.348 3.8833Z" fill="#FACCBC"/>
<path d="M243.837 47.598C243.837 47.598 248.433 54.9605 242.458 60.0222C236.483 65.0839 221.315 62.553 217.638 47.3679C217.408 47.3679 239.241 43.9167 243.837 47.598Z" fill="#FACCBC"/>
<path d="M183.625 265.252C183.625 265.252 177.19 228.669 162.941 214.404C162.941 214.174 153.289 260.19 183.625 265.252Z" fill="#F8C844"/>
<path d="M393.449 181.963H530.881V188.866H393.449V181.963Z" fill="#D8D4D4"/>
<path d="M446.997 97.7549H558.459L530.881 181.963H419.419L446.997 97.7549Z" fill="#CEC9C9"/>
<path d="M419.419 181.963H530.881V183.804H419.419V181.963Z" fill="#BFB8B8"/>
<path d="M419.418 184.034L393.219 186.565V188.866H419.418V184.034Z" fill="#BFB8B8"/>
<path d="M487.446 135.948C486.527 140.319 488.825 144.691 492.732 145.611C496.639 146.531 500.545 143.54 501.695 139.169C502.614 134.797 500.316 130.426 496.409 129.506C492.502 128.815 488.595 131.576 487.446 135.948Z" fill="#F3EEEA"/>
<path d="M53.089 445.172C53.089 445.172 60.9028 334.275 9.6534 359.353C-14.4775 371.087 9.6534 445.172 46.4242 445.172H53.089Z" fill="#FF205D"/>
<path d="M53.0898 445.172C53.0898 445.172 61.1335 405.599 85.4942 406.749C109.855 407.9 82.9662 441.951 57.6862 445.172H53.0898Z" fill="#FF205D"/>
<path d="M53.5488 445.172V337.266" stroke="#23110C" stroke-miterlimit="10"/>
<path d="M53.5491 355.672C53.5491 355.672 58.3753 341.177 70.7855 341.407C83.1957 341.637 70.0961 360.043 53.5491 359.353V355.672Z" fill="#FF205D"/>
<path d="M53.5488 344.168C53.5488 344.168 49.1823 327.603 42.0579 331.744C32.6354 337.266 53.5488 347.389 53.5488 347.389V344.168Z" fill="#FF205D"/>
<path d="M86.1836 456.216H16.7784L17.4679 458.977L83.6556 465.649L86.1836 456.216Z" fill="#BFB8B8"/>
<path d="M34.0135 445.172H68.9459H89.1699L68.9459 521.558H34.0135L13.7895 445.172H34.0135Z" stroke="#23110C" stroke-miterlimit="10"/>
<path d="M16.0884 454.145H86.6426L86.1829 456.216H16.7778L16.0884 454.145Z" stroke="#23110C" stroke-miterlimit="10"/>
<path d="M109.395 527.54H114.451L116.289 191.167H107.556L109.395 527.54Z" fill="#F4EFEB" stroke="#23110C" stroke-miterlimit="10"/>
<path d="M592.472 434.359H457.109V438.5L592.932 435.969V434.359H592.472Z" fill="#BFB8B8"/>
<path d="M577.994 458.286L442.171 454.835V452.765H577.994V458.286Z" fill="#BFB8B8"/>
<path d="M575.236 474.852H439.414V476.923L575.236 481.064V474.852Z" fill="#BFB8B8"/>
<path d="M594.541 496.709H458.488V504.762L594.541 499.01V496.709Z" fill="#BFB8B8"/>
<path d="M439.184 474.852H575.236V496.709H439.184V474.852Z" stroke="#23110C" stroke-width="0.5" stroke-miterlimit="10"/>
<path d="M441.942 412.271H577.994V434.128H441.942V412.271Z" stroke="#23110C" stroke-miterlimit="10"/>
<path d="M464.924 412.271V434.359H462.166V412.271H464.924Z" stroke="#23110C" stroke-miterlimit="10"/>
<path d="M456.879 434.359H592.932V452.995H456.879V434.359Z" stroke="#23110C" stroke-miterlimit="10"/>
<path d="M475.954 434.359V452.765H478.252V434.359H475.954Z" stroke="#23110C" stroke-miterlimit="10"/>
<path d="M441.942 452.765H577.994V474.622H441.942V452.765Z" stroke="#23110C" stroke-miterlimit="10"/>
<path d="M550.187 452.765H552.715V474.622H550.187V452.765Z" stroke="#23110C" stroke-miterlimit="10"/>
<path d="M458.488 496.709H594.541V518.567H458.488V496.709Z" stroke="#23110C" stroke-miterlimit="10"/>
<path d="M483.538 496.709H485.836V518.567H483.538V496.709Z" stroke="#23110C" stroke-miterlimit="10"/>
<path d="M519.621 527.54H524.677L526.516 191.167H517.783L519.621 527.54Z" fill="#F4EFEB" stroke="#23110C" stroke-miterlimit="10"/>
<path d="M378.281 167.008V125.364L368.629 114.091" stroke="#23110C" stroke-miterlimit="10"/>
<path d="M389.773 157.575C389.773 157.575 386.786 155.964 384.028 157.575C381.27 159.186 376.904 160.336 372.537 160.106C368.17 159.876 364.953 156.425 360.816 156.885L364.723 190.706H386.326L389.773 157.575Z" fill="#FF205D"/>
<path d="M364.492 143.771H386.095H391.381L386.095 190.476H364.492L359.206 143.771H364.492Z" stroke="#23110C" stroke-miterlimit="10"/>
<path d="M282.678 134.107C282.678 134.107 284.287 123.064 284.287 117.772C284.287 117.772 290.492 135.718 286.355 145.611L282.678 134.107Z" fill="#000233"/>
<path d="M169.146 123.984C169.146 123.984 162.022 135.258 158.345 138.939L160.643 150.673C160.643 150.673 168.917 138.709 169.146 123.984Z" fill="#000233"/>
<path d="M318.299 122.833C318.299 122.833 317.15 115.241 316.691 113.63C316.691 113.63 313.244 123.754 318.529 130.656C318.529 130.426 318.299 124.674 318.299 122.833Z" fill="#000233"/>
<path d="M301.522 331.284C301.522 331.284 307.267 327.372 300.832 320.93C300.832 320.93 301.752 326.452 295.317 328.753L301.522 331.284Z" fill="#000233"/>
<path d="M234.186 5.95395C234.186 5.95395 234.646 1.81256 230.509 1.12233C226.372 0.202015 221.316 3.65317 216.72 2.50279C212.123 1.3524 206.838 6.18402 210.285 12.166C213.732 18.1481 216.72 25.7406 220.857 23.9C220.857 23.9 223.155 17.2278 221.776 12.6262C221.776 12.6262 231.658 9.86527 233.497 5.4938L234.186 5.95395Z" fill="#000233"/>
<path d="M204.538 5.95402C204.538 9.63526 207.526 12.3962 210.973 12.3962C214.65 12.3962 217.408 9.40518 217.408 5.95402C217.408 2.27278 214.421 -0.488159 210.973 -0.488159C207.526 -0.488159 204.538 2.27278 204.538 5.95402Z" fill="#000233"/>
<path d="M219.937 23.9C219.937 23.9 219.707 32.1828 216.489 35.8641C213.272 39.5453 216.719 43.6867 218.328 43.2266C218.328 43.2266 222.005 32.1828 220.626 23.6699L219.937 23.9Z" fill="#000233"/>
<path d="M243.838 47.598C243.838 47.598 239.012 37.9347 239.242 19.9887L221.086 19.2985C221.086 19.2985 221.316 33.7933 217.639 47.1378C217.409 47.3679 236.714 51.0491 243.838 47.598Z" fill="#FACCBC"/>
<path d="M221.776 14.2368C221.776 14.2368 218.789 13.0864 217.64 15.8474C216.72 18.1482 219.708 22.0595 224.534 19.7587C224.764 19.7587 224.764 16.5376 221.776 14.2368Z" fill="#FACCBC"/>
<path d="M235.564 30.8025C235.564 30.8025 230.738 29.8822 227.061 25.9708C226.831 26.2009 229.13 31.7228 235.564 30.8025Z" fill="#DCA797"/>
<path d="M209.824 177.132C209.824 177.132 189.6 164.938 162.941 160.566L163.86 164.247C163.631 164.247 190.06 175.521 209.824 177.132Z" fill="#000233"/>
<path d="M159.495 62.323C159.495 62.323 97.4444 134.337 88.9411 150.443C83.1956 161.256 68.2574 198.299 209.596 190.936V177.362C209.596 177.362 187.074 166.548 130.768 159.186C130.768 159.186 164.092 141.93 170.527 120.533C176.962 98.6753 159.495 62.323 159.495 62.323Z" fill="#2D2A9F"/>
<path d="M130.997 158.956C130.997 158.956 124.792 158.265 120.196 158.956C120.196 158.956 126.861 153.894 138.352 154.584C138.352 154.584 133.066 158.035 130.997 158.956Z" fill="#000233"/>
<path d="M217.639 46.6777L217.409 47.1379C221.086 62.323 236.254 64.8539 242.23 59.7922C247.056 55.6508 244.987 50.1289 244.068 48.0582L245.677 48.2883C250.503 50.5891 249.354 66.6945 232.577 64.3937C215.801 62.0929 215.111 46.6777 215.111 46.6777H217.639Z" fill="#FF205D"/>
<path d="M425.165 512.125L457.109 521.558V527.08H405.63L402.413 521.788L403.102 512.125H425.165Z" fill="#000233"/>
<path d="M244.527 512.125L258.776 522.478L265.211 523.859V527.08H245.447L222.695 525.929L221.545 516.266L222.695 512.125H244.527Z" fill="#000233"/>
<path d="M354.566 14.2921C354.898 13.9727 355.382 14.144 355.701 14.4749C356.02 14.8059 355.848 15.2907 355.517 15.61L329.118 35.6305L328.167 34.3126L354.566 14.2921Z" fill="#000233"/>
<path d="M340.821 46.6777C340.821 46.6777 345.187 33.1032 340.131 29.8821H330.479C330.479 29.8821 327.721 31.2625 328.87 34.9438C330.019 38.8551 330.019 46.6777 330.019 46.6777H340.821Z" fill="#FACCBC"/>
<path d="M341.051 31.2625C341.051 31.2625 339.212 27.8113 334.846 27.5813C330.479 27.3512 336.454 28.9617 336.914 32.4129C337.833 35.8641 341.051 31.2625 341.051 31.2625Z" fill="#FACCBC"/>
<path d="M209.825 181.273C209.825 181.273 218.099 181.733 222.465 183.344C226.832 184.724 233.956 187.485 233.496 190.706H209.825V181.273Z" fill="#FACCBC"/>
<path d="M152.37 406.749H167.078V494.869H152.37V406.749Z" stroke="#23110C" stroke-miterlimit="10"/>
</g>
<defs>
<clipPath id="clip0">
<rect width="595" height="528" fill="white" transform="matrix(-1 0 0 1 595 0)"/>
</clipPath>
</defs>
</svg>
