<?xml version="1.0" encoding="utf-8"?>
<!-- Generator: Adobe Illustrator 16.0.0, SVG Export Plug-In . SVG Version: 6.00 Build 0)  -->
<!DOCTYPE svg PUBLIC "-//W3C//DTD SVG 1.1//EN" "http://www.w3.org/Graphics/SVG/1.1/DTD/svg11.dtd">
<svg version="1.1" id="Layer_1" xmlns="http://www.w3.org/2000/svg" xmlns:xlink="http://www.w3.org/1999/xlink" x="0px" y="0px"
	 width="24px" height="23px" viewBox="0 0 24 23" enable-background="new 0 0 24 23" xml:space="preserve">
<path fill="#B11E41" d="M0.308,8.261c0.942,0.882,1.849,1.79,2.719,2.725c0.887,0.922,1.724,1.881,2.573,2.831
	c0.838,0.958,1.646,1.938,2.47,2.906c0.805,0.982,1.599,1.973,2.379,2.973l-2.313,0.019c2.305-3.45,4.718-6.824,7.284-10.089
	c0.635-0.822,1.303-1.619,1.959-2.424c0.65-0.81,1.33-1.6,2.016-2.385c0.672-0.794,1.387-1.559,2.09-2.332
	c0.717-0.762,1.441-1.52,2.207-2.248c-0.434,0.964-0.908,1.898-1.391,2.828c-0.496,0.919-0.98,1.846-1.508,2.743
	c-0.514,0.907-1.033,1.81-1.582,2.691c-0.543,0.887-1.074,1.781-1.641,2.651c-2.23,3.503-4.616,6.896-7.108,10.213L9.247,22.98
	L8.149,21.38c-0.718-1.046-1.422-2.102-2.116-3.165c-0.674-1.078-1.365-2.145-2.025-3.232c-0.649-1.097-1.311-2.184-1.922-3.308
	C1.456,10.564,0.864,9.425,0.308,8.261z"/>
</svg>
