<?xml version="1.0" encoding="iso-8859-1"?>
<!-- Generator: Adobe Illustrator 16.0.0, SVG Export Plug-In . SVG Version: 6.00 Build 0)  -->
<!DOCTYPE svg PUBLIC "-//W3C//DTD SVG 1.1//EN" "http://www.w3.org/Graphics/SVG/1.1/DTD/svg11.dtd">
<svg version="1.1" id="Layer_1" xmlns="http://www.w3.org/2000/svg" xmlns:xlink="http://www.w3.org/1999/xlink" x="0px" y="0px"
	 width="68.611px" height="60.719px" viewBox="0 0 68.611 60.719" style="enable-background:new 0 0 68.611 60.719;"
	 xml:space="preserve">
<g>
	<g>
		<path style="fill:#FFFFFF;" d="M8.164,57.292v0.562c0,1.374,1.063,2.501,2.361,2.501h53.498c1.303,0,2.36-1.127,2.36-2.501v-0.562
			c0-1.375-1.059-2.502-2.36-2.502H47.121l18.086-14.168L32.988,0.629L3.062,25.109L27.56,54.79H10.525
			C9.226,54.79,8.164,55.917,8.164,57.292z M30.744,28.184l-21.596-4.07l21.596-17.63V28.184z M59.888,38.562l-27.05-4.297
			l1.154-27.364L59.888,38.562z M37.742,57.344l0.422-18.965l20.715,3.373L40.06,57.274L37.742,57.344z M33.033,57.133L9.164,27.921
			l20.785,3.432c0.516,1.761-0.154,3.565,0.082,5.351c1.465,0.698,3.666,0.521,5.158,1.399l-0.188,19.03H33.033z"/>
	</g>
</g>
</svg>
