<?xml version="1.0" encoding="iso-8859-1"?>
<!-- Generator: Adobe Illustrator 16.0.0, SVG Export Plug-In . SVG Version: 6.00 Build 0)  -->
<!DOCTYPE svg PUBLIC "-//W3C//DTD SVG 1.1//EN" "http://www.w3.org/Graphics/SVG/1.1/DTD/svg11.dtd">
<svg version="1.1" id="Layer_1" xmlns="http://www.w3.org/2000/svg" xmlns:xlink="http://www.w3.org/1999/xlink" x="0px" y="0px"
	 width="68.611px" height="60.719px" viewBox="0 0 68.611 60.719" style="enable-background:new 0 0 68.611 60.719;"
	 xml:space="preserve">
<g>
	<g>
		<g>
			<path style="fill:#FFFFFF;" d="M61.022,17.709H48.021v-6.8c0-2.825-2.287-5.116-5.116-5.116h-33.9
				c-2.825,0-5.118,2.291-5.118,5.116v26.616c0,2.826,2.293,5.116,5.118,5.116h4.39v8.652c0,1.067,0.859,1.934,1.928,1.934
				c0.55,0,1.037-0.227,1.389-0.592h0.003l9.973-9.997h3.504v0.14c0,2.232,1.81,4.043,4.042,4.043h12.815l7.887,7.901l0,0
				c0.272,0.286,0.664,0.466,1.097,0.466c0.841,0,1.523-0.682,1.523-1.525v-6.842h3.47c2.229,0,4.04-1.807,4.04-4.041V21.747
				C65.062,19.514,63.252,17.709,61.022,17.709z M42.697,38.988H26.009c-0.497,0.009-0.947,0.212-1.272,0.539l-0.016,0.009
				L17.061,47.2v-6.473c-0.047-0.961-0.839-1.73-1.815-1.738h-6.03c-0.922,0-1.673-0.748-1.673-1.675V11.143
				c0-0.918,0.751-1.668,1.673-1.668h33.481c0.919,0,1.672,0.75,1.672,1.668v26.171l0,0C44.369,38.239,43.616,38.988,42.697,38.988z
				"/>
			<rect x="12.171" y="14.089" style="fill:#FFFFFF;" width="27.521" height="3.716"/>
			<rect x="12.171" y="22.351" style="fill:#FFFFFF;" width="27.521" height="3.714"/>
			<rect x="12.171" y="30.61" style="fill:#FFFFFF;" width="27.521" height="3.719"/>
		</g>
	</g>
</g>
</svg>
