<?xml version="1.0" encoding="iso-8859-1"?>
<!-- Generator: Adobe Illustrator 16.0.0, SVG Export Plug-In . SVG Version: 6.00 Build 0)  -->
<!DOCTYPE svg PUBLIC "-//W3C//DTD SVG 1.1//EN" "http://www.w3.org/Graphics/SVG/1.1/DTD/svg11.dtd">
<svg version="1.1" id="Layer_1" xmlns="http://www.w3.org/2000/svg" xmlns:xlink="http://www.w3.org/1999/xlink" x="0px" y="0px"
	 width="68.611px" height="60.719px" viewBox="0 0 68.611 60.719" style="enable-background:new 0 0 68.611 60.719;"
	 xml:space="preserve">
<g>
	<g>
		<g>
			<path style="fill:#FFFFFF;" d="M43.699,3.465c-4.977,0-9.652,1.942-13.174,5.457c-5.996,6.002-7.188,15.295-2.898,22.599
				l0.31,0.53L9.056,50.929C9.025,50.961,8.154,51.78,8.126,53c-0.018,0.959,0.48,1.955,1.484,2.959
				c1.033,1.033,2.084,1.558,3.127,1.558c1.27,0,2.139-0.788,2.147-0.798l18.859-18.861l0.527,0.313
				c2.848,1.672,6.106,2.558,9.43,2.558l0,0c4.978,0,9.654-1.938,13.17-5.458c7.264-7.262,7.264-19.08,0-26.347
				C53.357,5.407,48.675,3.465,43.699,3.465z M43.699,35.213c-7.229-0.004-13.113-5.887-13.113-13.115
				c0-7.23,5.886-13.116,13.113-13.116l0,0c7.236,0,13.119,5.886,13.119,13.116C56.818,29.326,50.935,35.209,43.699,35.213z"/>
			<path style="fill:#FFFFFF;" d="M41.828,29.778h3.437v-5.021h5.021V21.32h-5.021v-5.022h-3.437v5.022h-5.02v3.437h5.02V29.778z"/>
		</g>
	</g>
</g>
</svg>
