<?xml version="1.0" encoding="iso-8859-1"?>
<!-- Generator: Adobe Illustrator 16.0.0, SVG Export Plug-In . SVG Version: 6.00 Build 0)  -->
<!DOCTYPE svg PUBLIC "-//W3C//DTD SVG 1.1//EN" "http://www.w3.org/Graphics/SVG/1.1/DTD/svg11.dtd">
<svg version="1.1" id="Layer_1" xmlns="http://www.w3.org/2000/svg" xmlns:xlink="http://www.w3.org/1999/xlink" x="0px" y="0px"
	 width="68.611px" height="60.72px" viewBox="0 0 68.611 60.72" style="enable-background:new 0 0 68.611 60.72;"
	 xml:space="preserve">
<g>
	<g>
		<g>
			<g>
				<path style="fill:#B21E44;" d="M48.799,5.434H18.395c-3.42,0-6.221,2.806-6.221,6.226v37.668c0,3.419,2.801,6.221,6.221,6.221
					h30.404c3.424,0,6.224-2.802,6.224-6.221V11.66C55.023,8.24,52.223,5.434,48.799,5.434z M49.836,45.914
					c0,2.28-1.859,4.144-4.142,4.144H21.5c-2.28,0-4.145-1.863-4.145-4.144v-30.84c0-2.28,1.864-4.147,4.145-4.147h24.194
					c2.282,0,4.142,1.867,4.142,4.147V45.914z"/>
				<path style="fill:#B21E44;" d="M43.881,27.726H23.321c-1.144,0-2.079,0.935-2.079,2.073v1.904c0,1.143,0.936,2.072,2.079,2.072
					h20.561c1.139,0,2.074-0.93,2.074-2.072v-1.904C45.956,28.661,45.02,27.726,43.881,27.726z"/>
				<path style="fill:#B21E44;" d="M43.881,18.4H23.321c-1.144,0-2.079,0.928-2.079,2.074v1.895c0,1.144,0.936,2.075,2.079,2.075
					h20.561c1.139,0,2.074-0.932,2.074-2.075v-1.895C45.956,19.328,45.02,18.4,43.881,18.4z"/>
				<path style="fill:#B21E44;" d="M43.881,37.065H23.321c-1.144,0-2.079,0.927-2.079,2.063v1.906c0,1.141,0.936,2.073,2.079,2.073
					h20.561c1.139,0,2.074-0.933,2.074-2.073v-1.906C45.956,37.992,45.02,37.065,43.881,37.065z"/>
			</g>
		</g>
	</g>
</g>
</svg>
