<?xml version="1.0" encoding="iso-8859-1"?>
<!-- Generator: Adobe Illustrator 16.0.0, SVG Export Plug-In . SVG Version: 6.00 Build 0)  -->
<!DOCTYPE svg PUBLIC "-//W3C//DTD SVG 1.1//EN" "http://www.w3.org/Graphics/SVG/1.1/DTD/svg11.dtd">
<svg version="1.1" id="Layer_1" xmlns="http://www.w3.org/2000/svg" xmlns:xlink="http://www.w3.org/1999/xlink" x="0px" y="0px"
	 width="68.611px" height="60.719px" viewBox="0 0 68.611 60.719" style="enable-background:new 0 0 68.611 60.719;"
	 xml:space="preserve">
<g>
	<g>
		<g>
			<g>
				<path style="fill:#FFFFFF;" d="M15.925,49.208l-4.1,6.289c-0.162,0.672,0.148,1.166,0.588,1.568
					c0.377,0.348,1.15,0.563,1.699,0.426l5.5-5.15c-0.289-0.207-0.578-0.395-0.863-0.609C17.726,50.944,16.785,50.097,15.925,49.208
					z"/>
				<path style="fill:#FFFFFF;" d="M44.849,34.739l-2.396,3.838c-1.867,2.996-6.871,2.781-10.389,1.692
					c-1.215-0.375-2.404-0.978-3.478-1.797c-1.387-1.063-2.465-2.304-3.186-3.647c-1.447-2.705-2.039-7.132,0.051-10.146
					l4.354-2.968c-6.05-2.098-11.517-0.113-15.224,3.452c0.021-0.03,0.033-0.065,0.06-0.091c-0.052,0.05-0.095,0.111-0.146,0.164
					c-0.354,0.348-0.688,0.72-0.996,1.122c-0.313,0.405-0.586,0.831-0.832,1.27c-3.633,6.113-1.635,14.259,4.201,20.289
					c0.861,0.889,1.803,1.736,2.828,2.521c0.281,0.218,0.57,0.409,0.861,0.61c8.293,5.84,18.321,5.588,23.561-1.242
					c0.084-0.104,0.158-0.211,0.236-0.325c-0.031,0.028-0.06,0.052-0.088,0.078C47.464,45.12,48.429,40.353,44.849,34.739z"/>
				<path style="fill:#FFFFFF;" d="M39.023,25.624c-2.369-1.817-4.185-4.056-5.332-6.425c-0.023-0.012-5.943,5.236-5.943,5.236
					c-2.094,3.014-2.129,6.149-0.68,8.853c0.719,1.344,1.801,2.582,3.188,3.647c1.07,0.821,2.261,1.422,3.478,1.799
					c3.518,1.091,7.266,0.276,9.135-2.713l3.613-6.717C46.408,29.193,41.316,27.384,39.023,25.624z"/>
				<path style="fill:#FFFFFF;" d="M53.574,7.242C47.16,2.324,39.017,2.168,35.388,6.9c-0.166,0.216-0.306,0.447-0.445,0.676
					C34.88,7.673,34.81,7.77,34.751,7.872c-0.123,0.22-0.225,0.449-0.328,0.68c-0.045,0.104-0.098,0.201-0.139,0.302
					C34.19,9.09,34.12,9.334,34.046,9.58c-0.032,0.104-0.071,0.207-0.098,0.313c-0.064,0.243-0.105,0.497-0.148,0.745
					c-0.016,0.117-0.045,0.227-0.059,0.344c-0.033,0.244-0.047,0.49-0.059,0.743c-0.009,0.126-0.023,0.254-0.023,0.381
					c-0.004,0.237,0.012,0.476,0.023,0.719c0.008,0.146,0.008,0.288,0.02,0.435c0.023,0.219,0.06,0.447,0.098,0.673
					c0.023,0.166,0.039,0.332,0.072,0.5c0.037,0.201,0.094,0.401,0.144,0.603c0.049,0.193,0.088,0.386,0.145,0.581
					c0.049,0.172,0.117,0.341,0.172,0.513c0.076,0.224,0.148,0.449,0.232,0.673c0.055,0.133,0.119,0.266,0.176,0.397
					c0.111,0.259,0.219,0.522,0.346,0.779c0.041,0.086,0.097,0.17,0.138,0.254c0.073,0.145,0.149,0.285,0.231,0.424
					c0.09,0.166,0.168,0.327,0.265,0.485c0.014,0.022,0.028,0.043,0.04,0.06c0.47,0.78,1.019,1.541,1.636,2.274
					c0.875,1.034,1.889,2.012,3.037,2.894c0.666,0.506,1.348,0.956,2.041,1.366c0.102,0.059,0.198,0.124,0.301,0.178
					c0.279,0.159,0.563,0.3,0.846,0.44c0.078,0.041,0.156,0.077,0.232,0.119c0.049,0.023,0.1,0.049,0.146,0.076
					c0.277,0.127,0.553,0.242,0.83,0.356c0.135,0.058,0.269,0.113,0.402,0.167c0.274,0.104,0.555,0.195,0.832,0.291
					c0.133,0.04,0.27,0.087,0.405,0.13c0.275,0.08,0.552,0.157,0.83,0.224c0.104,0.022,0.211,0.051,0.316,0.072
					c0.027,0.009,0.053,0.014,0.082,0.02c0.279,0.061,0.559,0.113,0.832,0.159c0.127,0.02,0.256,0.038,0.385,0.056
					c0.277,0.038,0.555,0.069,0.834,0.087c0.119,0.013,0.236,0.02,0.355,0.026c0.28,0.013,0.561,0.021,0.838,0.018
					c0.104-0.002,0.215-0.008,0.322-0.01c0.28-0.008,0.561-0.022,0.836-0.052c0.094-0.012,0.19-0.023,0.284-0.035
					c0.281-0.035,0.56-0.075,0.832-0.131c0.078-0.014,0.156-0.037,0.234-0.056c0.283-0.061,0.563-0.13,0.832-0.215
					c0.061-0.021,0.113-0.04,0.172-0.057c0.287-0.098,0.568-0.198,0.838-0.316c0.021-0.011,0.039-0.021,0.06-0.029
					c0.932-0.417,1.776-0.976,2.5-1.68c-0.006,0.005-0.006,0.009-0.011,0.013c0.275-0.27,0.535-0.558,0.775-0.866
					C62.246,19.987,59.99,12.161,53.574,7.242z"/>
			</g>
		</g>
	</g>
</g>
</svg>
