<?xml version="1.0" encoding="iso-8859-1"?>
<!-- Generator: Adobe Illustrator 16.0.0, SVG Export Plug-In . SVG Version: 6.00 Build 0)  -->
<!DOCTYPE svg PUBLIC "-//W3C//DTD SVG 1.1//EN" "http://www.w3.org/Graphics/SVG/1.1/DTD/svg11.dtd">
<svg version="1.1" id="Layer_1" xmlns="http://www.w3.org/2000/svg" xmlns:xlink="http://www.w3.org/1999/xlink" x="0px" y="0px"
	 width="68.611px" height="60.719px" viewBox="0 0 68.611 60.719" style="enable-background:new 0 0 68.611 60.719;"
	 xml:space="preserve">
<g>
	<g>
		<g>
			<path style="fill:#FFFFFF;" d="M22.03,54.78c7.973,1.499,15.099,2.262,21.188,2.262c0.306,0,0.606-0.002,0.911-0.006
				c0.378-0.006,0.765-0.008,1.157-0.008h0.192c2.142,0,4.568,0,6.253-0.676c1.231-0.489,3.507-2.391,3.757-3.549
				c0.067-0.334,0.019-0.764-0.034-1.217c-0.063-0.551-0.127-1.117-0.002-1.676c0.242-1.084,1.02-1.701,1.706-2.25
				c0.776-0.617,1.258-1.035,1.318-1.84c0.039-0.533-0.245-1.102-0.545-1.705c-0.354-0.715-0.757-1.527-0.681-2.447
				c0.08-1.039,0.762-1.69,1.362-2.269c0.575-0.551,0.927-0.917,0.935-1.438c0.009-0.559-0.282-0.934-0.76-1.496
				c-0.519-0.614-1.165-1.377-1.104-2.567c0.055-1.011,0.633-1.632,1.099-2.132c0.398-0.428,0.645-0.713,0.678-1.111
				c0.136-1.722-2.009-4.159-3.114-4.626c-1.303-0.546-3.59-0.516-5.735-0.496c-0.376,0.002-0.755,0.009-1.123,0.009
				c-1.011,0-2.019,0.032-3.017,0.067c-1.017,0.029-2.021,0.063-3.015,0.063l0,0c-0.569,0-1.136-0.01-1.692-0.042l-0.657-0.027
				l-0.074-0.655c-0.315-2.791,0.773-5.06,1.823-7.257c1.145-2.387,2.329-4.866,1.938-8.264c-0.266-2.277-1.997-5.485-5.013-5.485
				c-0.228,0-0.461,0.021-0.692,0.056c-0.263,0.043-0.333,0.354-0.339,1.515c0,0.365,0,0.743-0.036,1.116
				c-0.311,3.195-0.875,6.796-2.704,9.272c-0.65,0.88-1.459,1.508-2.244,2.11c-0.846,0.65-1.64,1.262-2.129,2.132
				c-0.61,1.09-1.083,2.318-1.581,3.62c-0.481,1.253-0.979,2.549-1.628,3.765c-1.878,3.534-3.643,5.528-5.395,6.094
				c-0.433,0.141-0.879,0.164-1.262,0.164L22.03,54.78z"/>
			<path style="fill:#FFFFFF;" d="M19.376,52.252c0,2.549-2.064,3.404-4.613,3.404l0,0c-2.55,0-4.613-0.855-4.613-3.404V36.521
				c0-2.55,2.063-3.103,4.613-3.103l0,0c2.549,0,4.613,0.553,4.613,3.103V52.252z"/>
		</g>
	</g>
</g>
</svg>
