<?xml version="1.0" encoding="iso-8859-1"?>
<!-- Generator: Adobe Illustrator 16.0.0, SVG Export Plug-In . SVG Version: 6.00 Build 0)  -->
<!DOCTYPE svg PUBLIC "-//W3C//DTD SVG 1.1//EN" "http://www.w3.org/Graphics/SVG/1.1/DTD/svg11.dtd">
<svg version="1.1" id="Layer_1" xmlns="http://www.w3.org/2000/svg" xmlns:xlink="http://www.w3.org/1999/xlink" x="0px" y="0px"
	 width="68.611px" height="60.72px" viewBox="0 0 68.611 60.72" style="enable-background:new 0 0 68.611 60.72;"
	 xml:space="preserve">
<g>
	<g>
		<g>
			<g>
				<g>
					<path style="fill:#B21E44;" d="M33.134,10.772v4.679c8.586,0,15.572,6.986,15.572,15.573h4.678
						C53.384,19.857,44.298,10.772,33.134,10.772z"/>
					<path style="fill:#B21E44;" d="M33.134,0.256v4.677c14.385,0,26.088,11.705,26.088,26.091h4.68
						C63.902,14.057,50.097,0.256,33.134,0.256z"/>
				</g>
			</g>
			<path style="fill:#B21E44;" d="M31.767,51.931c5.428,0.034,10.359-2.129,13.949-5.656L34.861,35.286l1.211-4.409
				c0.342,0.092,0.691,0.147,1.059,0.147c2.211,0,3.998-1.792,3.998-4c0-2.208-1.787-3.999-3.998-3.999
				c-2.209,0-3.996,1.791-3.996,3.999c0,0.351,0.047,0.688,0.131,1.01l-4.424,1.158L17.99,18.203
				c-3.572,3.545-5.797,8.449-5.83,13.878c-0.031,4.76,1.627,9.137,4.412,12.561c-0.836,0.048-1.373,0.396-1.373,1.739v5.113
				c-1.158,0.478-2.248,1.183-3.195,2.117c-1.951,1.926-2.936,4.578-2.957,7.116h19.891c0.012-2.538-0.945-5.08-2.867-7.027
				c-0.969-0.979-2.09-1.717-3.287-2.209v-1.786C25.474,51.105,28.523,51.911,31.767,51.931z"/>
		</g>
	</g>
</g>
</svg>
