<?xml version="1.0" encoding="iso-8859-1"?>
<!-- Generator: Adobe Illustrator 16.0.0, SVG Export Plug-In . SVG Version: 6.00 Build 0)  -->
<!DOCTYPE svg PUBLIC "-//W3C//DTD SVG 1.1//EN" "http://www.w3.org/Graphics/SVG/1.1/DTD/svg11.dtd">
<svg version="1.1" id="Layer_1" xmlns="http://www.w3.org/2000/svg" xmlns:xlink="http://www.w3.org/1999/xlink" x="0px" y="0px"
	 width="68.611px" height="60.72px" viewBox="0 0 68.611 60.72" style="enable-background:new 0 0 68.611 60.72;"
	 xml:space="preserve">
<g>
	<g>
		<g>
			<g>
				<path style="fill:#B21E44;" d="M34.472,17.826l-19.73,14.222v19.708c0,2.986,2.441,5.432,5.428,5.432h9.043V38.676h10.516
					v18.512h9.047c2.984,0,5.428-2.445,5.428-5.432V32.048L34.472,17.826z"/>
				<path style="fill:#B21E44;" d="M5.812,29.985c0.578,0.809,1.547,1.157,2.471,1.06l26.189-18.877l0,0l0,0h0.004l0,0L60.66,31.045
					c0.936,0.098,1.889-0.251,2.473-1.06l1.029-1.424c0.871-1.206,0.598-2.91-0.615-3.786l-7.264-5.237
					c-1.213-0.873-2.201-2.81-2.201-4.303V6.63c0-1.491-1.221-2.713-2.709-2.713h-2.551c-1.488,0-2.713,1.222-2.713,2.713v2.863
					c0,1.49-0.988,1.995-2.197,1.123l-7.166-5.171c-1.205-0.866-2.211-1.597-2.225-1.623c-0.012-0.02-0.031-0.03-0.041-0.027
					c-0.004,0.008-0.008,0.008-0.023,0c0-0.003-0.02,0.008-0.027,0.027c-0.016,0.026-1.02,0.757-2.236,1.623L5.4,24.775
					c-1.213,0.876-1.484,2.58-0.617,3.786L5.812,29.985z"/>
			</g>
		</g>
	</g>
</g>
</svg>
