<?xml version="1.0" encoding="iso-8859-1"?>
<!-- Generator: Adobe Illustrator 16.0.0, SVG Export Plug-In . SVG Version: 6.00 Build 0)  -->
<!DOCTYPE svg PUBLIC "-//W3C//DTD SVG 1.1//EN" "http://www.w3.org/Graphics/SVG/1.1/DTD/svg11.dtd">
<svg version="1.1" id="Layer_1" xmlns="http://www.w3.org/2000/svg" xmlns:xlink="http://www.w3.org/1999/xlink" x="0px" y="0px"
	 width="279.339px" height="109.651px" viewBox="0 0 279.339 109.651" style="enable-background:new 0 0 279.339 109.651;"
	 xml:space="preserve">
<path style="fill:#E6E7E8;" d="M144.669,15.256c-5.916,4.052-17.065,12.574-18.762,13.973c-1.696,1.396-3.694,4.053-1.397,6.984
	c2.533,3.233,4.39,4.29,7.186,2.694c2.794-1.597,17.763-13.473,21.954-16.665c4.191-3.193,12.376-9.98,12.774-10.479
	c0.399-0.5,1.297-1.396,2.296-0.5c0.997,0.899,15.808,14.841,18.2,17.017c2.298,2.09,3.783,2.701,4.583,2.501
	c0.797-0.199,3.461-1.055,4.16-1.354c0.699-0.301,1.021-0.694,0.999-1.498c-0.028-1.037-0.487-9.181-0.5-9.581
	c-0.021-0.677-0.263-1.883,0.938-1.934c1.411-0.059,7.135-0.158,7.644-0.179c1.196-0.049,1.687,0.801,1.782,1.674
	c0.087,0.793,0.614,6.427,1.114,9.62c0.497,3.193,1.097,5.189,1.495,1.098c0.4-4.092,0.799-11.773,0.799-12.974
	c0-1.213-0.298-3.991-3.293-4.291c-2.994-0.3-10.163-0.307-11.551-0.2c-1.293,0.101-3.979,0.941-4.378,3.636
	c-0.398,2.695-0.419,6.125-0.419,6.125s0.191,1.22-0.816,0.119c-0.959-1.046-16.634-18.396-17.64-19.508
	c-0.831-0.921-3.492-1.748-5.513-0.451C164.595,2.195,151.954,10.267,144.669,15.256z"/>
<path style="fill:#BCBEC0;" d="M7.294,81.951h-0.15v23.146H1.013V49.195h6.132v6.731h0.15c3.017-5.085,7.428-7.629,13.237-7.629
	c4.937,0,8.787,1.715,11.554,5.142c2.768,3.428,4.151,8.022,4.151,13.779c0,6.408-1.558,11.536-4.674,15.389
	c-3.117,3.852-7.379,5.775-12.788,5.775C13.813,88.381,9.986,86.238,7.294,81.951z M7.145,66.507v5.348
	c0,3.167,1.029,5.851,3.085,8.058c2.058,2.207,4.668,3.309,7.834,3.309c3.713,0,6.623-1.421,8.73-4.262
	c2.107-2.842,3.159-6.793,3.159-11.853c0-4.264-0.985-7.604-2.954-10.022c-1.97-2.417-4.636-3.627-8.002-3.627
	c-3.565,0-6.431,1.241-8.6,3.722C8.229,59.658,7.145,62.769,7.145,66.507z"/>
<path style="fill:#BCBEC0;" d="M66,55.403c-1.072-0.823-2.617-1.234-4.637-1.234c-2.617,0-4.805,1.234-6.562,3.702
	c-1.758,2.467-2.636,5.832-2.636,10.096v19.519h-6.132v-38.29h6.132v7.889h0.149c0.873-2.691,2.206-4.792,4-6.3
	c1.795-1.509,3.801-2.264,6.02-2.264c1.595,0,2.817,0.176,3.665,0.525V55.403z"/>
<path style="fill:#BCBEC0;" d="M88.66,88.381c-5.659,0-10.177-1.788-13.555-5.365s-5.066-8.319-5.066-14.229
	c0-6.431,1.757-11.454,5.272-15.068c3.515-3.614,8.263-5.422,14.247-5.422c5.708,0,10.164,1.757,13.367,5.274
	c3.203,3.514,4.806,8.388,4.806,14.619c0,6.108-1.727,11-5.179,14.677C99.099,86.545,94.468,88.381,88.66,88.381z M89.109,53.457
	c-3.939,0-7.055,1.34-9.348,4.021c-2.294,2.68-3.44,6.376-3.44,11.087c0,4.536,1.158,8.114,3.477,10.731s5.422,3.925,9.311,3.925
	c3.964,0,7.011-1.282,9.143-3.851c2.131-2.568,3.197-6.219,3.197-10.956c0-4.787-1.066-8.476-3.197-11.067
	C96.12,54.754,93.073,53.457,89.109,53.457z"/>
<path style="fill:#BCBEC0;" d="M123.809,81.951h-0.149v23.146h-6.132V49.195h6.132v6.731h0.149
	c3.016-5.085,7.428-7.629,13.236-7.629c4.936,0,8.788,1.715,11.555,5.142c2.767,3.428,4.15,8.022,4.15,13.779
	c0,6.408-1.559,11.536-4.674,15.389c-3.116,3.852-7.38,5.775-12.789,5.775C130.327,88.381,126.501,86.238,123.809,81.951z
	 M123.66,66.507v5.348c0,3.167,1.028,5.851,3.084,8.058c2.057,2.207,4.668,3.309,7.834,3.309c3.714,0,6.624-1.421,8.73-4.262
	c2.106-2.842,3.159-6.793,3.159-11.853c0-4.264-0.983-7.604-2.953-10.022c-1.97-2.417-4.637-3.627-8.002-3.627
	c-3.564,0-6.431,1.241-8.599,3.722C124.743,59.658,123.66,62.769,123.66,66.507z"/>
<path style="fill:#E6E7E8;" d="M180.309,87.112c-1.445,0.797-3.354,1.195-5.72,1.195c-6.707,0-10.06-3.739-10.06-11.218V54.431
	h-6.58v-5.235h6.58v-9.349l6.133-1.982v11.331h9.646v5.235h-9.646v21.575c0,2.567,0.436,4.399,1.308,5.497
	c0.873,1.097,2.318,1.644,4.337,1.644c1.547,0,2.88-0.423,4.002-1.271V87.112z"/>
<g>
	<g>
		<path style="fill:#E6E7E8;" d="M239.728,87.485h-6.134V30.799h6.134V87.485z"/>
		<path style="fill:#E6E7E8;" d="M278.858,69.873h-27.035c0.101,4.265,1.246,7.553,3.442,9.872c2.192,2.317,5.208,3.477,9.048,3.477
			c4.313,0,8.275-1.421,11.891-4.262v5.759c-3.365,2.442-7.814,3.663-13.349,3.663c-5.41,0-9.661-1.738-12.752-5.216
			c-3.091-3.477-4.638-8.368-4.638-14.677c0-5.957,1.69-10.812,5.067-14.564c3.378-3.751,7.572-5.628,12.583-5.628
			c5.012,0,8.888,1.621,11.629,4.862c2.742,3.241,4.113,7.739,4.113,13.498V69.873z M272.577,64.675
			c-0.025-3.54-0.879-6.294-2.561-8.263c-1.685-1.97-4.021-2.956-7.013-2.956c-2.893,0-5.347,1.035-7.365,3.105
			c-2.02,2.069-3.267,4.773-3.738,8.113H272.577z"/>
	</g>
</g>
<polygon style="fill:#E6E7E8;" points="185.84,49.485 192.345,49.485 206.527,83.593 220.902,49.485 227.217,49.485 
	201.059,109.268 194.221,109.268 203.081,89.894 "/>
</svg>
