<?xml version="1.0" encoding="iso-8859-1"?>
<!-- Generator: Adobe Illustrator 16.0.0, SVG Export Plug-In . SVG Version: 6.00 Build 0)  -->
<!DOCTYPE svg PUBLIC "-//W3C//DTD SVG 1.1//EN" "http://www.w3.org/Graphics/SVG/1.1/DTD/svg11.dtd">
<svg version="1.1" id="Layer_1" xmlns="http://www.w3.org/2000/svg" xmlns:xlink="http://www.w3.org/1999/xlink" x="0px" y="0px"
	 width="68.611px" height="60.719px" viewBox="0 0 68.611 60.719" style="enable-background:new 0 0 68.611 60.719;"
	 xml:space="preserve">
<g>
	<g>
		<g>
			<g>
				<path style="fill:#FFFFFF;" d="M40.798,35.318l1.253-3.185c0.259-0.643-0.061-1.375-0.709-1.627l-2.771-1.089
					c-0.641-0.254-1.115-1.021-1.05-1.71L37.435,23.2c-0.094-0.688,0.36-1.477,0.991-1.751l2.734-1.188
					c0.634-0.277,0.925-1.019,0.651-1.645l-1.368-3.147c-0.277-0.637-1.015-0.923-1.649-0.646l-2.732,1.189
					c-0.632,0.275-1.52,0.07-1.957-0.463l-3.237-3.135c-0.549-0.425-0.787-1.295-0.539-1.942l1.093-2.767
					c0.258-0.648-0.061-1.378-0.706-1.624l-3.185-1.262c-0.645-0.253-1.378,0.066-1.625,0.707l-1.094,2.773
					c-0.256,0.646-1.021,1.116-1.707,1.058l-4.514,0.09c-0.685,0.082-1.468-0.363-1.744-0.999l-1.189-2.735
					c-0.276-0.631-1.019-0.928-1.652-0.652l-3.138,1.364c-0.636,0.277-0.925,1.022-0.651,1.654l1.19,2.735
					c0.276,0.637,0.069,1.512-0.46,1.959l-3.142,3.24c-0.424,0.541-1.296,0.783-1.935,0.527l-2.776-1.086
					c-0.642-0.258-1.373,0.06-1.62,0.705l-1.26,3.19c-0.255,0.639,0.063,1.369,0.706,1.624l2.772,1.087
					c0.643,0.258,1.118,1.024,1.058,1.717l0.086,4.504c0.088,0.688-0.363,1.474-0.994,1.747l-2.737,1.191
					c-0.631,0.275-0.927,1.01-0.649,1.646l1.37,3.146c0.271,0.626,1.014,0.918,1.646,0.645l2.736-1.191
					c0.629-0.274,1.514-0.066,1.958,0.466l3.236,3.138c0.547,0.426,0.783,1.292,0.531,1.938l-1.092,2.768
					c-0.253,0.646,0.064,1.377,0.707,1.63l3.191,1.249c0.642,0.262,1.371-0.058,1.621-0.705l1.097-2.771
					c0.25-0.641,1.02-1.114,1.709-1.051l4.509-0.09c0.685-0.091,1.471,0.359,1.746,0.994l1.192,2.74
					c0.273,0.629,1.015,0.921,1.65,0.645l3.138-1.365c0.635-0.274,0.925-1.016,0.651-1.646l-1.19-2.738
					c-0.277-0.636-0.073-1.517,0.458-1.957l3.145-3.236c0.42-0.549,1.287-0.784,1.934-0.533l2.771,1.086
					C39.816,36.286,40.548,35.967,40.798,35.318z M25.128,34.917c-5.07,2.205-10.966-0.121-13.167-5.184
					c-2.206-5.067,0.112-10.96,5.185-13.167c5.065-2.205,10.961,0.115,13.166,5.185C32.514,26.81,30.196,32.709,25.128,34.917z"/>
				<path style="fill:#FFFFFF;" d="M65.789,34.758l-1.371-1.619c-0.279-0.326-0.769-0.366-1.097-0.092l-1.404,1.193
					c-0.326,0.279-0.891,0.315-1.249,0.074l-2.485-1.266c-0.395-0.155-0.695-0.631-0.662-1.059l0.15-1.84
					c0.032-0.432-0.284-0.807-0.709-0.842l-2.114-0.173c-0.428-0.039-0.8,0.287-0.836,0.712l-0.153,1.842
					c-0.037,0.423-0.406,0.846-0.823,0.932l-2.664,0.855c-0.387,0.171-0.935,0.051-1.212-0.279l-1.197-1.404
					c-0.275-0.326-0.768-0.369-1.092-0.088l-1.62,1.369c-0.332,0.282-0.362,0.77-0.087,1.102l1.195,1.4
					c0.279,0.33,0.309,0.885,0.066,1.248l-1.268,2.491c-0.149,0.396-0.631,0.688-1.057,0.658l-1.842-0.149
					c-0.425-0.039-0.804,0.278-0.835,0.709l-0.181,2.111c-0.026,0.43,0.289,0.809,0.712,0.842l1.849,0.154
					c0.428,0.031,0.847,0.402,0.933,0.818l0.853,2.658c0.173,0.396,0.054,0.944-0.276,1.217l-1.408,1.197
					c-0.328,0.275-0.369,0.771-0.091,1.096l1.376,1.615c0.274,0.332,0.768,0.366,1.096,0.09l1.407-1.194
					c0.325-0.274,0.884-0.304,1.241-0.072l2.49,1.272c0.396,0.152,0.696,0.629,0.661,1.056l-0.15,1.842
					c-0.032,0.423,0.285,0.8,0.715,0.839l2.107,0.17c0.429,0.037,0.805-0.285,0.842-0.709l0.152-1.846
					c0.028-0.427,0.406-0.844,0.82-0.934l2.66-0.85c0.396-0.173,0.939-0.055,1.219,0.276l1.191,1.407
					c0.277,0.324,0.774,0.367,1.098,0.086l1.616-1.373c0.325-0.273,0.364-0.77,0.096-1.094l-1.196-1.406
					c-0.278-0.322-0.314-0.889-0.08-1.242l1.272-2.486c0.152-0.4,0.632-0.701,1.058-0.666l1.838,0.15
					c0.434,0.04,0.813-0.284,0.845-0.711l0.172-2.115c0.038-0.424-0.287-0.8-0.715-0.837l-1.844-0.149
					c-0.43-0.039-0.847-0.404-0.928-0.82l-0.854-2.67c-0.173-0.387-0.049-0.938,0.273-1.211l1.411-1.194
					C66.027,35.577,66.069,35.086,65.789,34.758z M60.981,43.198c-0.275,3.413-3.275,5.955-6.683,5.676
					c-3.416-0.279-5.956-3.272-5.678-6.681c0.275-3.421,3.279-5.963,6.688-5.681C58.72,36.795,61.26,39.788,60.981,43.198z"/>
			</g>
		</g>
	</g>
</g>
</svg>
