<svg xmlns="http://www.w3.org/2000/svg" width="56.845" height="56">
    <defs>
        <style>
            .cls-1{fill:#f7be56}.cls-2{fill:#323c6b}.cls-3{fill:#fcd462}.cls-7{fill:#707583}.cls-8{fill:#fff}
        </style>
    </defs>
    <g id="color_line" data-name="color line" transform="translate(-2.608 -3.272)">
        <path id="Path_5454" data-name="Path 5454" class="cls-1" d="M56.707 66.819H3.108l22.53-21.329 4.269 2.93 4.277-2.93z" transform="translate(-.094 -7.953)"/>
        <path id="Path_5455" data-name="Path 5455" class="cls-2" d="M56.613 67.131H3.014a.406.406 0 0 1-.279-.7L25.265 45.1a.406.406 0 0 1 .508-.04l4.04 2.772 4.048-2.772a.406.406 0 0 1 .508.04l22.522 21.33a.406.406 0 0 1-.279.7zm-52.58-.812h51.561l-21.545-20.4-4.007 2.745a.406.406 0 0 1-.459 0l-4-2.744z" transform="translate(0 -7.859)"/>
        <path id="Path_5456" data-name="Path 5456" class="cls-3" d="M25.638 41.9 3.108 63.23V26.44z" transform="translate(-.094 -4.365)"/>
        <path id="Path_5457" data-name="Path 5457" class="cls-2" d="M3.014 63.542a.406.406 0 0 1-.406-.406v-36.79a.406.406 0 0 1 .635-.334l22.53 15.461a.406.406 0 0 1 .05.629L3.293 63.431a.406.406 0 0 1-.279.111zm.406-36.425v35.076L24.9 41.857z" transform="translate(0 -4.27)"/>
        <path id="Path_5458" data-name="Path 5458" class="cls-3" d="M63.92 26.44v36.79L41.4 41.9z" transform="translate(-7.308 -4.365)"/>
        <path id="Path_5459" data-name="Path 5459" class="cls-1" d="M66.475 27.929v33.246l2.169 2.055V26.44z" transform="translate(-12.032 -4.365)"/>
        <path id="Path_5460" data-name="Path 5460" class="cls-1" d="m3.109 25.274 7.321-5.022V30.3z" transform="translate(-.094 -3.199)"/>
        <path id="Path_5461" data-name="Path 5461" class="cls-2" d="M10.336 30.607a.406.406 0 0 1-.23-.071l-7.321-5.022a.406.406 0 0 1 0-.669l7.321-5.021a.406.406 0 0 1 .635.334V30.2a.406.406 0 0 1-.405.407zm-6.6-5.428 6.2 4.252v-8.5z" transform="translate(0 -3.105)"/>
        <path id="Path_5462" data-name="Path 5462" class="cls-1" d="M34.4 3.771 41.871 8.9H26.92z" transform="translate(-4.58 -.094)"/>
        <path id="Path_5463" data-name="Path 5463" class="cls-2" d="M41.777 9.211H26.826a.406.406 0 0 1-.23-.74l7.475-5.129a.406.406 0 0 1 .459 0L42 8.471a.406.406 0 0 1-.23.74zM28.135 8.4h12.332L34.3 4.17z" transform="translate(-4.486)"/>
        <path id="Path_5464" data-name="Path 5464" class="cls-1" d="M67.453 25.274 60.132 30.3V20.252z" transform="translate(-10.837 -3.199)"/>
        <path id="Path_5465" data-name="Path 5465" class="cls-2" d="M60.038 30.607a.406.406 0 0 1-.406-.406V20.158a.406.406 0 0 1 .635-.334l7.321 5.022a.406.406 0 0 1 0 .669l-7.321 5.022a.406.406 0 0 1-.23.071zm.406-9.679v8.5l6.2-4.252z" transform="translate(-10.743 -3.105)"/>
        <path id="Path_5466" data-name="Path 5466" d="M51.089 10.09v18.291L33.715 40.309 31.6 41.757 12.129 28.381V10.09z" transform="translate(-1.794 -1.285)" style="fill:#ebf0f3"/>
        <path id="Path_5467" data-name="Path 5467" d="M12.129 10.09v2.458H48.4v17.681l2.692-1.848V10.09z" transform="translate(-1.794 -1.285)" style="fill:#e1e6e9"/>
        <path id="Path_5468" data-name="Path 5468" class="cls-2" d="M31.5 46.318a.406.406 0 0 1-.229-.071L11.806 32.929a.406.406 0 0 1-.177-.335.453.453 0 0 1 .217-.388.406.406 0 0 1 .419 0l19.468 13.375a.406.406 0 0 1-.23.74z" transform="translate(-1.699 -5.44)"/>
        <path id="Path_5469" data-name="Path 5469" class="cls-2" d="M38.631 44.866a.406.406 0 0 1-.23-.74L55.775 32.2a.406.406 0 0 1 .635.334v.059a.406.406 0 0 1-.177.335L38.86 44.8a.406.406 0 0 1-.229.071z" transform="translate(-6.71 -5.436)"/>
        <path id="Path_5470" data-name="Path 5470" d="M0 0h8.48v6.542H0z" transform="rotate(-48.162 34.333 -14.789)" style="fill:#84879c"/>
        <path id="Path_5471" data-name="Path 5471" class="cls-2" d="M31.838 27.9a.406.406 0 0 1-.27-.1L26.7 23.433a.406.406 0 0 1-.032-.573l5.657-6.318a.406.406 0 0 1 .573-.032l4.87 4.363a.406.406 0 0 1 .032.573l-5.658 6.317a.406.406 0 0 1-.28.135zm-4.3-4.8 4.269 3.822 5.113-5.713-4.27-3.824z" transform="translate(-4.513 -2.475)"/>
        <path id="Path_5472" data-name="Path 5472" class="cls-7" d="m44.614 31.284-7.516-6.1-1.436 1.6 6.891 6.8a1.547 1.547 0 1 0 2.061-2.3z" transform="translate(-6.227 -4.128)"/>
        <path id="Path_5473" data-name="Path 5473" class="cls-2" d="M43.543 34.348a1.934 1.934 0 0 1-1.37-.559l-6.891-6.8a.406.406 0 0 1-.017-.559l1.436-1.6a.406.406 0 0 1 .558-.045l7.516 6.1a1.953 1.953 0 0 1-1.17 3.468zm-7.415-7.668 6.613 6.528a1.141 1.141 0 1 0 1.521-1.7l-7.217-5.857z" transform="translate(-6.133 -4.035)"/>
        <rect id="Rectangle_1847" data-name="Rectangle 1847" class="cls-7" width="2.413" height="8.501" rx=".755" transform="rotate(-48.162 29 -23.786)"/>
        <path id="Path_5474" data-name="Path 5474" class="cls-2" d="M39.377 21.473a1.012 1.012 0 0 1-.679-.26l-5.421-4.853a1.016 1.016 0 0 1-.081-1.438l.792-.885a1.019 1.019 0 0 1 1.437-.081l5.423 4.856a1.023 1.023 0 0 1 .081 1.438l-.792.885a1.01 1.01 0 0 1-.705.338zm-4.626-6.963a.207.207 0 0 0-.154.069l-.8.885a.2.2 0 0 0 .016.292l5.422 4.853a.223.223 0 0 0 .149.052.2.2 0 0 0 .143-.068l.792-.885a.209.209 0 0 0-.016-.292l-5.421-4.853a.205.205 0 0 0-.135-.051z" transform="translate(-5.714 -1.964)"/>
        <rect id="Rectangle_1848" data-name="Rectangle 1848" class="cls-7" width="2.413" height="8.501" rx=".755" transform="rotate(-48.162 34.445 -11.6)"/>
        <g id="Group_5043" data-name="Group 5043" transform="translate(7.495 5.965)">
            <path id="Path_5475" data-name="Path 5475" class="cls-2" d="M30.424 31.472a1.01 1.01 0 0 1-.678-.259l-5.42-4.853a1.016 1.016 0 0 1-.081-1.438l.791-.884a1.012 1.012 0 0 1 .7-.338 1.023 1.023 0 0 1 .735.259l5.429 4.854a1.02 1.02 0 0 1 .081 1.438l-.792.885a1.011 1.011 0 0 1-.7.338zM25.8 24.509a.2.2 0 0 0-.153.07l-.792.885a.2.2 0 0 0 .016.292l5.421 4.853a.208.208 0 0 0 .149.052.2.2 0 0 0 .143-.068l.792-.885a.207.207 0 0 0-.016-.292l-5.421-4.853a.208.208 0 0 0-.14-.052z" transform="translate(-11.522 -9.813)"/>
            <path id="Path_5476" data-name="Path 5476" class="cls-2" d="M63.826 63.542a.406.406 0 0 1-.279-.111L41.025 42.1a.406.406 0 0 1 .05-.629L63.6 26.011a.406.406 0 0 1 .635.334v36.79a.406.406 0 0 1-.409.407zM41.947 41.857 63.42 62.193V27.117z" transform="translate(-14.708 -10.235)"/>
            <path id="Path_5477" data-name="Path 5477" class="cls-2" d="M31.505 42.069a.406.406 0 0 1-.23-.071l-19.47-13.376a.406.406 0 0 1-.176-.334V10a.406.406 0 0 1 .406-.406h38.957A.406.406 0 0 1 51.4 10v18.287a.406.406 0 0 1-.176.334L31.733 42a.406.406 0 0 1-.228.071zm-19.065-14 19.065 13.1 19.083-13.1V10.4H12.443z" transform="translate(-9.194 -7.155)"/>
            <path id="Path_5478" data-name="Path 5478" class="cls-2" d="M72.054 52.636a.406.406 0 0 1-.406-.406v-7.574a.406.406 0 1 1 .812 0v7.575a.406.406 0 0 1-.406.405z" transform="translate(-20.501 -13.685)"/>
            <path id="Path_5479" data-name="Path 5479" class="cls-2" d="M72.054 57.73a.406.406 0 0 1-.406-.406v-.71a.406.406 0 1 1 .812 0v.71a.406.406 0 0 1-.406.406z" transform="translate(-20.501 -15.937)"/>
            <path id="Path_5480" data-name="Path 5480" class="cls-2" d="M9.035 13.847a.406.406 0 0 1-.406-.406v-.659a.406.406 0 0 1 .812 0v.66a.406.406 0 0 1-.406.405z" transform="translate(-8.629 -7.68)"/>
            <path id="Path_5481" data-name="Path 5481" class="cls-2" d="M9.035 10.474a.406.406 0 0 1-.406-.406V7a.406.406 0 0 1 .406-.406h5.577a.406.406 0 1 1 0 .812H9.441v2.666a.406.406 0 0 1-.406.402z" transform="translate(-8.629 -6.59)"/>
        </g>
        <path id="Path_5482" data-name="Path 5482" class="cls-8" d="M25.891 53.507a.493.493 0 0 1-.02.7l-5.044 4.764a.493.493 0 0 1-.677-.717l5.044-4.764a.493.493 0 0 1 .7.02z" transform="translate(-3.276 -9.435)"/>
        <path id="Path_5483" data-name="Path 5483" class="cls-8" d="M18.931 61.158a.493.493 0 0 1-.02.7l-.127.119a.493.493 0 1 1-.677-.717l.127-.119a.493.493 0 0 1 .7.02z" transform="translate(-2.891 -10.876)"/>
    </g>
</svg>
