<svg xmlns="http://www.w3.org/2000/svg" width="53.162" height="56">
    <defs>
        <style>
            .cls-1{fill:#e1e6e9}.cls-2{fill:#323c6b}.cls-5{fill:#f7be56}.cls-6{fill:#fcd462}.cls-7{fill:#fff}
        </style>
    </defs>
    <g id="color_line" data-name="color line" transform="translate(-2.737 -1.257)">
        <path id="Path_5397" data-name="Path 5397" class="cls-1" d="M12.333 9.278v3.6h-9.1v-3.6a4.548 4.548 0 1 1 9.1 0z" transform="translate(-.111 -.771)"/>
        <path id="Path_5398" data-name="Path 5398" class="cls-2" d="M12.222 13.159h-9.1a.389.389 0 0 1-.389-.389v-3.6a4.937 4.937 0 1 1 9.874 0v3.6a.389.389 0 0 1-.385.389zm-8.707-.778h8.318V9.167a4.159 4.159 0 1 0-8.318 0z" transform="translate(0 -.66)"/>
        <path id="Path_5399" data-name="Path 5399" class="cls-1" d="M59.51 63.245v2.825a4.547 4.547 0 0 1-4.544 4.552h-34.2a4.553 4.553 0 0 0 4.552-4.551v-2.826z" transform="translate(-4 -13.754)"/>
        <path id="Path_5400" data-name="Path 5400" d="M66.479 63.245v2.825a4.547 4.547 0 0 1-4.544 4.552H64.1a4.547 4.547 0 0 0 4.544-4.552v-2.825z" transform="translate(-13.135 -13.754)" style="fill:#d5d6db"/>
        <path id="Path_5401" data-name="Path 5401" d="M52.372 9.277v40.984H22.726v2.825a4.548 4.548 0 1 1-9.1 0V9.277a4.553 4.553 0 0 0-4.548-4.552H47.82a4.553 4.553 0 0 1 4.552 4.551z" transform="translate(-1.407 -.769)" style="fill:#ebf0f3"/>
        <path id="Path_5402" data-name="Path 5402" class="cls-1" d="M58.159 4.725h-2.484a4.553 4.553 0 0 1 4.552 4.551v40.985h2.485V9.277a4.553 4.553 0 0 0-4.552-4.552z" transform="translate(-11.746 -.769)"/>
        <g id="Group_5040" data-name="Group 5040" transform="translate(7.281 1.257)">
            <path id="Path_5409" data-name="Path 5409" class="cls-2" d="M11.814 62.763a.389.389 0 0 1-.389-.389v-6.76a.389.389 0 0 1 .778 0v6.76a.389.389 0 0 1-.389.389z" transform="translate(-9.209 -13.231)"/>
            <path id="Path_5410" data-name="Path 5410" class="cls-2" d="M11.814 53.743a.389.389 0 0 1-.389-.389v-.365a.389.389 0 0 1 .778 0v.365a.389.389 0 0 1-.389.389z" transform="translate(-9.209 -12.649)"/>
            <path id="Path_5411" data-name="Path 5411" class="cls-2" d="M65.776 9.792a.389.389 0 0 1-.389-.389V8.5a6.508 6.508 0 0 0-6.044-6.47.389.389 0 0 1-.361-.416.4.4 0 0 1 .416-.361A7.289 7.289 0 0 1 66.167 8.5v.9a.389.389 0 0 1-.391.389z" transform="translate(-19.76 -1.257)"/>
            <path id="Path_5412" data-name="Path 5412" class="cls-2" d="M67.6 14.925a.389.389 0 0 1-.389-.389v-.422a.389.389 0 1 1 .778 0v.422a.389.389 0 0 1-.389.389z" transform="translate(-21.587 -4.023)"/>
            <path id="Path_5413" data-name="Path 5413" class="cls-2" d="M49.469 50.43h-28a.389.389 0 1 1 0-.778h28a.389.389 0 0 1 0 .778z" transform="translate(-11.351 -11.995)"/>
            <path id="Path_5414" data-name="Path 5414" class="cls-2" d="M49.469 57.264h-28a.389.389 0 1 1 0-.778h28a.389.389 0 0 1 0 .778z" transform="translate(-11.351 -13.511)"/>
            <path id="Path_5415" data-name="Path 5415" class="cls-2" d="M18.062 57.916a4.932 4.932 0 0 1-4.933-4.941V9.166A4.168 4.168 0 0 0 8.966 5a.389.389 0 0 1 0-.778h38.743a4.947 4.947 0 0 1 4.941 4.944V50.15a.389.389 0 0 1-.389.389H23v2.436a4.947 4.947 0 0 1-4.941 4.941zM11.626 5a4.942 4.942 0 0 1 2.282 4.163v43.812a4.159 4.159 0 1 0 8.318 0V50.15a.389.389 0 0 1 .389-.389h29.258V9.166A4.168 4.168 0 0 0 47.71 5z" transform="translate(-8.577 -1.916)"/>
            <path id="Path_5416" data-name="Path 5416" class="cls-2" d="M54.855 70.9h-34.2a.389.389 0 0 1 0-.778 4.168 4.168 0 0 0 4.163-4.163v-2.825a.389.389 0 0 1 .389-.389H59.4a.389.389 0 0 1 .389.389v2.825a4.943 4.943 0 0 1-4.934 4.941zm-31.54-.778h31.54a4.164 4.164 0 0 0 4.155-4.163v-2.436H25.6v2.436a4.941 4.941 0 0 1-2.281 4.163z" transform="translate(-11.171 -14.9)"/>
        </g>
        <g id="Group_5245" data-name="Group 5245">
            <path id="Path_5403" data-name="Path 5403" class="cls-5" d="M0 0h11.393v8.789H0z" transform="rotate(-45 35.16 -15.44)"/>
            <path id="Path_5404" data-name="Path 5404" class="cls-2" d="M32.594 29.976a.389.389 0 0 1-.275-.114L26.1 23.647a.389.389 0 0 1 0-.55l8.057-8.057a.389.389 0 0 1 .55 0l6.215 6.215a.389.389 0 0 1 0 .55l-8.056 8.056a.389.389 0 0 1-.272.115zm-5.662-6.6 5.668 5.661 7.5-7.506-5.665-5.665z" transform="translate(-5.159 -3.033)"/>
            <path id="Path_5405" data-name="Path 5405" class="cls-6" d="m51.448 37.042-10.963-9.948-2.327 2.327 9.948 10.962a2.365 2.365 0 1 0 3.341-3.341z" transform="translate(-7.859 -5.732)"/>
            <rect id="Rectangle_1844" data-name="Rectangle 1844" class="cls-6" width="3.242" height="11.422" rx="1.058" transform="rotate(-45 27.88 -28.536)"/>
            <path id="Path_5406" data-name="Path 5406" class="cls-5" d="M52.221 38.793a2.344 2.344 0 0 1-.693 1.673 2.1 2.1 0 0 1-.475.366 2.212 2.212 0 0 0 .132-.778 2.362 2.362 0 0 0-.77-1.751l-10.963-9.945-1.183 1.183-.109-.117 2.327-2.334 10.963 9.952a2.362 2.362 0 0 1 .77 1.751z" transform="translate(-7.859 -5.731)"/>
            <path id="Path_5407" data-name="Path 5407" class="cls-5" d="m45.536 20.039-.809.809a.815.815 0 0 0-.226-.708l-6.918-6.91a.815.815 0 0 0-1.159 0l-.335.335a.844.844 0 0 1 .241-.475l1.128-1.128a.822.822 0 0 1 1.159 0l6.918 6.918a.822.822 0 0 1 .001 1.159z" transform="translate(-7.4 -2.322)"/>
            <rect id="Rectangle_1845" data-name="Rectangle 1845" class="cls-6" width="3.242" height="11.422" rx="1.058" transform="rotate(-45 35.194 -10.87)"/>
            <path id="Path_5408" data-name="Path 5408" class="cls-2" d="M30.414 34.992a1.208 1.208 0 0 1-.856-.355l-6.912-6.912a1.21 1.21 0 0 1 0-1.712l1.128-1.128a1.238 1.238 0 0 1 1.712 0L32.4 31.8a1.214 1.214 0 0 1 0 1.712l-1.13 1.125a1.208 1.208 0 0 1-.856.355zM24.632 25.3a.434.434 0 0 0-.307.129L23.2 26.561a.43.43 0 0 0 0 .614l6.912 6.912a.434.434 0 0 0 .614 0l1.128-1.128a.435.435 0 0 0 0-.614l-6.912-6.912a.434.434 0 0 0-.307-.129z" transform="translate(-4.339 -5.166)"/>
            <path id="Path_5417" data-name="Path 5417" class="cls-2" d="M49.752 41.437h-.069a2.73 2.73 0 0 1-1.973-.9l-9.95-10.965a.389.389 0 0 1 .013-.536l2.33-2.327a.389.389 0 0 1 .536-.013L51.6 36.643a2.755 2.755 0 0 1-1.846 4.794zM38.585 29.322l9.7 10.688a1.976 1.976 0 1 0 2.791-2.791l-10.687-9.7z" transform="translate(-7.748 -5.622)"/>
            <path id="Path_5418" data-name="Path 5418" class="cls-2" d="M43.714 21.694a1.2 1.2 0 0 1-.856-.355l-6.912-6.912a1.214 1.214 0 0 1 0-1.712l1.128-1.128a1.245 1.245 0 0 1 1.712 0L45.7 18.5a1.214 1.214 0 0 1 0 1.712l-1.13 1.127a1.2 1.2 0 0 1-.856.355zm-5.781-9.686a.43.43 0 0 0-.307.127L36.5 13.263a.43.43 0 0 0 0 .614l6.912 6.912a.5.5 0 0 0 .311.127.43.43 0 0 0 .307-.127l1.128-1.128a.44.44 0 0 0 0-.614l-6.919-6.912a.429.429 0 0 0-.306-.127z" transform="translate(-7.29 -2.216)"/>
        </g>
        <path id="Path_5419" data-name="Path 5419" class="cls-7" d="M55.065 69.751h-7.2a.467.467 0 1 1 0-.934h7.2a.467.467 0 1 1 0 .934z" transform="translate(-9.91 -14.99)"/>
        <path id="Path_5420" data-name="Path 5420" class="cls-7" d="M45.063 69.751H44.7a.467.467 0 0 1 0-.934h.365a.467.467 0 1 1 0 .934z" transform="translate(-9.206 -14.99)"/>
    </g>
</svg>
