<svg xmlns="http://www.w3.org/2000/svg" width="58.926" height="56.006">
    <defs>
        <style>
            .cls-3{fill:#323c6b}.cls-9{fill:#d5d6db}.cls-11{fill:#fff}.cls-12{fill:#84879c}
        </style>
    </defs>
    <g id="color_line" data-name="color line" transform="translate(.813 -2.801)">
        <path id="Path_5484" data-name="Path 5484" d="M44.634 14.057v42.529a3.259 3.259 0 0 1-3.257 3.26H5.911a3.259 3.259 0 0 1-3.257-3.257V14.057A3.253 3.253 0 0 1 5.911 10.8h7.8l-.86 3.816a1.764 1.764 0 0 0 1.719 2.15h18.142a1.764 1.764 0 0 0 1.719-2.15l-.85-3.816h7.8a3.253 3.253 0 0 1 3.257 3.257z" transform="translate(-.628 -1.448)" style="fill:#fcd462"/>
        <path id="Path_5486" data-name="Path 5486" d="M44.241 15.459v42.779h-36V15.459h16.171a1.8 1.8 0 0 0 .377 1.566 1.965 1.965 0 0 0 1.509.7h-.113a1.965 1.965 0 0 0 1.509-.7 1.8 1.8 0 0 0 .377-1.566z" transform="translate(-3.013 -3.373)" style="fill:#ebf0f3"/>
        <path id="Path_5487" data-name="Path 5487" class="cls-3" d="M44.189 58.6h-36a.44.44 0 0 1-.449-.431V15.39a.44.44 0 0 1 .449-.431h16.172a.456.456 0 0 1 .35.161.418.418 0 0 1 .088.363 1.382 1.382 0 0 0 .289 1.2 1.509 1.509 0 0 0 1.159.535h-.114a1.51 1.51 0 0 0 1.159-.536 1.383 1.383 0 0 0 .289-1.2.418.418 0 0 1 .088-.363.456.456 0 0 1 .35-.161h16.17a.44.44 0 0 1 .449.431v42.779a.44.44 0 0 1-.449.432zm-35.554-.862h35.106V15.821H28.516a2.34 2.34 0 0 1-2.383 2.263h.114a2.339 2.339 0 0 1-2.382-2.263H8.639z" transform="translate(-2.962 -3.304)"/>
        <path id="Path_5488" data-name="Path 5488" class="cls-3" d="M37.458 49.576H13.676a.409.409 0 1 1 0-.819h23.782a.409.409 0 1 1 0 .819z" transform="translate(-2.617 -1.826)"/>
        <path id="Path_5489" data-name="Path 5489" class="cls-3" d="M37.458 57.174H13.676a.409.409 0 1 1 0-.819h23.782a.409.409 0 1 1 0 .819z" transform="translate(-2.551 -5.828)"/>
        <path id="Path_5493" data-name="Path 5493" d="M34.96 15.407H16.825a1.764 1.764 0 0 1-1.719-2.15l.86-3.816.092-.421a1.755 1.755 0 0 1 1.719-1.381h5.041V6.532A3.188 3.188 0 0 1 25.2 3.383a3.084 3.084 0 0 1 3.766 2.992v1.266h5.044a1.773 1.773 0 0 1 1.729 1.382l.092.421.851 3.816a1.764 1.764 0 0 1-1.719 2.149z" transform="translate(-2.466 -.096)" style="fill:#64798a"/>
        <path id="Path_5494" data-name="Path 5494" class="cls-3" d="M34.869 15.726H16.734a2.174 2.174 0 0 1-2.12-2.649l.951-4.235a2.176 2.176 0 0 1 2.12-1.7h4.632v-.7a3.609 3.609 0 0 1 2.7-3.547 3.494 3.494 0 0 1 4.272 3.391v.855h4.631a2.171 2.171 0 0 1 2.129 1.7l.943 4.238a2.175 2.175 0 0 1-2.121 2.649zM17.686 7.96a1.336 1.336 0 0 0-1.319 1.059l-.955 4.238a1.355 1.355 0 0 0 1.321 1.651h18.136a1.355 1.355 0 0 0 1.321-1.652l-.942-4.239a1.357 1.357 0 0 0-1.331-1.057h-5.04a.409.409 0 0 1-.409-.409V6.286A2.675 2.675 0 0 0 25.2 3.693a2.784 2.784 0 0 0-2.062 2.749V7.55a.409.409 0 0 1-.409.409z" transform="translate(-2.786 -.006)"/>
        <path id="Path_5495" data-name="Path 5495" d="M62 22.746a3.45 3.45 0 0 0-3.45 3.45v29.612h6.9V26.2A3.45 3.45 0 0 0 62 22.746z" transform="translate(-10.757 -3.613)" style="fill:#89c5cd"/>
        <path id="Path_5496" data-name="Path 5496" d="M64.206 28.754h1.8V26.2a3.439 3.439 0 0 0-3.447-3.447 3.275 3.275 0 0 0-.9.123 3.439 3.439 0 0 1 2.547 3.324z" transform="translate(-11.32 -3.614)" style="fill:#606060"/>
        <path id="Path_5497" data-name="Path 5497" d="M64.77 30.667h1.8v26.572h-1.8z" transform="translate(-11.884 -5.048)" style="fill:#7cb1b5"/>
        <path id="Path_5498" data-name="Path 5498" d="M65.448 29.1v-2.9a3.45 3.45 0 1 0-6.9 0v2.9z" transform="translate(-10.757 -3.613)" style="fill:#e1e6e9"/>
        <path id="Path_5499" data-name="Path 5499" class="cls-9" d="M64.206 29.1v-2.9a3.439 3.439 0 0 0-2.546-3.324 3.275 3.275 0 0 1 .9-.123 3.439 3.439 0 0 1 3.448 3.447v2.9" transform="translate(-11.32 -3.614)"/>
        <path id="Path_5500" data-name="Path 5500" class="cls-9" d="M65.448 63.125h-6.9l3.45 6.2z" transform="translate(-10.757 -10.93)"/>
        <g id="Group_5046" data-name="Group 5046" transform="translate(-.813 6.486)">
            <path id="Path_5501" data-name="Path 5501" class="cls-3" d="M61.908 69.647a.409.409 0 0 1-.358-.21l-3.45-6.2a.409.409 0 0 1 .358-.608h6.9a.409.409 0 0 1 .358.608l-3.449 6.2a.409.409 0 0 1-.359.213zm-2.753-6.2 2.753 4.949 2.753-4.949z" transform="translate(-9.853 -17.326)"/>
            <path id="Path_5502" data-name="Path 5502" class="cls-3" d="M69.9 39.681a.409.409 0 0 1-.409-.409v-6.92a1.535 1.535 0 0 0-1.534-1.534h-1.073a.409.409 0 1 1 0-.819h1.069a2.356 2.356 0 0 1 2.352 2.353v6.919a.409.409 0 0 1-.405.41z" transform="translate(-11.38 -11.413)"/>
            <path id="Path_5503" data-name="Path 5503" class="cls-3" d="M-.4 13.3h-.041a.409.409 0 0 1-.37-.445A6.093 6.093 0 0 1 5.283 7.3h.711a.409.409 0 1 1 0 .819h-.711A5.342 5.342 0 0 0 0 12.926a.409.409 0 0 1-.4.374z" transform="translate(.813 -7.3)"/>
            <path id="Path_5504" data-name="Path 5504" class="cls-3" d="M10.194 8.119h-.41a.409.409 0 0 1 0-.819h.409a.409.409 0 0 1 0 .819z" transform="translate(-1.033 -7.3)"/>
            <path id="Path_5505" data-name="Path 5505" class="cls-3" d="M63.837 20.17a.39.39 0 0 1-.075-.007 6.408 6.408 0 0 0-.573-.074.409.409 0 0 1-.374-.442.418.418 0 0 1 .441-.374q.332.027.655.082a.409.409 0 0 1-.073.812z" transform="translate(-10.716 -9.47)"/>
            <path id="Path_5506" data-name="Path 5506" class="cls-3" d="M69.223 26.944a.409.409 0 0 1-.409-.409v-.8a5.513 5.513 0 0 0-2.791-4.778.409.409 0 0 1 .4-.712 6.333 6.333 0 0 1 3.206 5.491v.8a.409.409 0 0 1-.406.408z" transform="translate(-11.262 -9.637)"/>
            <path id="Path_5507" data-name="Path 5507" class="cls-3" d="M65.358 56.127h-6.9a.409.409 0 0 1-.409-.409V26.1a3.859 3.859 0 1 1 7.718 0v29.617a.409.409 0 0 1-.409.41zm-6.49-.819h6.08V26.1a3.04 3.04 0 0 0-6.08 0z" transform="translate(-9.853 -10.008)"/>
        </g>
        <path id="Path_5508" data-name="Path 5508" d="M65.448 29.1v-2.9a3.45 3.45 0 1 0-6.9 0v2.9z" transform="translate(-10.757 -3.613)" style="fill:none"/>
        <path id="Path_5509" data-name="Path 5509" class="cls-3" d="M65.358 30.819h-6.9a.409.409 0 0 1 0-.819h6.9a.409.409 0 0 1 0 .819z" transform="translate(-10.666 -4.928)"/>
        <path id="Path_5510" data-name="Path 5510" class="cls-3" d="M41.286 60.164H5.82A3.671 3.671 0 0 1 2.153 56.5V13.966A3.671 3.671 0 0 1 5.82 10.3h7.8a.409.409 0 0 1 .4.5l-.86 3.816a1.355 1.355 0 0 0 1.321 1.651H32.62a1.355 1.355 0 0 0 1.321-1.652L33.09 10.8a.409.409 0 0 1 .4-.5h7.8a3.671 3.671 0 0 1 3.667 3.667V56.5a3.671 3.671 0 0 1-3.667 3.669zM5.82 11.119a2.851 2.851 0 0 0-2.849 2.848V56.5a2.852 2.852 0 0 0 2.849 2.85h35.466a2.852 2.852 0 0 0 2.848-2.85V13.966a2.851 2.851 0 0 0-2.849-2.847H34l.737 3.317a2.175 2.175 0 0 1-2.121 2.649h-18.13a2.174 2.174 0 0 1-2.12-2.649l.748-3.317z" transform="translate(-.537 -1.358)"/>
        <path id="Path_5511" data-name="Path 5511" class="cls-11" d="M61.05 51.488a.425.425 0 0 1-.425-.425v-5.982a.425.425 0 1 1 .85 0v5.982a.425.425 0 0 1-.425.425z" transform="translate(-11.133 -7.583)"/>
        <path id="Path_5512" data-name="Path 5512" class="cls-11" d="M61.05 43.255a.425.425 0 0 1-.425-.425v-.15a.425.425 0 1 1 .85 0v.15a.425.425 0 0 1-.425.425z" transform="translate(-11.133 -7.148)"/>
        <g id="color_line-2" data-name="color line" transform="translate(9.186 18.5)">
            <path id="Path_5519" data-name="Path 5519" class="cls-3" d="M12.672 36.575H3.408a.2.2 0 0 1-.185-.277l3.969-9.531a.2.2 0 1 1 .37.154l-3.854 9.253h8.664L8.518 26.92a.2.2 0 1 1 .37-.154l3.969 9.534a.2.2 0 0 1-.185.277z" transform="translate(-3.208 -18.818)"/>
            <path id="Path_5520" data-name="Path 5520" class="cls-12" d="M8.341 55.523a4.558 4.558 0 0 0 4.633-4.364v-.209H3.708v.21a4.558 4.558 0 0 0 4.633 4.363z" transform="translate(-3.508 -33.395)"/>
            <path id="Path_5521" data-name="Path 5521" class="cls-3" d="M57.528 36.575h-9.264a.2.2 0 0 1-.185-.277l3.969-9.531a.2.2 0 1 1 .37.154l-3.854 9.254h8.664l-3.853-9.255a.2.2 0 1 1 .37-.154l3.968 9.534a.2.2 0 0 1-.185.277z" transform="translate(-30.107 -18.818)"/>
            <path id="Path_5522" data-name="Path 5522" class="cls-12" d="M53.194 55.523a4.558 4.558 0 0 0 4.633-4.364v-.209h-9.266v.21a4.557 4.557 0 0 0 4.633 4.363z" transform="translate(-30.405 -33.395)"/>
            <path id="Path_5525" data-name="Path 5525" class="cls-12" d="M37.178 17.3v17.8h-2.13V17.3" transform="translate(-22.301 -13.218)"/>
            <path id="Path_5526" data-name="Path 5526" class="cls-3" d="M36.878 35h-2.13a.2.2 0 0 1-.2-.2V17a.2.2 0 1 1 .4 0v17.6h1.729V17a.2.2 0 1 1 .4 0v17.8a.2.2 0 0 1-.199.2z" transform="translate(-22.002 -12.916)"/>
            <path id="Path_5527" data-name="Path 5527" class="cls-12" d="M34.767 64.9v.188H22.952V64.9a3.329 3.329 0 0 1 3.5-3.133h4.818a3.329 3.329 0 0 1 3.497 3.133z" transform="translate(-15.048 -39.88)"/>
            <path id="Path_5528" data-name="Path 5528" class="cls-3" d="M34.467 64.985H22.652a.2.2 0 0 1-.2-.2V64.6a3.533 3.533 0 0 1 3.7-3.333h4.823a3.532 3.532 0 0 1 3.7 3.333v.188a.2.2 0 0 1-.208.197zm-11.614-.4h11.414a3.135 3.135 0 0 0-3.3-2.92h-4.819a3.135 3.135 0 0 0-3.296 2.92z" transform="translate(-14.748 -39.58)"/>
            <path id="Path_5529" data-name="Path 5529" class="cls-12" d="M8.188 21.725a1.441 1.441 0 0 0 0 1.782H6.226a.891.891 0 1 1 0-1.782z" transform="translate(-4.483 -15.869)"/>
            <path id="Path_5530" data-name="Path 5530" class="cls-3" d="M7.888 23.409H5.926a1.091 1.091 0 1 1 0-2.182h1.962a.2.2 0 0 1 .157.325 1.217 1.217 0 0 0-.265.764 1.241 1.241 0 0 0 .265.769.2.2 0 0 1-.157.325zm-1.962-1.782a.691.691 0 0 0 0 1.382h1.6a1.651 1.651 0 0 1-.153-.693 1.623 1.623 0 0 1 .151-.689z" transform="translate(-4.184 -15.57)"/>
            <path id="Path_5531" data-name="Path 5531" class="cls-12" d="M40.364 21.726h6.787a1.424 1.424 0 0 0 0 1.782h-6.787z" transform="translate(-25.489 -15.87)"/>
            <path id="Path_5532" data-name="Path 5532" class="cls-3" d="M46.851 23.409h-6.787a.2.2 0 0 1-.2-.2v-1.782a.2.2 0 0 1 .2-.2h6.787a.2.2 0 0 1 .156.326 1.2 1.2 0 0 0-.269.761 1.221 1.221 0 0 0 .269.767.2.2 0 0 1-.156.326zm-6.587-.4h6.228a1.636 1.636 0 0 1-.154-.693 1.6 1.6 0 0 1 .153-.689h-6.227z" transform="translate(-25.189 -15.571)"/>
            <path id="Path_5533" data-name="Path 5533" class="cls-12" d="M24.886 23.509H18.1a1.424 1.424 0 0 0 0-1.782h6.786z" transform="translate(-12.138 -15.871)"/>
            <path id="Path_5534" data-name="Path 5534" class="cls-3" d="M24.585 23.412H17.8a.2.2 0 0 1-.156-.326 1.221 1.221 0 0 0 .269-.767 1.2 1.2 0 0 0-.269-.761.2.2 0 0 1 .156-.326h6.786a.2.2 0 0 1 .2.2v1.782a.2.2 0 0 1-.201.198zm-6.428-.4h6.228V21.63H18.16a1.6 1.6 0 0 1 .153.689 1.636 1.636 0 0 1-.155.693z" transform="translate(-11.838 -15.573)"/>
            <path id="Path_5535" data-name="Path 5535" class="cls-12" d="M65.509 22.618a.891.891 0 0 1-.891.891h-1.665a1.441 1.441 0 0 0 0-1.782h1.665a.891.891 0 0 1 .891.891z" transform="translate(-39.035 -15.871)"/>
            <path id="Path_5536" data-name="Path 5536" class="cls-3" d="M64.317 23.409h-1.664a.2.2 0 0 1-.157-.325 1.241 1.241 0 0 0 .265-.769 1.217 1.217 0 0 0-.265-.764.2.2 0 0 1 .157-.325h1.665a1.091 1.091 0 1 1 0 2.182zm-1.309-.4h1.309a.691.691 0 0 0 0-1.382h-1.306a1.622 1.622 0 0 1 .151.689 1.651 1.651 0 0 1-.152.693z" transform="translate(-38.735 -15.57)"/>
            <path id="Path_5537" data-name="Path 5537" class="cls-12" d="M14.563 21.794a1.444 1.444 0 1 1-.313-.889 1.4 1.4 0 0 1 .313.889z" transform="translate(-8.289 -15.049)"/>
            <path id="Path_5538" data-name="Path 5538" class="cls-3" d="M12.827 23.135a1.638 1.638 0 0 1-1.637-1.641 1.613 1.613 0 0 1 .352-1.013 1.635 1.635 0 0 1 2.571 0 1.592 1.592 0 0 1 .355 1.012 1.647 1.647 0 0 1-1.641 1.641zm0-2.878a1.236 1.236 0 0 0-.971.472 1.216 1.216 0 0 0-.265.764 1.239 1.239 0 1 0 2.477 0 1.2 1.2 0 0 0-.269-.761 1.223 1.223 0 0 0-.972-.476z" transform="translate(-7.994 -14.749)"/>
            <path id="Path_5539" data-name="Path 5539" class="cls-12" d="M59.413 21.795a1.439 1.439 0 0 1-2.878 0 1.4 1.4 0 0 1 .313-.889 1.436 1.436 0 0 1 2.564.889z" transform="translate(-35.187 -15.05)"/>
            <path id="Path_5540" data-name="Path 5540" class="cls-3" d="M57.677 23.136a1.647 1.647 0 0 1-1.641-1.641 1.6 1.6 0 0 1 .358-1.015 1.638 1.638 0 0 1 2.569 2.032 1.618 1.618 0 0 1-1.286.624zm0-2.878a1.221 1.221 0 0 0-.97.471 1.2 1.2 0 0 0-.271.765 1.239 1.239 0 1 0 1.241-1.236z" transform="translate(-34.887 -14.75)"/>
            <circle id="Ellipse_398" data-name="Ellipse 398" class="cls-12" cx="2.05" cy="2.05" r="2.05" transform="translate(11.761 .2)"/>
            <g id="Group_5050" data-name="Group 5050">
                <path id="Path_5541" data-name="Path 5541" class="cls-3" d="M34.336 11.6a2.251 2.251 0 1 1 2.251-2.251 2.251 2.251 0 0 1-2.251 2.251zm0-4.1a1.85 1.85 0 1 0 1.85 1.85 1.85 1.85 0 0 0-1.85-1.85z" transform="translate(-20.525 -7.098)"/>
                <path id="Path_5546" data-name="Path 5546" class="cls-3" d="M14.978 36.816a.2.2 0 0 1-.2-.2v-9.37a.2.2 0 1 1 .4 0v9.37a.2.2 0 0 1-.2.2z" transform="translate(-10.146 -19.06)"/>
                <path id="Path_5547" data-name="Path 5547" class="cls-3" d="M59.836 36.816a.2.2 0 0 1-.2-.2v-9.37a.2.2 0 0 1 .4 0v9.37a.2.2 0 0 1-.2.2z" transform="translate(-37.046 -19.06)"/>
                <path id="Path_5548" data-name="Path 5548" class="cls-3" d="M8.041 55.423a4.767 4.767 0 0 1-4.833-4.563v-.21a.2.2 0 0 1 .2-.2h9.266a.2.2 0 0 1 .2.2v.21a4.767 4.767 0 0 1-4.834 4.563zM3.608 50.85v.01a4.363 4.363 0 0 0 4.433 4.163 4.362 4.362 0 0 0 4.433-4.163v-.01z" transform="translate(-3.208 -33.095)"/>
                <path id="Path_5551" data-name="Path 5551" class="cls-3" d="M52.895 55.423a4.767 4.767 0 0 1-4.834-4.564v-.209a.2.2 0 0 1 .2-.2h9.266a.2.2 0 0 1 .2.2v.21a4.767 4.767 0 0 1-4.832 4.563zm-4.434-4.573v.01a4.442 4.442 0 0 0 8.866 0v-.01z" transform="translate(-30.105 -33.095)"/>
            </g>
        </g>
    </g>
</svg>
