<svg xmlns="http://www.w3.org/2000/svg" width="51.317" height="56">
    <defs>
        <style>
            .cls-1{fill:#84879c}.cls-4{fill:#323c6b}.cls-5{fill:#ebf0f3}.cls-6{fill:#89c5cd}.cls-7{fill:#f7be56}.cls-10{fill:#fff}
        </style>
    </defs>
    <g id="color_line" data-name="color line" transform="translate(-5.072 -3.427)">
        <path id="Path_5552" data-name="Path 5552" class="cls-1" d="M39.637 47.06c8.4.267 16.691 3.235 16.691 16.656v3.038H7.045v-3.039c0-13.421 8.286-16.388 16.691-16.656" transform="translate(-.35 -7.739)"/>
        <g id="Group_5070" data-name="Group 5070" transform="translate(39.837 39.343)" style="opacity:.5">
            <path id="Path_5553" data-name="Path 5553" d="M47.333 47.088v.926c7.4.832 14.016 4.477 14.016 16.466v2.279h2.125V63.72c0-13.127-7.928-16.252-16.141-16.632z" transform="translate(-47.333 -47.088)" style="fill:#3a556a"/>
        </g>
        <path id="Path_5554" data-name="Path 5554" class="cls-1" d="M34.664 66.754 26.7 47.064a15.306 15.306 0 0 0-2.924.371l8.065 19.319z" transform="translate(-3.318 -7.74)"/>
        <path id="Path_5555" data-name="Path 5555" class="cls-4" d="M34.576 67.077h-2.822a.411.411 0 0 1-.379-.253l-8.062-19.319a.411.411 0 0 1 .292-.56 15.63 15.63 0 0 1 3-.38.417.417 0 0 1 .39.257l7.963 19.69a.411.411 0 0 1-.381.566zm-2.55-.823h1.937L26.34 47.4a14.5 14.5 0 0 0-2.078.253z" transform="translate(-3.23 -7.652)"/>
        <path id="Path_5556" data-name="Path 5556" class="cls-1" d="m36.989 66.754 7.963-19.69a15.305 15.305 0 0 1 2.924.371l-8.065 19.319z" transform="translate(-5.661 -7.74)"/>
        <path id="Path_5557" data-name="Path 5557" class="cls-4" d="M39.722 67.077H36.9a.411.411 0 0 1-.381-.565l7.963-19.69a.4.4 0 0 1 .39-.257 15.63 15.63 0 0 1 3 .38.411.411 0 0 1 .292.56l-8.059 19.319a.411.411 0 0 1-.383.253zm-2.211-.823h1.937l7.766-18.6a14.5 14.5 0 0 0-2.079-.253z" transform="translate(-5.573 -7.652)"/>
        <path id="Path_5558" data-name="Path 5558" class="cls-5" d="m43.239 47.064-7.963 19.69h.018l-7.963-19.69z" transform="translate(-3.948 -7.74)"/>
        <g id="Group_5071" data-name="Group 5071" transform="translate(5.072 3.795)">
            <path id="Path_5559" data-name="Path 5559" class="cls-4" d="M35.205 67.077a.427.427 0 0 1-.35-.182.45.45 0 0 1-.07-.171l-7.923-19.595a.411.411 0 0 1 .381-.565H43.15a.411.411 0 0 1 .381.566l-7.917 19.578a.411.411 0 0 1-.411.37zm-7.353-19.69 7.348 18.16 7.34-18.16z" transform="translate(-8.932 -11.447)"/>
            <path id="Path_5560" data-name="Path 5560" class="cls-4" d="M48.049 5.078A.411.411 0 0 1 47.8 5q-.247-.188-.494-.364a.411.411 0 1 1 .475-.67q.264.187.52.384a.411.411 0 0 1-.252.74z" transform="translate(-12.53 -3.875)"/>
            <path id="Path_5561" data-name="Path 5561" class="cls-4" d="M5.483 60.326a.392.392 0 0 1-.057 0 .411.411 0 0 1-.35-.464l.034-.262c.02-.17.04-.34.071-.508a.411.411 0 1 1 .809.146c-.028.152-.045.305-.064.458l-.035.282a.411.411 0 0 1-.407.35z" transform="translate(-5.072 -13.608)"/>
            <path id="Path_5562" data-name="Path 5562" class="cls-4" d="M6.011 55.726a.411.411 0 0 1-.395-.526 12.655 12.655 0 0 1 6.4-7.56.411.411 0 1 1 .373.733 11.826 11.826 0 0 0-5.983 7.057.411.411 0 0 1-.395.3z" transform="translate(-5.166 -11.63)"/>
        </g>
        <path id="Path_5563" data-name="Path 5563" class="cls-5" d="m27.336 46.893 1.1-1.032 6.849 3.507-5.465 3.646z" transform="translate(-3.949 -7.527)"/>
        <path id="Path_5564" data-name="Path 5564" class="cls-4" d="M29.732 53.337a.411.411 0 0 1-.381-.257l-2.485-6.124a.411.411 0 0 1 .1-.455l1.1-1.026a.411.411 0 0 1 .469-.066l6.849 3.508a.411.411 0 0 1 .04.708l-5.464 3.647a.411.411 0 0 1-.228.065zm-2-6.426 2.19 5.392 4.462-2.977-5.968-3.056z" transform="translate(-3.86 -7.439)"/>
        <path id="Path_5565" data-name="Path 5565" class="cls-5" d="m44.95 46.893-1.1-1.032L37 49.368l5.465 3.646z" transform="translate(-5.663 -7.527)"/>
        <path id="Path_5566" data-name="Path 5566" class="cls-4" d="M42.376 53.336a.411.411 0 0 1-.228-.069l-5.465-3.646a.411.411 0 0 1 .04-.708l6.851-3.507a.411.411 0 0 1 .469.066l1.1 1.032a.411.411 0 0 1 .1.455l-2.485 6.121a.411.411 0 0 1-.381.257zm-4.654-4.01 4.462 2.974 2.189-5.392-.684-.641z" transform="translate(-5.575 -7.438)"/>
        <path id="Path_5567" data-name="Path 5567" class="cls-6" d="m38.937 51.759-1.1 2.011h-2.7l-1.02-2.062 2.357-1.584z" transform="translate(-5.152 -8.283)"/>
        <path id="Path_5568" data-name="Path 5568" class="cls-4" d="M37.752 54.093h-2.7a.411.411 0 0 1-.369-.229L33.659 51.8a.411.411 0 0 1 .139-.524l2.355-1.584a.411.411 0 0 1 .457 0l2.468 1.634a.411.411 0 0 1 .134.54l-1.1 2.015a.411.411 0 0 1-.361.211zM35.3 53.27h2.205l.8-1.466-1.92-1.274-1.83 1.23z" transform="translate(-5.063 -8.194)"/>
        <path id="Path_5569" data-name="Path 5569" class="cls-6" d="m38.912 62.063-2.448 6.016-2.4-5.973 1.062-7.55h2.7z" transform="translate(-5.143 -9.069)"/>
        <path id="Path_5570" data-name="Path 5570" class="cls-4" d="M36.374 68.406a.411.411 0 0 1-.381-.257l-2.4-5.978a.411.411 0 0 1-.026-.211l1.062-7.55a.411.411 0 0 1 .411-.354h2.7a.411.411 0 0 1 .411.353l1.08 7.506a.411.411 0 0 1-.026.214l-2.448 6.016a.411.411 0 0 1-.383.261zM34.4 61.97l1.974 4.93 2.023-4.97-1.013-7.043h-1.99z" transform="translate(-5.054 -8.98)"/>
        <path id="Path_5571" data-name="Path 5571" class="cls-7" d="m29.191 42.65-.514 2.629 6.849 3.507 6.849-3.507-.531-2.7" transform="translate(-4.186 -6.945)"/>
        <path id="Path_5572" data-name="Path 5572" class="cls-4" d="M35.434 49.11a.411.411 0 0 1-.188-.045L28.4 45.557a.411.411 0 0 1-.219-.429.455.455 0 0 1 .013-.058l.507-2.587a.411.411 0 1 1 .807.158l-.456 2.326 6.384 3.269 6.384-3.269-.471-2.395a.411.411 0 1 1 .807-.159l.525 2.665a.384.384 0 0 1 .01.044.411.411 0 0 1-.216.434l-6.849 3.508a.411.411 0 0 1-.188.046z" transform="translate(-4.098 -6.856)"/>
        <path id="Path_5573" data-name="Path 5573" class="cls-7" d="M23.126 33.023c-1.887 0-3.334-2.047-3.334-3.84a3.139 3.139 0 0 1 1.913-2.961" transform="translate(-2.611 -4.043)"/>
        <path id="Path_5574" data-name="Path 5574" class="cls-4" d="M23.037 33.346c-2.144 0-3.745-2.245-3.745-4.251a3.56 3.56 0 0 1 2.19-3.351.411.411 0 0 1 .271.777 2.715 2.715 0 0 0-1.639 2.579c0 1.585 1.277 3.429 2.923 3.429a.411.411 0 1 1 0 .823z" transform="translate(-2.522 -3.955)"/>
        <path id="Path_5575" data-name="Path 5575" class="cls-7" d="M50.155 33.023c1.887 0 3.334-2.047 3.334-3.84a3.139 3.139 0 0 0-1.913-2.961" transform="translate(-7.997 -4.043)"/>
        <path id="Path_5576" data-name="Path 5576" class="cls-4" d="M50.066 33.345a.411.411 0 1 1 0-.823c1.645 0 2.923-1.843 2.923-3.429a2.715 2.715 0 0 0-1.638-2.575.411.411 0 1 1 .271-.777 3.56 3.56 0 0 1 2.19 3.351c0 2.006-1.6 4.251-3.745 4.251z" transform="translate(-7.908 -3.954)"/>
        <path id="Path_5577" data-name="Path 5577" d="M45.975 25.927v1.76c0 6.112-4.615 12.142-10.727 12.512-6.639.4-12.158-5.512-12.158-12.068v-2.212a.7.7 0 0 0 .444-.5l.65-3.192.189-.683c6.367-.732 13.039-3.554 15.49-7.486a7.4 7.4 0 0 0 4.87 6.8 12.292 12.292 0 0 1 .765 4.557.727.727 0 0 0 .477.51z" transform="translate(-3.196 -1.886)" style="fill:#fcd462"/>
        <path id="Path_5578" data-name="Path 5578" class="cls-7" d="M47.789 26.6a12.292 12.292 0 0 0-.765-4.557L47 22.031a8.937 8.937 0 0 1-2.172-1.306c.009 0 .009 0 .4 1.316a25.637 25.637 0 0 1 1.242 6.828c0 6.022-4.484 11.954-10.462 12.481a10.464 10.464 0 0 0 1.533.031c6.112-.37 10.727-6.4 10.727-12.512v-1.76a.727.727 0 0 1-.477-.508z" transform="translate(-5.487 -3.068)"/>
        <path id="Path_5579" data-name="Path 5579" class="cls-5" d="m47.066 20.7-.543 2.986a.74.74 0 0 1-.7.485.765.765 0 0 1-.239-.041.727.727 0 0 1-.477-.51 12.292 12.292 0 0 0-.765-4.557 7.4 7.4 0 0 1-4.87-6.8c-2.451 3.932-9.123 6.754-15.49 7.486l-.189.683-.65 3.192a.7.7 0 0 1-.444.5.713.713 0 0 1-.263.049.749.749 0 0 1-.7-.485 20.628 20.628 0 0 1-.642-3.167 15.121 15.121 0 0 1 1.111-8.646 13.278 13.278 0 0 1 11.938-7.948 13.2 13.2 0 0 1 11.533 7.135 14.737 14.737 0 0 1 1.39 9.639z" transform="translate(-2.806 -.089)"/>
        <path id="Path_5580" data-name="Path 5580" d="M46.347 11.062a13.2 13.2 0 0 0-11.534-7.135 12.936 12.936 0 0 0-10.14 5.043 12.751 12.751 0 0 1 8.769-3.549 13.2 13.2 0 0 1 11.533 7.132 14.737 14.737 0 0 1 1.39 9.641l-.329 1.8a.7.7 0 0 0 .217.137.765.765 0 0 0 .239.041.74.74 0 0 0 .7-.485l.543-2.986a14.737 14.737 0 0 0-1.388-9.638z" transform="translate(-3.477 -.089)" style="fill:#e1e6e9"/>
        <path id="Path_5581" data-name="Path 5581" class="cls-4" d="M53.79 13.167a.411.411 0 0 1-.393-.291A16.608 16.608 0 0 0 49.5 6.5a.411.411 0 1 1 .576-.584 17.218 17.218 0 0 1 4.1 6.722.411.411 0 0 1-.273.514.406.406 0 0 1-.113.015z" transform="translate(-7.855 -.416)"/>
        <path id="Path_5582" data-name="Path 5582" class="cls-4" d="M45.735 24.494a1.17 1.17 0 0 1-.368-.062 1.134 1.134 0 0 1-.745-.791.411.411 0 0 1-.014-.113 11.837 11.837 0 0 0-.683-4.247 7.968 7.968 0 0 1-4.853-5.975c-3.034 3.754-9.435 6.052-14.855 6.727l-.115.417-.643 3.164a1.142 1.142 0 0 1-1.111.88 1.166 1.166 0 0 1-1.081-.74A18.733 18.733 0 0 1 20.6 20.5a15.49 15.49 0 0 1 1.144-8.884 13.616 13.616 0 0 1 12.31-8.189 13.674 13.674 0 0 1 11.894 7.347 15.192 15.192 0 0 1 1.432 9.911l-.543 2.986a1.161 1.161 0 0 1-1.1.823zm-.3-1.025a.313.313 0 0 0 .191.181.306.306 0 0 0 .426-.2l.524-2.916a14.367 14.367 0 0 0-1.347-9.372A12.853 12.853 0 0 0 34.054 4.25a12.8 12.8 0 0 0-11.563 7.71 14.668 14.668 0 0 0-1.078 8.41 22.77 22.77 0 0 0 .616 3.074.348.348 0 0 0 .428.209.3.3 0 0 0 .195-.2l.65-3.19.2-.711a.411.411 0 0 1 .35-.3c6.746-.776 13-3.776 15.188-7.3a.411.411 0 0 1 .76.238c-.008.177-.141 4.36 4.621 6.406a.411.411 0 0 1 .223.234 12.775 12.775 0 0 1 .791 4.637z" transform="translate(-2.717)"/>
        <path id="Path_5583" data-name="Path 5583" class="cls-4" d="M34.518 40.542a11.443 11.443 0 0 1-7.866-3.22 12.819 12.819 0 0 1-4.062-9.279V25.83a.411.411 0 0 1 .264-.384.3.3 0 0 0 .188-.2l.65-3.19.2-.711a.411.411 0 0 1 .35-.3c6.745-.776 13-3.776 15.188-7.3a.411.411 0 0 1 .76.238c-.008.177-.141 4.36 4.621 6.406a.411.411 0 0 1 .223.234 12.776 12.776 0 0 1 .792 4.64.313.313 0 0 0 .191.181.411.411 0 0 1 .285.392V27.6c0 6.639-5.09 12.557-11.114 12.923-.223.013-.446.02-.667.02zM23.413 26.073v1.974a11.993 11.993 0 0 0 3.8 8.679 10.568 10.568 0 0 0 7.922 2.974c5.605-.34 10.34-5.882 10.34-12.1v-1.509a1.145 1.145 0 0 1-.463-.658.411.411 0 0 1-.012-.113 11.837 11.837 0 0 0-.683-4.242 7.968 7.968 0 0 1-4.855-5.978c-3.034 3.754-9.435 6.052-14.855 6.727l-.116.417-.643 3.164a1.083 1.083 0 0 1-.435.662z" transform="translate(-3.107 -1.797)"/>
        <path id="Path_5584" data-name="Path 5584" class="cls-4" d="M56.24 67.076H6.956a.411.411 0 0 1-.411-.411v-3.038c0-11.119 5.59-16.7 17.088-17.066a.395.395 0 0 1 .424.4.411.411 0 0 1-.4.424c-11.115.354-16.292 5.512-16.292 16.244v2.627h48.46v-2.629c0-10.729-5.177-15.891-16.292-16.244a.411.411 0 0 1-.4-.424.389.389 0 0 1 .424-.4c11.5.361 17.088 5.948 17.088 17.066v3.038a.411.411 0 0 1-.405.413z" transform="translate(-.261 -7.651)"/>
        <path id="Path_5585" data-name="Path 5585" class="cls-10" d="m48.6 58.142-2.454 5.784a.494.494 0 0 1-.9-.387l2.454-5.784a.494.494 0 0 1 .9.387z" transform="translate(-7.121 -9.589)"/>
        <path id="Path_5586" data-name="Path 5586" class="cls-10" d="m50.236 55.433-.182.425a.494.494 0 0 1-.9-.387l.182-.425a.494.494 0 0 1 .9.387z" transform="translate(-7.814 -9.109)"/>
    </g>
</svg>
