<svg xmlns="http://www.w3.org/2000/svg" width="120" height="120">
    <defs>
        <style>
            .cls-3{fill:#323c6b}
        </style>
    </defs>
    <g id="Group_5264" data-name="Group 5264" transform="translate(-660 -1352)">
        <rect id="f193cbf424e3bcd79eaa183636f68d7a" width="120" height="120" rx="60" transform="translate(660 1352)" style="fill:#fdfaf5"/>
        <g id="euro" transform="translate(669.236 1361.004)">
            <g id="Group_5088" data-name="Group 5088" transform="translate(18.764 18.996)">
                <path id="Path_5668" data-name="Path 5668" d="M50.75 19.5a31.486 31.486 0 1 1-31.486 31.482A31.478 31.478 0 0 1 50.735 19.5zm23.757 31.482a23.762 23.762 0 1 0-23.768 23.757h.01a23.761 23.761 0 0 0 23.758-23.757z" transform="translate(-18.75 -18.982)" style="fill:#ffc84a"/>
                <path id="Path_5670" data-name="Path 5670" class="cls-3" d="M50.764 83a32 32 0 0 1-.014-64h.014a32 32 0 0 1 0 64zm-.014-62.975a30.978 30.978 0 1 0 .014 0zm.014 55.243a24.277 24.277 0 1 1-.006-48.554h.006A24.305 24.305 0 0 1 75.036 51a24.306 24.306 0 0 1-24.272 24.268zm-.006-47.525a23.246 23.246 0 1 0 .006 0z" transform="translate(-18.764 -18.996)"/>
            </g>
            <g id="Group_5089" data-name="Group 5089" transform="translate(26.482 26.714)">
                <circle id="Ellipse_400" data-name="Ellipse 400" cx="23.762" cy="23.762" r="23.762" transform="translate(.514 .514)" style="fill:#ebf0f3"/>
                <path id="Path_5671" data-name="Path 5671" class="cls-3" d="M50.542 75.051a24.277 24.277 0 1 1 24.277-24.277 24.3 24.3 0 0 1-24.277 24.277zm0-47.525A23.248 23.248 0 1 0 73.79 50.774a23.274 23.274 0 0 0-23.248-23.248z" transform="translate(-26.265 -26.497)"/>
            </g>
            <g id="Group_5090" data-name="Group 5090" transform="translate(36.754 37.544)">
                <path id="Path_5669" data-name="Path 5669" d="M55.558 41.061a1.441 1.441 0 0 0 1.04-2.689 12.991 12.991 0 0 0-16.761 7.522q-.177.468-.319.949h-1.324a1.445 1.445 0 1 0 0 2.89H39a11.918 11.918 0 0 0 .188 3.035h-.983a1.445 1.445 0 1 0 0 2.89h1.864a11.486 11.486 0 0 0 2.7 3.96 12.991 12.991 0 0 0 9.178 3.8 12.7 12.7 0 0 0 4.654-.867 1.441 1.441 0 1 0-1.04-2.689 10.1 10.1 0 0 1-10.753-2.3 9.312 9.312 0 0 1-1.5-1.922H54.76a1.445 1.445 0 0 0 0-2.89H42.13a9.388 9.388 0 0 1-.232-3.035h13.63a1.445 1.445 0 0 0 0-2.89H42.565a9.8 9.8 0 0 1 2.254-3.454 10.042 10.042 0 0 1 10.739-2.31z" transform="translate(-36.234 -37.008)" style="fill:#6e748b"/>
                <path id="Path_5672" data-name="Path 5672" class="cls-3" d="M52.009 63.948h-.043A13.419 13.419 0 0 1 42.427 60a11.922 11.922 0 0 1-2.679-3.81h-1.524a1.96 1.96 0 1 1 0-3.919h.376a12.464 12.464 0 0 1-.119-2.006h-.272a1.96 1.96 0 1 1 0-3.919h.945c.068-.208.141-.413.218-.617A13.52 13.52 0 0 1 56.8 37.906a1.956 1.956 0 1 1-1.409 3.65A9.53 9.53 0 0 0 45.2 43.749a9.221 9.221 0 0 0-1.839 2.577h12.183a1.96 1.96 0 0 1 0 3.919H42.4a8.815 8.815 0 0 0 .162 2.006h12.212a1.96 1.96 0 0 1 0 3.919H44.283a8.79 8.79 0 0 0 .906 1.04A9.6 9.6 0 0 0 55.4 59.4a1.955 1.955 0 1 1 1.41 3.647 13.132 13.132 0 0 1-4.801.901zM38.224 53.3a.931.931 0 1 0 0 1.861h2.209l.132.32a10.9 10.9 0 0 0 2.582 3.782 12.4 12.4 0 0 0 8.861 3.659 12.136 12.136 0 0 0 4.429-.832.927.927 0 0 0-.667-1.73 10.622 10.622 0 0 1-11.3-2.415 9.845 9.845 0 0 1-1.583-2.024l-.457-.776h12.344a.931.931 0 0 0 0-1.861H41.74l-.1-.393a9.859 9.859 0 0 1-.244-3.2l.041-.47h14.1a.931.931 0 0 0 0-1.861H41.831l.268-.7a10.232 10.232 0 0 1 2.373-3.635 10.554 10.554 0 0 1 11.285-2.427.933.933 0 0 0 1.2-.531.928.928 0 0 0-.531-1.2 12.488 12.488 0 0 0-16.094 7.225c-.114.3-.217.6-.307.911l-.109.369h-1.708a.931.931 0 1 0 0 1.861h1.359l-.036.548a11.361 11.361 0 0 0 .18 2.9l.117.612z" transform="translate(-36.248 -37.023)"/>
            </g>
        </g>
    </g>
</svg>
