<svg xmlns="http://www.w3.org/2000/svg" width="120" height="120">
    <defs>
        <style>
            .cls-2{fill:#fcd462}.cls-3{fill:#f7be56}.cls-4{fill:#323c6b}.cls-7{fill:#fff}
        </style>
    </defs>
    <g id="Group_5263" data-name="Group 5263" transform="translate(-245 -1352)">
        <rect id="f193cbf424e3bcd79eaa183636f68d7a" width="120" height="120" rx="60" transform="translate(245 1352)" style="fill:#fdfaf5"/>
        <g id="color_line" data-name="color line" transform="translate(270.6 1377.396)">
            <path id="Path_5628" data-name="Path 5628" class="cls-2" d="M66.328 54.619 40.918 33.78l-4.058 4.581L60.5 61.2a4.4 4.4 0 1 0 5.83-6.579z" transform="translate(-2.963 -2.681)"/>
            <path id="Path_5629" data-name="Path 5629" class="cls-2" d="M35.889 6.193 52.007 20.47a1.789 1.789 0 0 1 .2 2.506L49.969 25.5a1.78 1.78 0 0 1-2.513.1L31.341 11.329a1.773 1.773 0 0 1-.2-2.506l2.239-2.528a1.78 1.78 0 0 1 2.511-.1z" transform="translate(-2.435 -.268)"/>
            <path id="Path_5630" data-name="Path 5630" class="cls-3" d="M68.192 58.056a4.364 4.364 0 0 1-1.106 2.907 4.213 4.213 0 0 1-1.042.859 4.288 4.288 0 0 0 .4-1.828 4.393 4.393 0 0 0-1.644-3.437l-25.39-20.83 1.727-1.947 25.41 20.839a4.379 4.379 0 0 1 1.645 3.437z" transform="translate(-3.183 -2.681)"/>
            <path id="Path_5631" data-name="Path 5631" class="cls-3" d="m52.306 22.977-2.239 2.532a1.1 1.1 0 0 1-.11.1l.612-.695a1.784 1.784 0 0 0-.21-2.5L34.246 8.133a1.789 1.789 0 0 0-2.386-.018L33.478 6.3a1.783 1.783 0 0 1 2.514-.1l16.113 14.273a1.791 1.791 0 0 1 .2 2.5z" transform="translate(-2.533 -.268)"/>
            <path id="Path_5632" data-name="Path 5632" class="cls-2" d="m13.413 31.562 16.12 14.278a1.78 1.78 0 0 1 .2 2.506L27.5 50.874a1.78 1.78 0 0 1-2.513.1L8.866 36.7a1.773 1.773 0 0 1-.206-2.506l2.24-2.53a1.773 1.773 0 0 1 2.514-.1z" transform="translate(-.502 -2.45)"/>
            <path id="Path_5633" data-name="Path 5633" class="cls-4" d="M26.167 51.859a2.3 2.3 0 0 1-1.527-.584L8.52 37a2.238 2.238 0 0 1-.24-3.151l2.238-2.528a2.239 2.239 0 0 1 3.158-.142l16.118 14.276a2.238 2.238 0 0 1 .241 3.151L27.8 51.134a2.15 2.15 0 0 1-1.538.723zm-14.02-20.351a1.251 1.251 0 0 0-.945.418l-2.239 2.528a1.323 1.323 0 0 0 .163 1.862l16.118 14.276a1.353 1.353 0 0 0 .974.353 1.242 1.242 0 0 0 .893-.416L29.351 48a1.324 1.324 0 0 0-.163-1.862L13.07 31.862a1.392 1.392 0 0 0-.922-.354z" transform="translate(-.459 -2.407)"/>
            <path id="Path_5634" data-name="Path 5634" class="cls-3" d="M4.7 65.962h29.185a1.805 1.805 0 0 1 1.805 1.805v3.827H2.9v-3.826a1.805 1.805 0 0 1 1.805-1.805z" transform="translate(-.043 -5.448)"/>
            <path id="Path_5635" data-name="Path 5635" class="cls-4" d="M35.643 72.009H2.857a.457.457 0 0 1-.457-.457v-3.827a2.265 2.265 0 0 1 2.262-2.262h29.175a2.265 2.265 0 0 1 2.263 2.262v3.828a.457.457 0 0 1-.457.456zM3.312 71.1h31.874v-3.37a1.35 1.35 0 0 0-1.349-1.348H4.66a1.35 1.35 0 0 0-1.346 1.348z" transform="translate(0 -5.405)"/>
            <path id="Path_5636" data-name="Path 5636" d="M9.335 56.079h20.524a2.876 2.876 0 0 1 2.876 2.876v6.158H6.46v-6.158a2.876 2.876 0 0 1 2.875-2.876z" transform="translate(-.349 -4.599)" style="fill:#ebf0f3"/>
            <path id="Path_5637" data-name="Path 5637" d="M31.839 56.079h-2.361a2.876 2.876 0 0 1 2.876 2.876v6.158h2.361v-6.158a2.876 2.876 0 0 0-2.876-2.876z" transform="translate(-2.329 -4.599)" style="fill:#e1e6e9"/>
            <g id="Group_5085" data-name="Group 5085" transform="translate(27.817 2.604)">
                <path id="Path_5638" data-name="Path 5638" class="cls-4" d="M65.51 68.31a7.56 7.56 0 0 1-5.31-2.161l-.645-.623a.457.457 0 1 1 .634-.658l.647.625a6.66 6.66 0 0 0 7.191 1.4.457.457 0 1 1 .347.845 7.508 7.508 0 0 1-2.868.568z" transform="translate(-32.72 -7.947)"/>
                <path id="Path_5639" data-name="Path 5639" class="cls-4" d="M57.929 63.779a.457.457 0 0 1-.318-.129l-.3-.286a.459.459 0 0 1 .64-.657l.3.286a.457.457 0 0 1-.318.785z" transform="translate(-32.527 -7.761)"/>
                <path id="Path_5640" data-name="Path 5640" class="cls-4" d="M39.745 6.042a.457.457 0 0 1-.3-.115l-1.621-1.435a4.1 4.1 0 0 0-5.16-.133.457.457 0 0 1-.566-.717 5.037 5.037 0 0 1 6.331.167l1.619 1.435a.457.457 0 0 1-.3.8z" transform="translate(-30.356 -2.604)"/>
                <path id="Path_5641" data-name="Path 5641" class="cls-4" d="M42.761 8.338a.457.457 0 0 1-.3-.115l-.533-.473a.457.457 0 1 1 .606-.684l.533.473a.457.457 0 0 1-.3.8z" transform="translate(-31.201 -2.977)"/>
                <path id="Path_5642" data-name="Path 5642" class="cls-4" d="M63.522 62.863a4.806 4.806 0 0 1-3.386-1.381L36.5 38.647a.457.457 0 0 1-.025-.632l4.059-4.583a.457.457 0 0 1 .632-.05l25.4 20.839A4.856 4.856 0 0 1 63.7 62.86h-.181zM37.45 38.294l23.322 22.532A3.942 3.942 0 1 0 66 54.933L40.93 34.368z" transform="translate(-30.737 -5.242)"/>
                <path id="Path_5643" data-name="Path 5643" class="cls-4" d="M48.638 26.488a2.3 2.3 0 0 1-1.527-.584L30.992 11.627a2.3 2.3 0 0 1-.776-1.537 2.152 2.152 0 0 1 .533-1.614l2.238-2.528a2.238 2.238 0 0 1 3.158-.141l16.118 14.277a2.238 2.238 0 0 1 .241 3.151l-2.237 2.532a2.148 2.148 0 0 1-1.542.723zM34.62 6.138a1.253 1.253 0 0 0-.946.417l-2.238 2.527a1.243 1.243 0 0 0-.308.935 1.382 1.382 0 0 0 .471.926l16.118 14.276a1.371 1.371 0 0 0 .974.353 1.242 1.242 0 0 0 .893-.416l2.239-2.528a1.34 1.34 0 0 0-.164-1.861L35.542 6.492a1.394 1.394 0 0 0-.922-.354z" transform="translate(-30.208 -2.829)"/>
            </g>
            <path id="Path_5644" data-name="Path 5644" class="cls-3" d="M0 0h24.116v20.146H0z" transform="rotate(-48.485 39.539 -.136)"/>
            <path id="Path_5645" data-name="Path 5645" class="cls-4" d="M29.5 44.179a.457.457 0 0 1-.3-.114L14.119 30.706a.457.457 0 0 1-.039-.645l16-18.053a.457.457 0 0 1 .314-.153.447.447 0 0 1 .331.114L45.8 25.328a.457.457 0 0 1 .039.645l-16 18.053a.457.457 0 0 1-.314.153zM15.067 30.325l14.4 12.752 15.381-17.366-14.4-12.754z" transform="translate(-.995 -.796)"/>
            <path id="Path_5646" data-name="Path 5646" class="cls-4" d="M32.693 65.526H6.416a.457.457 0 0 1-.457-.457v-6.157a3.337 3.337 0 0 1 3.333-3.332h20.525a3.337 3.337 0 0 1 3.332 3.332v6.158a.457.457 0 0 1-.456.456zm-25.82-.914h25.363v-5.7a2.421 2.421 0 0 0-2.418-2.418H9.292a2.422 2.422 0 0 0-2.419 2.418z" transform="translate(-.306 -4.556)"/>
            <path id="Path_5647" data-name="Path 5647" class="cls-7" d="M20.456 30.9a.548.548 0 0 1-.41-.914l5.538-6.236a.55.55 0 0 1 .823.731l-5.538 6.236a.548.548 0 0 1-.413.183z" transform="translate(-1.505 -1.803)"/>
            <path id="Path_5648" data-name="Path 5648" class="cls-7" d="M28.392 22.461a.548.548 0 0 1-.415-.907l.465-.538a.548.548 0 0 1 .83.717l-.465.538a.548.548 0 0 1-.415.19z" transform="translate(-2.188 -1.568)"/>
        </g>
    </g>
</svg>
