<svg xmlns="http://www.w3.org/2000/svg" width="56.44" height="64.126">
    <defs>
        <style>
            .cls-2{fill:#323c6b}.cls-6{fill:#fa9900}.cls-8{fill:#dd2725}.cls-9{fill:#586179}
        </style>
    </defs>
    <g id="contract" transform="translate(-21.644 -18.033)">
        <g id="Group_5200" data-name="Group 5200">
            <g id="Group_5199" data-name="Group 5199">
                <g id="Group_5198" data-name="Group 5198">
                    <g id="Group_5187" data-name="Group 5187">
                        <g id="Group_5186" data-name="Group 5186">
                            <g id="Group_5185" data-name="Group 5185">
                                <g id="Group_5184" data-name="Group 5184">
                                    <g id="Group_5183" data-name="Group 5183">
                                        <g id="Group_5182" data-name="Group 5182">
                                            <g id="Group_5181" data-name="Group 5181">
                                                <g id="Group_5180" data-name="Group 5180">
                                                    <g id="Group_5179" data-name="Group 5179">
                                                        <g id="Group_5178" data-name="Group 5178">
                                                            <g id="Path_5825" data-name="Path 5825">
                                                                <path id="Path_5862" data-name="Path 5862" d="M62.813 77H26.506a4.367 4.367 0 0 1-4.362-4.362V22.9a4.367 4.367 0 0 1 4.362-4.362h28.261a3.4 3.4 0 0 1 2.422 1l8.982 8.982a3.4 3.4 0 0 1 1 2.422v41.7A4.366 4.366 0 0 1 62.813 77z" style="fill:#e7edf0"/>
                                                                <path id="Path_5863" data-name="Path 5863" class="cls-2" d="M26.506 19.033a3.862 3.862 0 0 0-3.862 3.867v49.738a3.862 3.862 0 0 0 3.862 3.862h36.307a3.861 3.861 0 0 0 3.861-3.862v-41.7a2.926 2.926 0 0 0-.856-2.068l-8.983-8.98a2.927 2.927 0 0 0-2.068-.857H26.506m0-1h28.261a3.9 3.9 0 0 1 2.775 1.15l8.983 8.983a3.9 3.9 0 0 1 1.149 2.775v41.7a4.867 4.867 0 0 1-4.861 4.859H26.506a4.867 4.867 0 0 1-4.862-4.862V22.9a4.867 4.867 0 0 1 4.862-4.867z"/>
                                                            </g>
                                                            <path id="Path_5826" data-name="Path 5826" d="M59.84 29.729a3.829 3.829 0 0 1-.846-.094v43a3.862 3.862 0 0 1-3.862 3.865h7.681a3.862 3.862 0 0 0 3.862-3.862v-41.7a2.917 2.917 0 0 0-.264-1.212z" style="fill:#dae0e3"/>
                                                            <g id="Path_5827" data-name="Path 5827">
                                                                <path id="Path_5864" data-name="Path 5864" d="M67.188 30.23H59.84a4.367 4.367 0 0 1-4.362-4.362v-7.347l.707.321a3.413 3.413 0 0 1 1 .7l8.982 8.983a3.409 3.409 0 0 1 .695 1z" style="fill:#9acef0"/>
                                                                <path id="Path_5865" data-name="Path 5865" class="cls-2" d="M66.411 29.73a2.926 2.926 0 0 0-.593-.857l-8.983-8.982a2.929 2.929 0 0 0-.857-.594v6.571a3.862 3.862 0 0 0 3.862 3.862h6.571m0 1H59.84a4.867 4.867 0 0 1-4.862-4.862V19.3a1 1 0 0 1 1.414-.91 3.893 3.893 0 0 1 1.15.8l8.983 8.982a3.93 3.93 0 0 1 .8 1.149 1 1 0 0 1-.91 1.415z"/>
                                                            </g>
                                                        </g>
                                                    </g>
                                                </g>
                                            </g>
                                        </g>
                                    </g>
                                </g>
                            </g>
                        </g>
                    </g>
                    <g id="Group_5197" data-name="Group 5197">
                        <g id="Group_5195" data-name="Group 5195">
                            <g id="Group_5194" data-name="Group 5194">
                                <g id="Group_5189" data-name="Group 5189">
                                    <g id="Group_5188" data-name="Group 5188">
                                        <g id="Path_5828" data-name="Path 5828">
                                            <path id="Path_5866" data-name="Path 5866" d="M55.66 81.659a2.716 2.716 0 0 1-1.382-.38L46.3 76.552a24.342 24.342 0 0 1-5.192-4.113l-.008-.009-.008-.01L39 69.709a3.355 3.355 0 0 0-.946-.838l-6.2-3.661-.431-.254.255-.431 6.881-11.614.254-.43.43.254 4.845 2.856a3.35 3.35 0 0 0 2.919.243l1.81-.7a4.982 4.982 0 0 1 1.829-.4 5.941 5.941 0 0 1 2.962 1.044l2.79 1.651.431.255-.255.43-.706 1.192a.989.989 0 0 0 .347 1.354l13.798 8.17a2.717 2.717 0 0 1-1.387 5.054 2.716 2.716 0 0 1-1.382-.38l-.222-.132a2.7 2.7 0 0 1-.349 1.788 2.714 2.714 0 0 1-3.573 1.035 2.7 2.7 0 0 1-.349 1.795 2.714 2.714 0 0 1-3.721.952l-.683-.4A2.7 2.7 0 0 1 58 80.326a2.729 2.729 0 0 1-2.34 1.333z" style="fill:#ffbb32"/>
                                            <path id="Path_5867" data-name="Path 5867" class="cls-2" d="M55.66 81.159a2.217 2.217 0 0 0 1.132-4.124l2.493 1.477a2.216 2.216 0 0 0 2.259-3.812l1.662.985a2.216 2.216 0 0 0 2.259-3.814l2.034 1.2a2.216 2.216 0 1 0 2.259-3.813l-13.793-8.165a1.49 1.49 0 0 1-.522-2.04l.706-1.191-2.791-1.651a5.5 5.5 0 0 0-2.713-.978A4.542 4.542 0 0 0 49 55.6l-1.81.7a3.854 3.854 0 0 1-3.353-.279l-4.845-2.857-6.885 11.616 6.2 3.661a3.863 3.863 0 0 1 1.093.959l2.09 2.711a24.041 24.041 0 0 0 5.066 4.008l7.979 4.727a2.2 2.2 0 0 0 1.127.31m0 1a3.218 3.218 0 0 1-1.637-.45l-7.978-4.727a24.908 24.908 0 0 1-5.317-4.218l-.031-.039-2.091-2.711a2.84 2.84 0 0 0-.808-.711l-6.2-3.661a1 1 0 0 1-.352-1.371l6.881-11.614A1 1 0 0 1 39.5 52.3l4.84 2.86a2.851 2.851 0 0 0 2.485.208l1.81-.7a5.462 5.462 0 0 1 2.01-.435 6.441 6.441 0 0 1 3.211 1.11l.011.007L56.658 57a1 1 0 0 1 .351 1.37l-.7 1.191a.489.489 0 0 0 .171.67L70.267 68.4a3.216 3.216 0 0 1-2.74 5.789 3.214 3.214 0 0 1-3.909 2.722 3.217 3.217 0 0 1-4.774 2.5 3.216 3.216 0 0 1-3.184 2.747z"/>
                                        </g>
                                    </g>
                                    <path id="Rectangle_1854" data-name="Rectangle 1854" class="cls-2" transform="rotate(-57.038 92.347 -19.659)" d="M0 0h1.001v9.906H0z"/>
                                    <path id="Rectangle_1855" data-name="Rectangle 1855" class="cls-2" transform="rotate(-57.32 94.782 -15.594)" d="M0 0h1v8.531H0z"/>
                                    <path id="Rectangle_1856" data-name="Rectangle 1856" class="cls-2" transform="rotate(-54.773 100.881 -14.342)" d="M0 0h.999v5.11H0z"/>
                                </g>
                                <g id="Group_5190" data-name="Group 5190">
                                    <g id="Path_5830" data-name="Path 5830">
                                        <path id="Path_5868" data-name="Path 5868" class="cls-6" d="m69.446 68.5-13.059-7.738-.755-.447v1.054a2.724 2.724 0 0 1-2.721 2.721.571.571 0 0 1-.571-.571v-4.175a2.777 2.777 0 0 1 2.1-2.7l3.127-.792a2.807 2.807 0 0 1 .682-.085 2.763 2.763 0 0 1 1.017.193l2.041.8a4.352 4.352 0 0 0 3.791-.314l3.289-1.911L74.758 65.3l-4.646 2.71a4.412 4.412 0 0 0-.666.49z"/>
                                        <path id="Path_5869" data-name="Path 5869" class="cls-2" d="m68.208 55.222-2.859 1.663a4.858 4.858 0 0 1-4.22.349h-.005l-2.042-.8a2.275 2.275 0 0 0-1.393-.088l-3.128.791a2.28 2.28 0 0 0-1.721 2.211v4.175a.071.071 0 0 0 .071.071 2.224 2.224 0 0 0 2.221-2.221v-1.935l1.51.894L69.4 67.887a5.164 5.164 0 0 1 .455-.306l4.211-2.46-5.863-9.9m.355-1.363 6.881 11.615-5.079 2.968a3.849 3.849 0 0 0-.846.678l-13.382-7.927v.177a3.221 3.221 0 0 1-3.221 3.221 1.071 1.071 0 0 1-1.069-1.071v-4.175a3.28 3.28 0 0 1 2.476-3.18l3.127-.792a3.287 3.287 0 0 1 2.005.127l2.041.8a3.856 3.856 0 0 0 3.354-.279z"/>
                                    </g>
                                </g>
                                <g id="Group_5193" data-name="Group 5193">
                                    <g id="Group_5192" data-name="Group 5192">
                                        <g id="Group_5230" data-name="Group 5230">
                                            <path id="Path_5832" data-name="Path 5832" class="cls-6" d="m41.029 70.9-1.255 1.748a2.216 2.216 0 1 1-3.643-2.524l.043-.06 1.255-1.748a2.216 2.216 0 0 1 3.6 2.584z"/>
                                            <path id="Path_5870" data-name="Path 5870" class="cls-2" d="M37.95 74.1a2.715 2.715 0 0 1-2.23-4.262l1.3-1.816a2.716 2.716 0 0 1 4.417 3.162v.006l-1.255 1.748A2.71 2.71 0 0 1 37.95 74.1zm1.261-6.18a1.956 1.956 0 0 0-.253.018 1.71 1.71 0 0 0-1.127.674l-1.25 1.742a1.716 1.716 0 1 0 2.782 2.007l1.258-1.751a1.718 1.718 0 0 0-1.41-2.69z"/>
                                        </g>
                                        <g id="Group_5231" data-name="Group 5231">
                                            <path id="Path_5833" data-name="Path 5833" class="cls-6" d="m46.013 71.555-2.64 3.678a2.216 2.216 0 1 1-3.643-2.524l.043-.06 2.64-3.678a2.216 2.216 0 0 1 3.6 2.584z"/>
                                            <path id="Path_5871" data-name="Path 5871" class="cls-2" d="M41.545 76.688a2.717 2.717 0 0 1-2.226-4.263l2.688-3.745a2.716 2.716 0 0 1 4.417 3.161l-.005.007-2.64 3.677a2.693 2.693 0 0 1-1.742 1.119 2.735 2.735 0 0 1-.492.044zm2.649-8.11a1.715 1.715 0 0 0-1.38.692l-2.635 3.671a1.733 1.733 0 0 0 .4 2.441 1.715 1.715 0 0 0 2.388-.434l2.642-3.68a1.715 1.715 0 0 0-1.41-2.69z"/>
                                        </g>
                                        <g id="Group_5232" data-name="Group 5232">
                                            <path id="Path_5834" data-name="Path 5834" class="cls-6" d="m49.61 74.144-2.64 3.678a2.216 2.216 0 1 1-3.643-2.522l.043-.06 2.64-3.678a2.216 2.216 0 0 1 3.643 2.524l-.043.058z"/>
                                            <path id="Path_5872" data-name="Path 5872" class="cls-2" d="M45.143 79.277a2.717 2.717 0 0 1-2.227-4.263l2.684-3.745a2.716 2.716 0 0 1 4.46 3.1l-.047.068-2.641 3.677a2.685 2.685 0 0 1-1.742 1.118 2.639 2.639 0 0 1-.487.045zm2.692-8.171a1.719 1.719 0 0 0-1.414.74l-2.645 3.684a1.716 1.716 0 0 0 1.679 2.719 1.705 1.705 0 0 0 1.1-.712l2.651-3.692.4.3-.368-.345a1.717 1.717 0 0 0-1.407-2.694z"/>
                                        </g>
                                    </g>
                                    <g id="Group_5233" data-name="Group 5233">
                                        <path id="Path_5835" data-name="Path 5835" d="m52.04 78.358-.878 1.223a2.216 2.216 0 0 1-3.6-2.581l.878-1.223a2.216 2.216 0 0 1 3.643 2.523l-.043.058z" style="fill:#fa9912"/>
                                        <path id="Path_5873" data-name="Path 5873" class="cls-2" d="M49.378 80.974a2.715 2.715 0 0 1-2.227-4.262l.883-1.23a2.716 2.716 0 0 1 4.46 3.1l-.048.066-.878 1.223a2.721 2.721 0 0 1-2.19 1.103zm.888-5.654a1.719 1.719 0 0 0-1.414.74l-.884 1.229a1.716 1.716 0 0 0 2.793 1.994l.879-1.224.4.3-.366-.346a1.718 1.718 0 0 0-1.408-2.692z"/>
                                    </g>
                                </g>
                            </g>
                        </g>
                        <g id="Group_5196" data-name="Group 5196">
                            <g id="Group_5234" data-name="Group 5234">
                                <path id="Path_5836" data-name="Path 5836" class="cls-8" d="m41.581 51.957-1.941-1.15a1.122 1.122 0 0 0-1.54.393l-7.977 13.468a1.124 1.124 0 0 0 .39 1.54l1.941 1.15a2.739 2.739 0 0 0 3.753-.96l6.331-10.687a2.739 2.739 0 0 0-.958-3.753z"/>
                                <path id="Path_5874" data-name="Path 5874" class="cls-2" d="M33.849 68.244a3.21 3.21 0 0 1-1.649-.454l-1.98-1.175a1.616 1.616 0 0 1-.53-2.2l7.978-13.466a1.628 1.628 0 0 1 2.224-.569l2 1.185a3.241 3.241 0 0 1 1.079 4.4l-6.33 10.687a3.226 3.226 0 0 1-1.984 1.488 3.291 3.291 0 0 1-.808.104zm-3.1-2.475.019.011 1.941 1.151a2.247 2.247 0 0 0 3.068-.785l6.331-10.689a2.243 2.243 0 0 0-.673-3h-.062l-.1-.1-1.888-1.117a.623.623 0 0 0-.853.218l-7.979 13.465a.626.626 0 0 0 .2.846z"/>
                            </g>
                            <g id="Group_5235" data-name="Group 5235">
                                <path id="Path_5837" data-name="Path 5837" class="cls-8" d="m67.911 50.81-1.941 1.15a2.74 2.74 0 0 0-.961 3.753L71.34 66.4a2.739 2.739 0 0 0 3.753.962l1.939-1.151a1.123 1.123 0 0 0 .4-1.538L69.448 51.2a1.124 1.124 0 0 0-1.537-.39z"/>
                                <path id="Path_5875" data-name="Path 5875" class="cls-2" d="M73.7 68.245a3.278 3.278 0 0 1-.808-.1 3.224 3.224 0 0 1-1.984-1.488l-6.329-10.688a3.247 3.247 0 0 1 1.136-4.439l1.942-1.15a1.626 1.626 0 0 1 2.221.569l7.978 13.468a1.622 1.622 0 0 1-.57 2.224l-1.938 1.15a3.21 3.21 0 0 1-1.648.454zm-5.536-17-1.941 1.15a2.242 2.242 0 0 0-.786 3.067l6.332 10.688a2.239 2.239 0 0 0 3.067.786l1.939-1.152a.624.624 0 0 0 .225-.858l-7.982-13.467a.624.624 0 0 0-.852-.218z"/>
                            </g>
                        </g>
                    </g>
                </g>
            </g>
        </g>
        <g id="Group_5203" data-name="Group 5203">
            <g id="Group_5202" data-name="Group 5202">
                <g id="Group_5201" data-name="Group 5201">
                    <path id="Path_5838" data-name="Path 5838" class="cls-9" d="M59.984 35.317H29.336a.941.941 0 0 0 0 1.883h30.649a.941.941 0 1 0 0-1.883z"/>
                    <path id="Path_5839" data-name="Path 5839" class="cls-9" d="M29.336 30.673h15.325a.942.942 0 0 0 0-1.883H29.336a.942.942 0 0 0 0 1.883z"/>
                    <path id="Path_5840" data-name="Path 5840" class="cls-9" d="M59.984 41.111H29.336a.941.941 0 0 0 0 1.883h30.649a.941.941 0 1 0 0-1.883z"/>
                </g>
            </g>
        </g>
    </g>
</svg>
