<svg xmlns="http://www.w3.org/2000/svg" width="52.913" height="56">
    <defs>
        <style>
            .cls-4{fill-rule:evenodd}.cls-2{fill:#323c6b}.cls-4{fill:#efa180}.cls-5{fill:#dd2725}
        </style>
    </defs>
    <g id="discrimination" transform="translate(-19.142 -17.072)">
        <g id="Group_5112" data-name="Group 5112" transform="translate(39.939 29.282)">
            <g id="Group_5118" data-name="Group 5118">
                <path id="Path_5747" data-name="Path 5747" d="M44.16 36.278V42.1c0 .212 0 .424.014.629a13.008 13.008 0 0 0 25.983 0c.011-.209.014-.417.014-.629v-5.82c-1-.075-2.5-1.061-3.873-2.917-1.266-1.707-1.847-1.669-3.478-.817a12.623 12.623 0 0 1-11.308 0c-1.63-.848-2.215-.891-3.478.817-1.376 1.854-2.878 2.837-3.874 2.915z" transform="translate(-43.736 -31.543)" style="fill-rule:evenodd;fill:#f3b99f"/>
                <path id="Path_5758" data-name="Path 5758" class="cls-2" d="M57.074 55.421a13.434 13.434 0 0 1-13.4-12.747c-.014-.206-.014-.429-.014-.651v-6.215l.393-.029c.8-.061 2.22-.933 3.565-2.747 1.384-1.871 2.216-1.876 4.015-.941a12.26 12.26 0 0 0 10.923 0c1.818-.949 2.61-.943 4.007.944 1.344 1.813 2.758 2.685 3.564 2.747l.393.029v6.215c0 .219 0 .435-.015.651A13.4 13.4 0 0 1 57.775 55.4q-.352.021-.701.021zM44.508 36.562v5.461c0 .2 0 .4.013.6a12.585 12.585 0 0 0 25.137.008c.009-.2.014-.4.014-.607v-5.462a7.662 7.662 0 0 1-3.79-3.025c-1.153-1.554-1.5-1.448-2.94-.693a13.119 13.119 0 0 1-11.7 0c-1.452-.756-1.8-.863-2.948.69a7.667 7.667 0 0 1-3.786 3.028z" transform="translate(-43.66 -31.467)"/>
            </g>
        </g>
        <g id="Group_5113" data-name="Group 5113" transform="translate(39.766 17.072)">
            <g id="Group_5119" data-name="Group 5119">
                <path id="Path_5748" data-name="Path 5748" d="M66.854 20.355c-5.206-2.39-12.835-5.488-17.7 1.665-6.655.523-5.025 6.424-5.025 12.075 1-.075 2.5-1.061 3.873-2.917 1.261-1.707 1.847-1.669 3.478-.817a12.623 12.623 0 0 0 11.308 0c1.634-.848 2.215-.891 3.478.817 1.375 1.857 2.877 2.843 3.873 2.917 3-4.088 5.114-8.253 3.308-14.42a7.623 7.623 0 0 1-6.593.68z" transform="translate(-43.531 -17.15)" style="fill:#ffbb32;fill-rule:evenodd"/>
                <path id="Path_5759" data-name="Path 5759" class="cls-2" d="M43.629 34.474v-.457c0-.937-.047-1.893-.091-2.818-.215-4.477-.437-9.1 5.3-9.662 5.275-7.524 13.6-3.718 18.1-1.653a7.162 7.162 0 0 0 6.208-.647l.474-.292.155.534c1.77 6.044-.068 10.283-3.372 14.79l-.14.189-.234-.017c-1.238-.092-2.841-1.275-4.183-3.088-1.148-1.55-1.495-1.444-2.941-.693a13.118 13.118 0 0 1-11.694 0c-1.495-.782-1.848-.8-2.948.69-1.343 1.812-2.945 3-4.183 3.088zm20.742-5.189c.733 0 1.343.459 2.16 1.563a6.785 6.785 0 0 0 3.341 2.713c3.049-4.208 4.642-7.965 3.236-13.326a8.008 8.008 0 0 1-6.474.441l-.033-.014c-4.3-1.973-12.3-5.647-17.172 1.518l-.115.168-.2.016c-5.128.4-4.95 4.106-4.725 8.794.036.765.075 1.551.087 2.337a7.338 7.338 0 0 0 3.112-2.647c1.386-1.875 2.217-1.88 4.015-.941a12.253 12.253 0 0 0 10.923 0 4.262 4.262 0 0 1 1.845-.622z" transform="translate(-43.456 -17.072)"/>
            </g>
        </g>
        <g id="Group_5114" data-name="Group 5114" transform="translate(34.678 33.589)">
            <g id="Group_5120" data-name="Group 5120">
                <path id="Path_5749" data-name="Path 5749" class="cls-4" d="M41.181 37.048a3.223 3.223 0 1 0 0 6.446h2.049a11.928 11.928 0 0 1-.014-.629v-5.82z" transform="translate(-37.534 -36.62)"/>
                <path id="Path_5760" data-name="Path 5760" class="cls-2" d="M43.6 43.843h-2.5a3.647 3.647 0 0 1 0-7.295h2.459v6.242c0 .2 0 .4.014.606zm-2.5-6.446a2.8 2.8 0 1 0 0 5.6h1.611V37.397z" transform="translate(-37.458 -36.544)"/>
            </g>
        </g>
        <g id="Group_5115" data-name="Group 5115" transform="translate(65.904 33.592)">
            <g id="Group_5121" data-name="Group 5121">
                <path id="Path_5750" data-name="Path 5750" class="cls-4" d="M74.823 37.049v5.82c0 .212 0 .424-.014.629h2.048a3.223 3.223 0 1 0 0-6.446z" transform="translate(-74.353 -36.624)"/>
                <path id="Path_5761" data-name="Path 5761" class="cls-2" d="M76.776 43.847h-2.5l.033-.455c.014-.2.014-.4.014-.6v-6.244l2.459.005a3.647 3.647 0 0 1 0 7.294zM75.165 43h1.611a2.8 2.8 0 0 0 0-5.6h-1.61v5.4l-.001.2z" transform="translate(-74.271 -36.548)"/>
            </g>
        </g>
        <g id="Group_5116" data-name="Group 5116" transform="translate(19.142 48.194)">
            <g id="Group_5122" data-name="Group 5122">
                <path id="Path_5751" data-name="Path 5751" class="cls-4" d="m20.889 60.73-1.127 7.764c-1.339 9.223 8.674 12.529 15.276 5.863l2.919-2.912a1.788 1.788 0 1 0-2.378-2.671 1.886 1.886 0 0 0-.148.148l1.076-1.07a1.788 1.788 0 0 0-2.378-2.671 1.886 1.886 0 0 0-.148.148l1.076-1.073a1.787 1.787 0 1 0-2.371-2.674 1.663 1.663 0 0 0-.15.149l4.359-4.35a1.788 1.788 0 1 0-2.388-2.662 1.839 1.839 0 0 0-.141.141l-7.773 7.759c-1.361 1.357-1.5.98-1.4-.594l.085-1.45c.1-2.875-3.978-2.717-4.389.155z" transform="translate(-19.217 -53.839)"/>
                <path id="Path_5762" data-name="Path 5762" class="cls-2" d="M27.156 78.218a8.447 8.447 0 0 1-3.792-.87c-3.155-1.573-4.688-4.934-4.1-8.991l1.127-7.764a2.912 2.912 0 0 1 3.136-2.586 2.268 2.268 0 0 1 2.093 2.508l-.085 1.459a6.794 6.794 0 0 0-.016.886 5.692 5.692 0 0 0 .695-.618l7.773-7.758a1.815 1.815 0 0 1 .157-.157 2.232 2.232 0 0 1 1.6-.562 2.212 2.212 0 0 1 1.356 3.857l-3.034 3.028a2.21 2.21 0 0 1 1.439 3.6 2.212 2.212 0 0 1 1.453 3.591 2.213 2.213 0 0 1 1.2 3.849l-2.9 2.895a11.625 11.625 0 0 1-8.102 3.633zm-3.87-19.374a2.091 2.091 0 0 0-2.054 1.871L20.1 68.479c-.534 3.677.826 6.709 3.638 8.111 2.777 1.383 7.231 1.114 10.917-2.607l2.92-2.914a1.374 1.374 0 0 0 .13-1.943A1.365 1.365 0 0 0 35.8 69l-.147.146-.619-.579a2.068 2.068 0 0 1 .187-.188l.908-.9a1.375 1.375 0 0 0 .472-.956 1.364 1.364 0 0 0-2.255-1.11l-.145.145-.617-.582a2.187 2.187 0 0 1 .182-.183l.911-.909a1.363 1.363 0 1 0-1.78-2.066l-.143.142-.618-.581a2.258 2.258 0 0 1 .18-.181l4.2-4.188a1.372 1.372 0 0 0 .121-1.942 1.354 1.354 0 0 0-.942-.451 1.316 1.316 0 0 0-.985.346 1.492 1.492 0 0 0-.109.11l-7.788 7.774c-.746.746-1.239 1.106-1.7.9-.487-.22-.483-.893-.425-1.821l.085-1.448a1.412 1.412 0 0 0-1.322-1.623q-.082-.011-.165-.011z" transform="translate(-19.142 -53.763)"/>
            </g>
        </g>
        <g id="Group_5117" data-name="Group 5117" transform="translate(44.611 55.858)">
            <g id="Path_5754" data-name="Path 5754" transform="translate(11.913 13.6)">
                <path id="Path_5763" data-name="Path 5763" class="cls-5" d="M65.095 82.1a1.381 1.381 0 0 1-1.381-1.378v-.005a1.381 1.381 0 1 1 1.381 1.383z" transform="translate(-63.29 -78.908)"/>
                <path id="Path_5764" data-name="Path 5764" class="cls-2" d="M65.019 79.68a.957.957 0 0 0-.957.958v.005a.957.957 0 1 0 .957-.963m0-.848a1.807 1.807 0 1 1-1.805 1.811v-.005a1.807 1.807 0 0 1 1.805-1.806z" transform="translate(-63.214 -78.832)"/>
            </g>
            <g id="Path_5755" data-name="Path 5755" transform="translate(8.813)">
                <path id="Path_5765" data-name="Path 5765" class="cls-5" d="M64.538 74.908a1.382 1.382 0 0 1-1.381-1.381v-1.556a4.534 4.534 0 0 1 1.356-2.871 3.825 3.825 0 0 0 .637-.9v-.984a1.165 1.165 0 0 0-2.329 0v.988a1.381 1.381 0 0 1-2.762 0v-.988a3.926 3.926 0 0 1 7.853 0v.988a4.22 4.22 0 0 1-1.283 2.674c-.316.377-.711.847-.711 1.091v1.556a1.383 1.383 0 0 1-1.38 1.383z" transform="translate(-59.635 -62.874)"/>
                <path id="Path_5766" data-name="Path 5766" class="cls-2" d="M63.909 63.646a3.5 3.5 0 0 0-3.5 3.5v.988a.957.957 0 0 0 1.914 0v-.988a1.589 1.589 0 0 1 3.177 0v.988c0 .294-.391.76-.735 1.171A4.133 4.133 0 0 0 63.5 71.9v1.556a.957.957 0 0 0 1.914 0V71.9c0-.4.394-.867.81-1.364a3.832 3.832 0 0 0 1.183-2.4v-.988a3.5 3.5 0 0 0-3.5-3.5m0-.848a4.353 4.353 0 0 1 4.351 4.344v.988a4.56 4.56 0 0 1-1.382 2.947 4.292 4.292 0 0 0-.612.841v1.534a1.805 1.805 0 0 1-3.61 0V71.9a4.887 4.887 0 0 1 1.456-3.139 5.683 5.683 0 0 0 .538-.707v-.908a.741.741 0 0 0-1.481 0v.988a1.805 1.805 0 0 1-3.61 0v-.988a4.352 4.352 0 0 1 4.352-4.346z" transform="translate(-59.559 -62.798)"/>
            </g>
            <g id="Path_5756" data-name="Path 5756" transform="translate(3.1 13.6)">
                <path id="Path_5767" data-name="Path 5767" class="cls-5" d="M54.7 82.1a1.381 1.381 0 0 1-1.381-1.378v-.005A1.381 1.381 0 1 1 54.7 82.1z" transform="translate(-52.9 -78.908)"/>
                <path id="Path_5768" data-name="Path 5768" class="cls-2" d="M54.629 79.68a.957.957 0 0 0-.957.958v.005a.957.957 0 1 0 .957-.963m0-.848a1.807 1.807 0 1 1-1.805 1.811v-.005a1.807 1.807 0 0 1 1.805-1.806z" transform="translate(-52.824 -78.832)"/>
            </g>
            <g id="Path_5757" data-name="Path 5757">
                <path id="Path_5769" data-name="Path 5769" class="cls-5" d="M54.144 74.908a1.383 1.383 0 0 1-1.381-1.381v-1.556A4.535 4.535 0 0 1 54.12 69.1a3.808 3.808 0 0 0 .637-.9v-.984a1.163 1.163 0 0 0-2.327 0v.988a1.381 1.381 0 0 1-2.762 0v-.988a3.925 3.925 0 0 1 7.85 0v.988a4.224 4.224 0 0 1-1.283 2.674c-.317.377-.711.847-.711 1.091v1.556a1.383 1.383 0 0 1-1.38 1.383z" transform="translate(-49.245 -62.874)"/>
                <path id="Path_5770" data-name="Path 5770" class="cls-2" d="M53.519 63.646a3.5 3.5 0 0 0-3.5 3.5v.988a.957.957 0 0 0 1.914 0v-.988a1.587 1.587 0 0 1 3.175 0v.988c0 .294-.391.76-.736 1.171a4.138 4.138 0 0 0-1.26 2.595v1.556a.957.957 0 0 0 1.914 0V71.9c0-.4.393-.867.81-1.364a3.832 3.832 0 0 0 1.183-2.4v-.988a3.5 3.5 0 0 0-3.5-3.5m0-.848a4.351 4.351 0 0 1 4.349 4.344v.988a4.56 4.56 0 0 1-1.382 2.947 4.292 4.292 0 0 0-.612.841v1.534a1.805 1.805 0 0 1-3.611 0V71.9a4.887 4.887 0 0 1 1.456-3.139 5.682 5.682 0 0 0 .538-.707v-.908a.739.739 0 0 0-1.478 0v.988a1.805 1.805 0 0 1-3.61 0v-.988a4.352 4.352 0 0 1 4.35-4.346z" transform="translate(-49.169 -62.798)"/>
            </g>
        </g>
    </g>
</svg>
