<svg xmlns="http://www.w3.org/2000/svg" width="56" height="56">
    <defs>
        <style>
            .cls-1{fill:#84c3ec}.cls-2{fill:#323c6b}.cls-5{fill:#ffc84a}.cls-6{fill:#f8ae40}.cls-9{fill:#434f66}
        </style>
    </defs>
    <g id="documents" transform="translate(-10.034 -10.267)">
        <g id="Group_5243" data-name="Group 5243" transform="translate(10.034 10.267)">
            <g id="Path_5876" data-name="Path 5876" transform="translate(0 8.705)">
                <path id="Path_5876-2" data-name="Path 5876" class="cls-1" d="M37.118 66.05H11.984a1.452 1.452 0 0 1-1.45-1.45v-40a1.452 1.452 0 0 1 1.45-1.45h25.134a1.452 1.452 0 0 1 1.45 1.45v40a1.45 1.45 0 0 1-1.45 1.45z" transform="translate(-10.182 -22.798)"/>
                <path id="Path_5877" data-name="Path 5877" class="cls-2" d="M36.97 65.55a1.1 1.1 0 0 0 1.1-1.1v-40a1.1 1.1 0 0 0-1.1-1.1H11.836a1.1 1.1 0 0 0-1.1 1.1v40a1.1 1.1 0 0 0 1.1 1.1H36.97m0 .7H11.836a1.8 1.8 0 0 1-1.8-1.8v-40a1.8 1.8 0 0 1 1.8-1.8H36.97a1.8 1.8 0 0 1 1.8 1.8v40a1.8 1.8 0 0 1-1.8 1.8z" transform="translate(-10.034 -22.65)"/>
            </g>
            <g id="Path_5878" data-name="Path 5878" transform="translate(4.336 4.353)">
                <path id="Path_5878-2" data-name="Path 5878" class="cls-1" d="M47.686 59.859H18.152a1.452 1.452 0 0 1-1.45-1.45v-40a1.452 1.452 0 0 1 1.45-1.45h29.534a1.452 1.452 0 0 1 1.45 1.45v40a1.452 1.452 0 0 1-1.45 1.45z" transform="translate(-16.35 -16.607)"/>
                <path id="Path_5879" data-name="Path 5879" class="cls-2" d="M47.538 59.359a1.1 1.1 0 0 0 1.1-1.1v-40a1.1 1.1 0 0 0-1.1-1.1H18a1.1 1.1 0 0 0-1.1 1.1v40a1.1 1.1 0 0 0 1.1 1.1h29.538m0 .7H18a1.8 1.8 0 0 1-1.8-1.8v-40a1.8 1.8 0 0 1 1.8-1.8h29.538a1.8 1.8 0 0 1 1.8 1.8v40a1.8 1.8 0 0 1-1.8 1.803z" transform="translate(-16.202 -16.459)"/>
            </g>
            <g id="Path_5880" data-name="Path 5880" transform="translate(8.672)">
                <path id="Path_5880-2" data-name="Path 5880" d="M53.854 53.668H24.32a1.452 1.452 0 0 1-1.45-1.45v-40a1.452 1.452 0 0 1 1.45-1.45h29.534a1.452 1.452 0 0 1 1.45 1.45v40a1.452 1.452 0 0 1-1.45 1.45z" transform="translate(-22.518 -10.415)" style="fill:#e7edf0"/>
                <path id="Path_5881" data-name="Path 5881" class="cls-2" d="M53.706 53.168a1.1 1.1 0 0 0 1.1-1.1v-40a1.1 1.1 0 0 0-1.1-1.1H24.172a1.1 1.1 0 0 0-1.1 1.1v40a1.1 1.1 0 0 0 1.1 1.1h29.534m0 .7H24.172a1.8 1.8 0 0 1-1.8-1.8v-40a1.8 1.8 0 0 1 1.8-1.8h29.534a1.8 1.8 0 0 1 1.8 1.8v40a1.8 1.8 0 0 1-1.8 1.803z" transform="translate(-22.37 -10.267)"/>
            </g>
            <g id="Path_5890" data-name="Path 5890" transform="translate(14.374 36.638)">
                <path id="Path_5882" data-name="Path 5882" d="m57.323 69.145-16.636-.006h-6.4a5.48 5.48 0 0 0 2.779-4.767v-.742a.748.748 0 0 1 .747-.747h23.513a.748.748 0 0 1 .747.747v.746a4.765 4.765 0 0 1-4.75 4.769z" transform="translate(-31.611 -62.531)" style="fill:#dae0e3"/>
                <path id="Path_5883" data-name="Path 5883" class="cls-2" d="M36.682 63.086a.4.4 0 0 0-.4.4v.746a5.821 5.821 0 0 1-2.024 4.415h5.294l16.636.006a4.413 4.413 0 0 0 4.4-4.418v-.746a.4.4 0 0 0-.4-.4H36.682m0-.7H60.2a1.1 1.1 0 0 1 1.1 1.1v.746a5.112 5.112 0 0 1-5.1 5.121l-16.637-.006-9.068.006a5.112 5.112 0 0 0 5.1-5.121v-.746a1.1 1.1 0 0 1 1.087-1.106zm-6.194 6.965z" transform="translate(-30.481 -62.383)"/>
            </g>
            <g id="Path_5893" data-name="Path 5893" transform="translate(44.805 45.501)">
                <path id="Path_5884" data-name="Path 5884" class="cls-5" d="M82.279 85.342a2.736 2.736 0 0 1-1.94-.809l-5.563-4.983-.276-.25.266-.262 3.173-3.131.235-.231.246.219 5.576 4.962.006.006.007.006a2.707 2.707 0 0 1 .82 1.934 2.515 2.515 0 0 1-.744 1.8 2.544 2.544 0 0 1-1.806.739z" transform="translate(-73.985 -75.194)"/>
                <path id="Path_5885" data-name="Path 5885" class="cls-2" d="m77.967 75.954-3.173 3.131 5.57 4.989a2.4 2.4 0 0 0 1.7.713 2.2 2.2 0 0 0 1.557-.632 2.276 2.276 0 0 0-.075-3.239l-5.577-4.962m-.025-.963.492.438 5.576 4.962.013.012.013.013a3.056 3.056 0 0 1 .925 2.184 2.876 2.876 0 0 1-2.9 2.891 3.084 3.084 0 0 1-2.181-.9l-5.556-4.977-.557-.5.532-.525 3.173-3.131z" transform="translate(-73.768 -74.991)"/>
            </g>
            <path id="Path_5894" data-name="Path 5894" class="cls-6" d="M80.055 77.833A12.215 12.215 0 0 1 76.915 81l-1.687-1.511 3.172-3.13z" transform="translate(-29.396 -29.896)"/>
            <g id="Group_5246" data-name="Group 5246" transform="translate(30.354 30.861)">
                <path id="Path_5896" data-name="Path 5896" d="M53.711 64.563a9.928 9.928 0 1 1 9.928 9.959 9.929 9.929 0 0 1-9.928-9.959z" transform="translate(-53.359 -54.314)" style="fill:#d20d1b"/>
                <path id="Path_5886" data-name="Path 5886" class="cls-2" d="M63.49 74.725a10.346 10.346 0 0 1-10.279-10.31A10.291 10.291 0 0 1 63.49 54.166h.033a10.279 10.279 0 0 1-.032 20.559zm-9.576-10.31a9.576 9.576 0 1 0 19.153.06 9.578 9.578 0 0 0-9.547-9.606h-.03a9.587 9.587 0 0 0-9.576 9.546z" transform="translate(-53.211 -54.166)"/>
            </g>
            <g id="Group_5247" data-name="Group 5247" transform="translate(34.084 34.578)">
                <path id="Path_5898" data-name="Path 5898" d="M59.016 66.132a6.2 6.2 0 1 1 6.2 6.217 6.2 6.2 0 0 1-6.2-6.217z" transform="translate(-58.665 -59.601)" style="fill:#d9e5eb"/>
                <path id="Path_5887" data-name="Path 5887" class="cls-2" d="M65.066 72.553a6.587 6.587 0 0 1-6.549-6.569 6.557 6.557 0 0 1 6.549-6.53h.02a6.55 6.55 0 0 1-.02 13.1zm-5.846-6.568a5.847 5.847 0 1 0 11.693.036 5.847 5.847 0 0 0-5.829-5.864h-.018a5.853 5.853 0 0 0-5.846 5.828z" transform="translate(-58.517 -59.453)"/>
            </g>
            <g id="Group_5248" data-name="Group 5248" transform="translate(14.092 25.721)">
                <path id="Path_5910" data-name="Path 5910" class="cls-9" d="M50.438 47.8H30.753a.273.273 0 0 1 0-.547h19.685a.273.273 0 0 1 0 .547z" transform="translate(-30.199 -46.972)"/>
                <path id="Path_5888" data-name="Path 5888" class="cls-9" d="M50.319 47.963H30.635a.554.554 0 1 1 0-1.109h19.684a.554.554 0 1 1 0 1.109z" transform="translate(-30.08 -46.854)"/>
            </g>
            <g id="Group_5249" data-name="Group 5249" transform="translate(14.092 29.458)">
                <path id="Path_5911" data-name="Path 5911" class="cls-9" d="M50.438 53.117H30.753a.273.273 0 0 1 0-.547h19.685a.273.273 0 0 1 0 .547z" transform="translate(-30.199 -52.289)"/>
                <path id="Path_5889" data-name="Path 5889" class="cls-9" d="M50.319 53.28H30.635a.555.555 0 0 1 0-1.11h19.684a.555.555 0 0 1 0 1.11zm0-.563z" transform="translate(-30.08 -52.17)"/>
            </g>
            <g id="Group_5246-2" data-name="Group 5246" transform="translate(15.037 3.586)">
                <path id="Path_5403" data-name="Path 5403" class="cls-6" d="m34.687 24.285 5.663-5.663 4.369 4.369-5.663 5.663z" transform="translate(-32.392 -16.335)"/>
                <path id="Path_5404" data-name="Path 5404" class="cls-2" d="M38.943 28.811a.274.274 0 0 1-.193-.08l-4.372-4.369a.273.273 0 0 1 0-.387l5.664-5.664a.273.273 0 0 1 .387 0L44.8 22.68a.273.273 0 0 1 0 .387l-5.665 5.663a.272.272 0 0 1-.192.081zm-3.98-4.64 3.985 3.98 5.273-5.277-3.983-3.983z" transform="translate(-32.277 -16.219)"/>
                <path id="Path_5405" data-name="Path 5405" class="cls-5" d="M53.113 34.693 45.406 27.7l-1.636 1.636 6.993 7.706a1.663 1.663 0 0 0 2.459-2.242 1.63 1.63 0 0 0-.11-.11z" transform="translate(-35.09 -19.031)"/>
                <rect id="Rectangle_1844" data-name="Rectangle 1844" class="cls-5" width="2.279" height="8.03" rx="1.058" transform="rotate(-45 5.627 -8.002)"/>
                <path id="Path_5406" data-name="Path 5406" class="cls-6" d="M53.657 35.924a1.645 1.645 0 0 1-.487 1.176 1.466 1.466 0 0 1-.334.257 1.559 1.559 0 0 0 .093-.547 1.66 1.66 0 0 0-.541-1.231l-7.708-6.991-.832.832-.077-.082 1.637-1.638 7.707 7a1.66 1.66 0 0 1 .541 1.231z" transform="translate(-35.091 -19.03)"/>
                <path id="Path_5407" data-name="Path 5407" class="cls-6" d="m48.8 21.585-.569.569a.573.573 0 0 0-.159-.5L43.21 16.8a.572.572 0 0 0-.81 0l-.236.236a.6.6 0 0 1 .169-.334l.793-.793a.577.577 0 0 1 .815 0L48.8 20.77a.577.577 0 0 1 0 .815z" transform="translate(-34.612 -15.478)"/>
                <rect id="Rectangle_1845" data-name="Rectangle 1845" class="cls-5" width="2.279" height="8.03" rx="1.058" transform="rotate(-45 10.768 4.418)"/>
                <path id="Path_5408" data-name="Path 5408" class="cls-2" d="M37.134 33.06a.849.849 0 0 1-.6-.25l-4.859-4.859a.851.851 0 0 1 0-1.2l.793-.793a.871.871 0 0 1 1.2 0l4.861 4.861a.853.853 0 0 1 0 1.2l-.794.791a.848.848 0 0 1-.601.25zm-4.065-6.814a.307.307 0 0 0-.216.091l-.791.8a.3.3 0 0 0 0 .427l4.859 4.859a.3.3 0 0 0 .432 0l.793-.793a.306.306 0 0 0 0-.432l-4.859-4.858a.306.306 0 0 0-.216-.091z" transform="translate(-31.423 -18.441)"/>
                <path id="Path_5417" data-name="Path 5417" class="cls-2" d="M51.884 37.745h-.049a1.918 1.918 0 0 1-1.387-.633L43.453 29.4a.274.274 0 0 1 .009-.377l1.638-1.632a.274.274 0 0 1 .377-.009l7.706 6.993a1.936 1.936 0 0 1-1.3 3.37zm-7.85-8.517 6.819 7.514a1.389 1.389 0 0 0 2.061-1.864 1.3 1.3 0 0 0-.1-.1L45.3 27.961z" transform="translate(-34.975 -18.916)"/>
                <path id="Path_5418" data-name="Path 5418" class="cls-2" d="M47.483 22.713a.846.846 0 0 1-.6-.25L42.022 17.6a.853.853 0 0 1 0-1.2l.793-.793a.876.876 0 0 1 1.2 0l4.861 4.86a.853.853 0 0 1 0 1.2l-.794.792a.843.843 0 0 1-.599.254zM43.419 15.9a.3.3 0 0 0-.216.089l-.792.793a.3.3 0 0 0 0 .427l4.859 4.859a.351.351 0 0 0 .219.089.3.3 0 0 0 .216-.089l.793-.793a.309.309 0 0 0 0-.432l-4.864-4.859a.3.3 0 0 0-.215-.084z" transform="translate(-34.497 -15.369)"/>
            </g>
        </g>
    </g>
</svg>
