<svg xmlns="http://www.w3.org/2000/svg" width="55.962" height="56">
    <defs>
        <style>
            .cls-1{fill:#add6f2}.cls-2{fill:#323c6b}
        </style>
    </defs>
    <g id="Filled_Outline" data-name="Filled Outline" transform="translate(-20.364 -20.576)">
        <g id="Group_5106" data-name="Group 5106" transform="translate(28.901 20.576)">
            <circle id="Ellipse_399" data-name="Ellipse 399" class="cls-1" cx="8.537" cy="8.537" r="8.537" transform="translate(.474 .474)"/>
            <path id="Path_5739" data-name="Path 5739" class="cls-2" d="M38.375 38.6a9.011 9.011 0 1 1 9.011-9.011 9.021 9.021 0 0 1-9.011 9.011zm0-17.073a8.062 8.062 0 1 0 8.062 8.062 8.071 8.071 0 0 0-8.062-8.064z" transform="translate(-29.364 -20.576)"/>
        </g>
        <g id="Group_5107" data-name="Group 5107" transform="translate(27.004 61.362)">
            <path id="Path_5727" data-name="Path 5727" class="cls-1" d="M27.864 64.076h20.867V78.12H27.864z" transform="translate(-27.39 -63.491)"/>
            <path id="Path_5740" data-name="Path 5740" class="cls-2" d="M49.18 78.79H27.364V63.576H49.18zm-20.867-1.17h19.918V64.746H28.313z" transform="translate(-27.364 -63.576)"/>
        </g>
        <g id="Group_5108" data-name="Group 5108" transform="translate(20.364 39.546)">
            <path id="Path_5728" data-name="Path 5728" class="cls-1" d="M55.01 64.789V49.613a8.537 8.537 0 0 0-8.537-8.537H44.5a12.3 12.3 0 0 1-13.127 0H29.4a8.536 8.536 0 0 0-8.537 8.537v11.382a3.794 3.794 0 0 0 3.794 3.794z" transform="translate(-20.39 -40.602)"/>
            <path id="Path_5741" data-name="Path 5741" class="cls-2" d="M55.459 65.237H24.632a4.272 4.272 0 0 1-4.268-4.268V49.587a9.021 9.021 0 0 1 9.011-9.011h2.109l.116.073a11.889 11.889 0 0 0 12.622 0l.116-.073h2.11a9.021 9.021 0 0 1 9.011 9.011zM29.375 41.525a8.071 8.071 0 0 0-8.062 8.062v11.382a3.323 3.323 0 0 0 3.32 3.32H54.51v-14.7a8.071 8.071 0 0 0-8.062-8.062h-1.837a12.842 12.842 0 0 1-13.4 0z" transform="translate(-20.364 -40.576)"/>
        </g>
        <g id="Group_5109" data-name="Group 5109" transform="translate(50.716 42.329)">
            <path id="Path_5730" data-name="Path 5730" d="M65.195 77.274A19.8 19.8 0 0 1 52.864 59.1V47.87a34.211 34.211 0 0 0 12.331-3.794 34.206 34.206 0 0 0 12.33 3.794V59.1a19.8 19.8 0 0 1-12.33 18.174z" transform="translate(-52.39 -43.539)" style="fill:#ffc84a"/>
            <path id="Path_5742" data-name="Path 5742" class="cls-2" d="m65.169 77.757-.178-.073a20.223 20.223 0 0 1-12.627-18.605V47.416l.423-.046a33.6 33.6 0 0 0 12.16-3.741l.222-.119.223.119a33.587 33.587 0 0 0 12.16 3.741l.422.046v11.659a20.226 20.226 0 0 1-12.626 18.609zM53.313 48.264v10.811a19.275 19.275 0 0 0 11.856 17.657 19.275 19.275 0 0 0 11.856-17.66V48.264a34.523 34.523 0 0 1-11.856-3.681 34.536 34.536 0 0 1-11.856 3.681z" transform="translate(-52.364 -43.51)"/>
        </g>
        <path id="Path_5733" data-name="Path 5733" class="cls-2" d="M37.864 47.076h1.9v1.9h-1.9z" transform="translate(-.901 -1.364)"/>
        <g id="Path_5735" data-name="Path 5735" transform="translate(54.551 51.742)">
            <path id="Path_5743" data-name="Path 5743" d="M62.995 65.936a1.242 1.242 0 0 1-.884-.366l-4.661-4.661-.335-.335.335-.336 1.1-1.1.335-.336.336.336L63 62.919l8.433-8.441.335-.337.336.337 1.1 1.1.335.336-.335.335-9.324 9.321a1.244 1.244 0 0 1-.885.366z" transform="translate(-56.443 -53.47)" style="fill:#6e748b"/>
            <path id="Path_5744" data-name="Path 5744" class="cls-2" d="m71.73 54.776-8.768 8.778-4.112-4.117-1.1 1.1 4.66 4.66a.776.776 0 0 0 1.1 0l9.321-9.321-1.1-1.1m0-1.342.671.672 1.1 1.1.67.671-.671.671-9.321 9.321a1.727 1.727 0 0 1-2.44 0l-4.66-4.661-.672-.671.672-.671 1.1-1.1.672-.671.671.672 3.44 3.445 8.1-8.106z" transform="translate(-56.407 -53.434)"/>
        </g>
        <path id="Path_5745" data-name="Path 5745" class="cls-2" d="M37.444 66.516c-4.591 0-8.975-.381-9.283-.409l.084-.945c.126.009 12.744 1.109 17.6-.386a1.8 1.8 0 0 0 1.037-.994 6.056 6.056 0 0 0 .486-3.216l-.028-.091a2.561 2.561 0 0 0-2-1.981c-3.361-.633-8.723-.365-13.032-.153-1.781.089-3.3.16-4.441.162v-.949c1.07-.019 2.622-.073 4.391-.16 4.359-.216 9.785-.484 13.26.169a3.508 3.508 0 0 1 2.74 2.68 6.8 6.8 0 0 1-.435 3.767 2.8 2.8 0 0 1-1.7 1.673 33.608 33.608 0 0 1-8.679.833z" transform="translate(-.386 -1.883)"/>
        <g id="Group_5110" data-name="Group 5110" transform="translate(23.223 39.546)">
            <path id="Path_5738" data-name="Path 5738" d="M42.841 64.789h-7.588L24 43.144a8.459 8.459 0 0 1 5.558-2.068h.949z" transform="translate(-23.41 -40.602)" style="fill:#e63f34"/>
            <path id="Path_5746" data-name="Path 5746" d="M43.591 65.237h-8.658L23.378 43l.283-.245a8.935 8.935 0 0 1 5.852-2.183h1.253zm-8.082-.949h6.519L30.19 41.525h-.676a7.982 7.982 0 0 0-4.945 1.715z" transform="translate(-23.378 -40.576)" style="fill:#1e2e59"/>
        </g>
    </g>
</svg>
