<svg xmlns="http://www.w3.org/2000/svg" width="50.451" height="56">
    <defs>
        <style>
            .cls-2{fill:#323c6b}.cls-5{fill:#586179}.cls-6{fill:#fff}
        </style>
    </defs>
    <g id="fine" transform="translate(-23.737 -21.096)">
        <g id="Group_5163" data-name="Group 5163" transform="translate(23.737 21.096)">
            <g id="Path_5807" data-name="Path 5807">
                <path id="Path_5816" data-name="Path 5816" d="M73.723 76.618H24.237V21.224l.727.425 5.821 3.4 5.821-3.4.244-.142.243.142 5.821 3.4 5.821-3.4.244-.142.243.142 5.821 3.4 5.822-3.4.243-.142.243.142 5.822 3.4 5.827-3.4.726-.425v55.394z" transform="translate(-23.754 -21.1)" style="fill:#ffbb32"/>
                <path id="Path_5817" data-name="Path 5817" class="cls-2" d="M73.223 76.13V22.062l-6.064 3.545-6.065-3.545-6.065 3.545-6.064-3.545-6.065 3.545-6.064-3.545-6.065 3.545-6.071-3.545V76.13h48.52m0 .966H24.7a.966.966 0 0 1-.966-.966V22.062a.965.965 0 0 1 1.453-.833l5.578 3.261 5.578-3.261a.963.963 0 0 1 .974 0l5.583 3.26 5.578-3.261a.963.963 0 0 1 .974 0l5.578 3.261 5.578-3.261a.965.965 0 0 1 .975 0l5.578 3.261 5.577-3.261a.966.966 0 0 1 1.453.833V76.13a.966.966 0 0 1-.968.97z" transform="translate(-23.737 -21.096)"/>
            </g>
        </g>
        <g id="Group_5164" data-name="Group 5164" transform="translate(48.963 22.062)">
            <path id="Path_5808" data-name="Path 5808" d="m74.124 22.1-6.065 3.545-6.066-3.545-6.065 3.545-6.064-3.545v54.065h24.26z" transform="translate(-49.864 -22.096)" style="fill:#f99b2b"/>
        </g>
        <g id="Group_5168" data-name="Group 5168" transform="translate(30.008 30.058)">
            <path id="Path_5809" data-name="Path 5809" d="M38.573 30.878h-6.806v19.934h3.948V44.49h2.858a6.807 6.807 0 0 0 0-13.614zm0 9.664h-2.858v-5.717h2.858a2.858 2.858 0 1 1 0 5.717z" transform="translate(-31.285 -30.395)" style="fill:#dd2725"/>
            <path id="Path_5818" data-name="Path 5818" class="cls-2" d="M35.7 51.278h-3.949a.482.482 0 0 1-.483-.483V30.861a.482.482 0 0 1 .483-.483h6.809a7.289 7.289 0 0 1 0 14.577h-2.379v5.839a.482.482 0 0 1-.481.484zm-3.464-.966h2.982v-5.839a.483.483 0 0 1 .483-.483h2.858a6.324 6.324 0 0 0 0-12.648h-6.325zm6.322-9.3H35.7a.483.483 0 0 1-.483-.483v-5.721a.482.482 0 0 1 .483-.483h2.858a3.341 3.341 0 1 1 0 6.682zm-2.375-.966h2.375a2.376 2.376 0 1 0 0-4.751h-2.377z" transform="translate(-31.268 -30.378)"/>
        </g>
        <g id="Group_5165" data-name="Group 5165" transform="translate(31.912 58.723)">
            <g id="Group_5169" data-name="Group 5169">
                <path id="Path_5810" data-name="Path 5810" class="cls-5" d="M32.453 70.715v-10.4h7.628v2.338h-4.942v1.621h4.832v2.338h-4.832v4.1h-2.686z" transform="translate(-32.213 -60.076)"/>
                <path id="Path_5819" data-name="Path 5819" class="cls-2" d="M35.13 70.947h-2.681a.245.245 0 0 1-.245-.241v-10.4a.241.241 0 0 1 .241-.241h7.628a.242.242 0 0 1 .241.241v2.338a.241.241 0 0 1-.241.241h-4.7v1.138h4.591a.241.241 0 0 1 .241.241v2.338a.241.241 0 0 1-.241.241h-4.592v3.858a.241.241 0 0 1-.242.246zm-2.444-.483h2.2v-3.858a.241.241 0 0 1 .241-.241h4.591v-1.856H35.13a.241.241 0 0 1-.241-.241v-1.621a.242.242 0 0 1 .241-.241h4.7V60.55h-7.143z" transform="translate(-32.204 -60.067)"/>
            </g>
            <g id="Group_5170" data-name="Group 5170" transform="translate(9.072)">
                <path id="Path_5811" data-name="Path 5811" class="cls-5" d="M41.849 70.715v-10.4h2.681v10.4z" transform="translate(-41.609 -60.076)"/>
                <path id="Path_5820" data-name="Path 5820" class="cls-2" d="M44.522 70.947h-2.68a.241.241 0 0 1-.241-.241v-10.4a.241.241 0 0 1 .241-.241h2.68a.241.241 0 0 1 .241.241v10.4a.241.241 0 0 1-.241.241zm-2.439-.483h2.2V60.55h-2.2z" transform="translate(-41.6 -60.067)"/>
            </g>
            <g id="Group_5171" data-name="Group 5171" transform="translate(13.622)">
                <path id="Path_5812" data-name="Path 5812" class="cls-5" d="m53.64 70.715-4.4-6.017v6.017h-2.677v-10.4h2.759l4.209 5.721v-5.719h2.7v10.4z" transform="translate(-46.322 -60.076)"/>
                <path id="Path_5821" data-name="Path 5821" class="cls-2" d="M56.219 70.947h-2.586a.241.241 0 0 1-.2-.1l-3.96-5.42v5.278a.241.241 0 0 1-.241.241h-2.678a.241.241 0 0 1-.241-.241v-10.4a.242.242 0 0 1 .241-.241h2.759a.242.242 0 0 1 .2.1l3.772 5.128v-4.984a.243.243 0 0 1 .241-.241h2.7a.242.242 0 0 1 .241.241v10.4a.241.241 0 0 1-.248.239zm-2.464-.483h2.223V60.55h-2.214v5.479a.239.239 0 0 1-.166.229.235.235 0 0 1-.269-.085l-4.137-5.623H46.8v9.915H49v-5.776a.242.242 0 0 1 .436-.143z" transform="translate(-46.313 -60.067)"/>
            </g>
            <g id="Group_5172" data-name="Group 5172" transform="translate(25.158)">
                <path id="Path_5813" data-name="Path 5813" class="cls-5" d="M58.51 70.715v-10.4h7.628v2.338H61.2v1.621h4.828v2.338H61.2v1.761h4.942v2.338z" transform="translate(-58.27 -60.076)"/>
                <path id="Path_5822" data-name="Path 5822" class="cls-2" d="M66.129 70.947H58.5a.241.241 0 0 1-.241-.241v-10.4a.242.242 0 0 1 .241-.241h7.627a.242.242 0 0 1 .241.241v2.338a.241.241 0 0 1-.241.241h-4.7v1.138h4.586a.241.241 0 0 1 .241.241v2.338a.241.241 0 0 1-.241.241h-4.584v1.278h4.7a.241.241 0 0 1 .241.241V70.7a.241.241 0 0 1-.241.247zm-7.385-.483h7.144v-1.855h-4.7a.241.241 0 0 1-.241-.241v-1.762a.241.241 0 0 1 .241-.241h4.586v-1.856h-4.587a.241.241 0 0 1-.241-.241v-1.621a.242.242 0 0 1 .241-.241h4.7V60.55h-7.143z" transform="translate(-58.261 -60.067)"/>
            </g>
        </g>
        <g id="Group_5166" data-name="Group 5166" transform="translate(55.766 34.707)">
            <g id="Group_5173" data-name="Group 5173">
                <path id="Path_5814" data-name="Path 5814" class="cls-6" d="M57.41 35.693h9.69v3.948h-9.69z" transform="translate(-56.927 -35.21)"/>
                <path id="Path_5823" data-name="Path 5823" class="cls-2" d="M67.082 40.107h-9.689a.483.483 0 0 1-.483-.483v-3.948a.483.483 0 0 1 .483-.483h9.689a.482.482 0 0 1 .483.483v3.948a.482.482 0 0 1-.483.483zm-9.206-.966H66.6v-2.982h-8.724z" transform="translate(-56.91 -35.193)"/>
            </g>
        </g>
        <g id="Group_5167" data-name="Group 5167" transform="translate(58.939 41.394)">
            <g id="Group_5174" data-name="Group 5174">
                <path id="Path_5815" data-name="Path 5815" class="cls-6" d="M60.7 42.619h6.516v3.948H60.7z" transform="translate(-60.213 -42.136)"/>
                <path id="Path_5824" data-name="Path 5824" class="cls-2" d="M67.2 47.033h-6.521a.483.483 0 0 1-.483-.483V42.6a.483.483 0 0 1 .483-.483H67.2a.482.482 0 0 1 .483.483v3.95a.482.482 0 0 1-.483.483zm-6.034-.966h5.551v-2.982h-5.555z" transform="translate(-60.196 -42.119)"/>
            </g>
        </g>
    </g>
</svg>
