<svg xmlns="http://www.w3.org/2000/svg" width="237.652" height="40">
    <g data-name="Group 5133">
        <g data-name="Group 988">
            <path data-name="Path 3684" d="M-265.471-41.429a1.934 1.934 0 0 0 .486 1.4 1.713 1.713 0 0 0 1.3.506 1.713 1.713 0 0 0 1.3-.506 1.934 1.934 0 0 0 .486-1.4v-23.846h5.385a1.9 1.9 0 0 0 1.255-.4 1.542 1.542 0 0 0 .486-1.255 1.542 1.542 0 0 0-.486-1.255 1.9 1.9 0 0 0-1.255-.4h-14.332a1.9 1.9 0 0 0-1.255.4 1.541 1.541 0 0 0-.486 1.255 1.541 1.541 0 0 0 .486 1.255 1.9 1.9 0 0 0 1.255.4h5.385zm25.02 0a1.934 1.934 0 0 0 .486 1.4 1.713 1.713 0 0 0 1.3.506 1.712 1.712 0 0 0 1.3-.506 1.933 1.933 0 0 0 .486-1.4v-11.943a9.224 9.224 0 0 0-.721-3.828 7.449 7.449 0 0 0-1.8-2.53 6.7 6.7 0 0 0-2.409-1.4 8.336 8.336 0 0 0-2.571-.425 8.361 8.361 0 0 0-3.2.648 6.621 6.621 0 0 0-2.753 2.186l-.081-.081v-10.319a1.933 1.933 0 0 0-.486-1.4 1.713 1.713 0 0 0-1.3-.506 1.712 1.712 0 0 0-1.3.506 1.934 1.934 0 0 0-.486 1.4v27.692a1.934 1.934 0 0 0 .486 1.4 1.712 1.712 0 0 0 1.3.506 1.713 1.713 0 0 0 1.3-.506 1.933 1.933 0 0 0 .486-1.4V-53.17a6.007 6.007 0 0 1 .445-2.429 4.651 4.651 0 0 1 1.154-1.64 4.654 4.654 0 0 1 1.6-.931 5.491 5.491 0 0 1 1.781-.3 5.491 5.491 0 0 1 1.781.3 4.655 4.655 0 0 1 1.6.931A4.651 4.651 0 0 1-240.9-55.6a6.007 6.007 0 0 1 .445 2.429zm22.308-7.733a2 2 0 0 0 1.579-.486 2.163 2.163 0 0 0 .4-1.417 12.025 12.025 0 0 0-.628-3.826 10.883 10.883 0 0 0-1.8-3.36 9 9 0 0 0-2.915-2.389 8.342 8.342 0 0 0-3.927-.911 9.059 9.059 0 0 0-4.069.891 9.006 9.006 0 0 0-3.036 2.409 11.071 11.071 0 0 0-1.9 3.522 13.164 13.164 0 0 0-.668 4.19 14.957 14.957 0 0 0 .567 4.13 10.1 10.1 0 0 0 1.781 3.522 8.756 8.756 0 0 0 3.077 2.449 10.045 10.045 0 0 0 4.453.911 11.158 11.158 0 0 0 3.117-.445 13.99 13.99 0 0 0 2.773-1.113 8.186 8.186 0 0 0 1.984-1.437 2.157 2.157 0 0 0 .749-1.417 1.59 1.59 0 0 0-.4-1.174 1.238 1.238 0 0 0-.891-.4 1.674 1.674 0 0 0-1.032.445q-.547.445-1.336.992a9.816 9.816 0 0 1-1.964 1.012 8.081 8.081 0 0 1-2.956.466 6.693 6.693 0 0 1-2.672-.506 5.887 5.887 0 0 1-2-1.4 5.943 5.943 0 0 1-1.255-2.085 7.611 7.611 0 0 1-.425-2.571zm-13.4-2.672a10.12 10.12 0 0 1 .385-2.429 6.388 6.388 0 0 1 1.073-2.166 5.482 5.482 0 0 1 1.862-1.538 5.434 5.434 0 0 1 2.794-.506 5.167 5.167 0 0 1 2.551.607 5.394 5.394 0 0 1 1.781 1.559 6.912 6.912 0 0 1 1.032 2.126 8.312 8.312 0 0 1 .344 2.348zm24.453-17a8.83 8.83 0 0 0-3.563.688 8.767 8.767 0 0 0-2.672 1.761A7.769 7.769 0 0 0-215-64a6.285 6.285 0 0 0-.587 2.571 6.252 6.252 0 0 0 1.012 3.745 8 8 0 0 0 2.53 2.267 16.929 16.929 0 0 0 3.3 1.437q1.781.567 3.3 1.215a8.325 8.325 0 0 1 2.53 1.619 3.529 3.529 0 0 1 1.012 2.672 6.261 6.261 0 0 1-.4 2.267 5.59 5.59 0 0 1-1.174 1.862 5.513 5.513 0 0 1-1.862 1.275 6.247 6.247 0 0 1-2.47.466 7.436 7.436 0 0 1-2.389-.344 11.851 11.851 0 0 1-1.8-.769q-.789-.425-1.356-.769a2.008 2.008 0 0 0-1.012-.344 1.266 1.266 0 0 0-1.134.547 2.245 2.245 0 0 0-.364 1.275 1.843 1.843 0 0 0 .708 1.4 6.4 6.4 0 0 0 1.862 1.093 13.35 13.35 0 0 0 2.591.729 15.82 15.82 0 0 0 2.854.263 10.892 10.892 0 0 0 4.17-.749 9.051 9.051 0 0 0 3.057-2 8.536 8.536 0 0 0 1.883-2.915 9.386 9.386 0 0 0 .648-3.441 6.793 6.793 0 0 0-1.012-3.907 8.066 8.066 0 0 0-2.53-2.389 15.549 15.549 0 0 0-3.3-1.478q-1.781-.567-3.3-1.215a9.061 9.061 0 0 1-2.53-1.559 3.18 3.18 0 0 1-1.012-2.49 3.741 3.741 0 0 1 1.3-2.955 4.8 4.8 0 0 1 3.279-1.134 6.849 6.849 0 0 1 2.166.283 6.951 6.951 0 0 1 1.417.648q.587.364 1.032.648a1.918 1.918 0 0 0 1.053.283 1.437 1.437 0 0 0 1.113-.466 1.594 1.594 0 0 0 .415-1.118 1.885 1.885 0 0 0-.607-1.316 5.1 5.1 0 0 0-1.6-1.073 10.926 10.926 0 0 0-2.267-.709 12.89 12.89 0 0 0-2.616-.263zm14.13 9.19a1.934 1.934 0 0 0-.486-1.4 1.713 1.713 0 0 0-1.3-.506 1.713 1.713 0 0 0-1.3.506 1.933 1.933 0 0 0-.486 1.4v18.219a1.934 1.934 0 0 0 .486 1.4 1.713 1.713 0 0 0 1.3.506 1.713 1.713 0 0 0 1.3-.506 1.934 1.934 0 0 0 .486-1.4zm-3.968-7a2.116 2.116 0 0 0 .628 1.559 2.116 2.116 0 0 0 1.559.628 2.116 2.116 0 0 0 1.559-.628 2.116 2.116 0 0 0 .628-1.559 2.116 2.116 0 0 0-.628-1.559 2.116 2.116 0 0 0-1.559-.628 2.116 2.116 0 0 0-1.559.628 2.116 2.116 0 0 0-.628 1.551zm19.8 25.223a1.934 1.934 0 0 0 .486 1.4 1.713 1.713 0 0 0 1.3.506 1.713 1.713 0 0 0 1.3-.506 1.934 1.934 0 0 0 .486-1.4v-12.073a5.269 5.269 0 0 1 1.194-3.644 4.3 4.3 0 0 1 3.381-1.336 4.363 4.363 0 0 1 3.4 1.336 5.213 5.213 0 0 1 1.215 3.644v12.065a1.933 1.933 0 0 0 .486 1.4 1.713 1.713 0 0 0 1.3.506 1.713 1.713 0 0 0 1.3-.506 1.934 1.934 0 0 0 .486-1.4v-11.943a9.223 9.223 0 0 0-.709-3.826 7.448 7.448 0 0 0-1.8-2.53 6.7 6.7 0 0 0-2.409-1.4 8.336 8.336 0 0 0-2.571-.425 7.156 7.156 0 0 0-3.887.972 9.442 9.442 0 0 0-2.713 2.672 7.068 7.068 0 0 0-2.773-2.854 6.884 6.884 0 0 0-3.138-.789 7.259 7.259 0 0 0-2.085.263 6.852 6.852 0 0 0-1.518.648 4.659 4.659 0 0 0-1.073.85q-.425.466-.749.87l-.081-.081v-.648a1.934 1.934 0 0 0-.486-1.4 1.713 1.713 0 0 0-1.3-.506 1.712 1.712 0 0 0-1.3.506 1.933 1.933 0 0 0-.486 1.4v18.219a1.933 1.933 0 0 0 .486 1.4 1.712 1.712 0 0 0 1.3.506 1.713 1.713 0 0 0 1.3-.506 1.934 1.934 0 0 0 .486-1.4v-12.063a5.269 5.269 0 0 1 1.194-3.644 4.3 4.3 0 0 1 3.381-1.336 4.363 4.363 0 0 1 3.4 1.336 5.213 5.213 0 0 1 1.215 3.644zm22.753-9.109a13.026 13.026 0 0 1 .3-2.773 8.138 8.138 0 0 1 1.012-2.551 5.845 5.845 0 0 1 1.842-1.883 4.985 4.985 0 0 1 2.753-.729 4.961 4.961 0 0 1 2.773.729 5.924 5.924 0 0 1 1.822 1.883 8.138 8.138 0 0 1 1.012 2.551 13.025 13.025 0 0 1 .3 2.773 13.024 13.024 0 0 1-.3 2.773 8.138 8.138 0 0 1-1.012 2.551 5.923 5.923 0 0 1-1.822 1.883 4.961 4.961 0 0 1-2.773.729 4.985 4.985 0 0 1-2.753-.729 5.845 5.845 0 0 1-1.842-1.883 8.138 8.138 0 0 1-1.012-2.551 13.025 13.025 0 0 1-.302-2.781zm-3.2 17.611a1.934 1.934 0 0 0 .486 1.4 1.713 1.713 0 0 0 1.3.506 1.712 1.712 0 0 0 1.3-.506 1.933 1.933 0 0 0 .486-1.4v-9.514h.081a9.574 9.574 0 0 0 .891 1.012 6.132 6.132 0 0 0 1.255.951 7.214 7.214 0 0 0 1.64.688 7.048 7.048 0 0 0 1.964.263 8.1 8.1 0 0 0 3.887-.911 9.021 9.021 0 0 0 2.895-2.449 10.875 10.875 0 0 0 1.8-3.522 14.029 14.029 0 0 0 .607-4.13 14.029 14.029 0 0 0-.607-4.13 10.875 10.875 0 0 0-1.8-3.522 9.021 9.021 0 0 0-2.895-2.449 8.1 8.1 0 0 0-3.887-.911q-4.211 0-5.749 2.955h-.081v-1.053a1.933 1.933 0 0 0-.486-1.4 1.712 1.712 0 0 0-1.3-.506 1.713 1.713 0 0 0-1.3.506 1.934 1.934 0 0 0-.486 1.4zm24.291-36.194a1.933 1.933 0 0 0-.486-1.4 1.712 1.712 0 0 0-1.3-.506 1.713 1.713 0 0 0-1.3.506 1.934 1.934 0 0 0-.486 1.4v27.692a1.934 1.934 0 0 0 .486 1.4 1.713 1.713 0 0 0 1.3.506 1.712 1.712 0 0 0 1.3-.506 1.933 1.933 0 0 0 .486-1.4zm7.976 28.583-2.267 6.032q-.324.931-.425 1.3a2.574 2.574 0 0 0-.1.688 1.326 1.326 0 0 0 .506 1.093 1.742 1.742 0 0 0 1.113.4 1.6 1.6 0 0 0 1.113-.385 2.305 2.305 0 0 0 .628-.951l8.988-25.709q.324-.931.4-1.3a3.178 3.178 0 0 0 .081-.688 1.326 1.326 0 0 0-.506-1.093 1.742 1.742 0 0 0-1.113-.4 1.522 1.522 0 0 0-1.093.385 2.4 2.4 0 0 0-.607.951l-4.858 14.777h-.081l-4.939-14.777a2.221 2.221 0 0 0-.648-.951 1.672 1.672 0 0 0-1.134-.385 1.742 1.742 0 0 0-1.113.4 1.326 1.326 0 0 0-.506 1.093 3.18 3.18 0 0 0 .081.688q.081.364.4 1.3z" transform="translate(272.596 71.024)" style="fill:#f9ac19"/>
            <path data-name="Path 3685" d="M207.2-66.935a1.933 1.933 0 0 0-.486-1.4 1.712 1.712 0 0 0-1.3-.506 1.713 1.713 0 0 0-1.3.506 1.934 1.934 0 0 0-.486 1.4v25.223a2.16 2.16 0 0 0 .445 1.377 1.742 1.742 0 0 0 1.457.567h9.271a1.9 1.9 0 0 0 1.255-.4 1.541 1.541 0 0 0 .486-1.255 1.541 1.541 0 0 0-.486-1.255 1.9 1.9 0 0 0-1.255-.4H207.2zm26.235 17.773a2 2 0 0 0 1.579-.486 2.163 2.163 0 0 0 .4-1.417 12.026 12.026 0 0 0-.627-3.826 10.884 10.884 0 0 0-1.8-3.36 9 9 0 0 0-2.915-2.389 8.342 8.342 0 0 0-3.927-.911 9.058 9.058 0 0 0-4.069.891 9.006 9.006 0 0 0-3.036 2.409 11.07 11.07 0 0 0-1.9 3.522 13.163 13.163 0 0 0-.668 4.19 14.958 14.958 0 0 0 .567 4.13 10.1 10.1 0 0 0 1.781 3.522 8.757 8.757 0 0 0 3.077 2.449 10.045 10.045 0 0 0 4.453.911 11.158 11.158 0 0 0 3.117-.445 13.989 13.989 0 0 0 2.773-1.113 8.184 8.184 0 0 0 1.984-1.437 2.157 2.157 0 0 0 .749-1.417 1.59 1.59 0 0 0-.4-1.174 1.238 1.238 0 0 0-.891-.4 1.674 1.674 0 0 0-1.032.445q-.547.445-1.336.992a9.816 9.816 0 0 1-1.964 1.012 8.081 8.081 0 0 1-2.955.466 6.692 6.692 0 0 1-2.672-.506 5.887 5.887 0 0 1-2-1.4 5.945 5.945 0 0 1-1.255-2.085 7.612 7.612 0 0 1-.425-2.571zm-13.4-2.672a10.121 10.121 0 0 1 .385-2.429 6.387 6.387 0 0 1 1.073-2.166 5.481 5.481 0 0 1 1.862-1.538 5.433 5.433 0 0 1 2.794-.506 5.167 5.167 0 0 1 2.551.607 5.394 5.394 0 0 1 1.781 1.559 6.913 6.913 0 0 1 1.032 2.126 8.313 8.313 0 0 1 .344 2.348zm34.818-7.976a1.528 1.528 0 0 0-.567-1.336 1.894 1.894 0 0 0-1.093-.4 2.264 2.264 0 0 0-1.316.4 1.506 1.506 0 0 0-.587 1.336v.972h-.081a6.2 6.2 0 0 0-.931-.972 7 7 0 0 0-1.3-.87 8.361 8.361 0 0 0-1.559-.628 5.953 5.953 0 0 0-1.68-.243 8.642 8.642 0 0 0-4.028.911 9.032 9.032 0 0 0-2.976 2.449 10.96 10.96 0 0 0-1.842 3.522 13.61 13.61 0 0 0-.628 4.13 13.61 13.61 0 0 0 .628 4.13 10.96 10.96 0 0 0 1.842 3.522 9.032 9.032 0 0 0 2.976 2.449 8.642 8.642 0 0 0 4.028.911 6.288 6.288 0 0 0 3.239-.83 6.03 6.03 0 0 0 2.232-2.243h.081v1.862a9.975 9.975 0 0 1-.283 2.348 6.188 6.188 0 0 1-.951 2.126 5.09 5.09 0 0 1-1.8 1.559 5.953 5.953 0 0 1-2.834.607 7.325 7.325 0 0 1-2.51-.385 10.863 10.863 0 0 1-1.862-.87q-.81-.486-1.437-.87a2.355 2.355 0 0 0-1.235-.385 1.249 1.249 0 0 0-1.174.547 2.16 2.16 0 0 0-.324 1.113 1.912 1.912 0 0 0 .769 1.377 8.094 8.094 0 0 0 1.984 1.255 14.788 14.788 0 0 0 2.672.931 11.666 11.666 0 0 0 2.834.364 10.809 10.809 0 0 0 3.988-.709 8.484 8.484 0 0 0 3.077-2.045 9.108 9.108 0 0 0 1.964-3.239 12.558 12.558 0 0 0 .688-4.291zm-15.02 9.271a13.021 13.021 0 0 1 .3-2.773 8.136 8.136 0 0 1 1.012-2.551 5.846 5.846 0 0 1 1.842-1.883 4.985 4.985 0 0 1 2.753-.729 4.961 4.961 0 0 1 2.773.729 5.924 5.924 0 0 1 1.822 1.883 8.138 8.138 0 0 1 1.012 2.551 13.025 13.025 0 0 1 .3 2.773 13.025 13.025 0 0 1-.3 2.773 8.138 8.138 0 0 1-1.012 2.551 5.924 5.924 0 0 1-1.822 1.883 4.961 4.961 0 0 1-2.773.729 4.985 4.985 0 0 1-2.753-.729 5.846 5.846 0 0 1-1.842-1.883 8.136 8.136 0 0 1-1.012-2.551 13.021 13.021 0 0 1-.3-2.772zm36.073-9.271a1.528 1.528 0 0 0-.567-1.336 1.894 1.894 0 0 0-1.093-.4 1.855 1.855 0 0 0-1.113.4 1.553 1.553 0 0 0-.547 1.336v1.134h-.081a10.186 10.186 0 0 0-2.632-2.126 6.676 6.676 0 0 0-3.239-.749 8.642 8.642 0 0 0-4.028.911 9.032 9.032 0 0 0-2.976 2.449 10.961 10.961 0 0 0-1.842 3.522 13.609 13.609 0 0 0-.628 4.13 13.609 13.609 0 0 0 .628 4.13 10.961 10.961 0 0 0 1.842 3.522 9.032 9.032 0 0 0 2.976 2.449 8.642 8.642 0 0 0 4.028.911 6.724 6.724 0 0 0 3.219-.789 7.793 7.793 0 0 0 2.652-2.449h.081v1.5a1.553 1.553 0 0 0 .547 1.336 1.855 1.855 0 0 0 1.113.4 1.894 1.894 0 0 0 1.093-.4 1.528 1.528 0 0 0 .567-1.336zm-15.182 9.271a13.025 13.025 0 0 1 .3-2.773 8.139 8.139 0 0 1 1.012-2.551 5.846 5.846 0 0 1 1.842-1.883 4.985 4.985 0 0 1 2.753-.729 4.961 4.961 0 0 1 2.773.729 5.923 5.923 0 0 1 1.822 1.883 8.137 8.137 0 0 1 1.012 2.551 13.027 13.027 0 0 1 .3 2.773 13.027 13.027 0 0 1-.3 2.773 8.137 8.137 0 0 1-1.012 2.551 5.923 5.923 0 0 1-1.822 1.883 4.961 4.961 0 0 1-2.773.729 4.985 4.985 0 0 1-2.753-.729 5.845 5.845 0 0 1-1.842-1.883 8.139 8.139 0 0 1-1.012-2.551 13.025 13.025 0 0 1-.3-2.772zm21.822-18.583a1.934 1.934 0 0 0-.486-1.4 1.713 1.713 0 0 0-1.3-.506 1.713 1.713 0 0 0-1.3.506 1.934 1.934 0 0 0-.486 1.4v27.692a1.933 1.933 0 0 0 .486 1.4 1.713 1.713 0 0 0 1.3.506 1.713 1.713 0 0 0 1.3-.506 1.934 1.934 0 0 0 .486-1.4z" transform="translate(-44.894 71.024)" style="fill:#fff"/>
        </g>
    </g>
</svg>
