<svg xmlns="http://www.w3.org/2000/svg" width="48" height="56">
    <defs>
        <style>
            .cls-2{fill:#323c6b}
        </style>
    </defs>
    <g id="Group_5250" data-name="Group 5250" transform="translate(-25.801 -21.774)">
        <g id="secure-data" transform="translate(25.801 21.774)">
            <g id="Group_5250-2" data-name="Group 5250-2">
                <g id="Path_5891" data-name="Path 5891" transform="translate(0 5.601)">
                    <path id="Path_5905" data-name="Path 5905" d="M67.653 77.35H26.3V27.939h30.44l.146.144L67.507 38.61l.147.145V77.35zM38.966 48.417v4.1a11.906 11.906 0 0 0 3.659 8.736 9.693 9.693 0 0 0 4.352 2.647 9.7 9.7 0 0 0 4.353-2.653 11.906 11.906 0 0 0 3.659-8.736v-4.1a36.17 36.17 0 0 1-8.012-3.38 34.981 34.981 0 0 1-8.011 3.386z" transform="translate(-25.802 -27.445)" style="fill:#fec13b"/>
                    <path id="Path_5906" data-name="Path 5906" class="cls-2" d="M26.8 28.428V76.85h40.353v-37.9l-10.62-10.522H26.8m20.175 35.964c-1.189 0-8.51-3.493-8.51-11.883v-4.473a34.7 34.7 0 0 0 8.51-3.578 35.8 35.8 0 0 0 8.511 3.578v4.473c0 8.391-7.322 11.883-8.511 11.883M26.8 27.439h29.733a1 1 0 0 1 .705.29l10.62 10.527a.984.984 0 0 1 .292.7v37.9a.993.993 0 0 1-1 .989H26.8a.993.993 0 0 1-1-.989V28.428a.993.993 0 0 1 1-.989zm27.69 21.342a36.675 36.675 0 0 1-7.514-3.181 35.47 35.47 0 0 1-7.513 3.18v3.727a11.427 11.427 0 0 0 3.41 8.285 9.945 9.945 0 0 0 4.1 2.608 9.945 9.945 0 0 0 4.1-2.608 11.427 11.427 0 0 0 3.411-8.285z" transform="translate(-25.801 -27.439)"/>
                </g>
                <g id="Path_5893" data-name="Path 5893" transform="translate(5.65)">
                    <path id="Path_5907" data-name="Path 5907" d="M73.318 71.685h-5.65V38.112L57.34 27.875H31.966v-5.6h41.352v49.41z" transform="translate(-31.467 -21.78)" style="fill:#d2d9dc"/>
                    <path id="Path_5908" data-name="Path 5908" class="cls-2" d="M32.463 22.763v4.612h25.083L68.166 37.9v33.285h4.653V22.763H32.463m0-.989h40.355a.993.993 0 0 1 1 .989v48.422a.993.993 0 0 1-1 .989h-4.652a.993.993 0 0 1-1-.989V38.311l-10.033-9.948h-24.67a.993.993 0 0 1-1-.989v-4.611a.993.993 0 0 1 1-.989z" transform="translate(-31.466 -21.774)"/>
                </g>
                <g id="Path_5900" data-name="Path 5900" transform="translate(30.732 5.378)">
                    <path id="Path_5909" data-name="Path 5909" d="M68.421 37.667H57.114V27.214l.855.79 9.622 8.9z" transform="translate(-56.615 -26.226)" style="fill:#f98315"/>
                    <path id="Path_5910" data-name="Path 5910" class="cls-2" d="m67.233 38.164-9.622-9.736v9.736h9.622m0 .989h-9.622a.992.992 0 0 1-1-.989v-9.736a.989.989 0 0 1 .62-.915 1 1 0 0 1 1.089.223l9.623 9.737a.983.983 0 0 1 .206 1.075 1 1 0 0 1-.916.604z" transform="translate(-56.614 -27.217)"/>
                </g>
                <g id="Path_5902" data-name="Path 5902" transform="translate(7.802 19.597)">
                    <path id="Path_5911" data-name="Path 5911" d="M46.589 70.765a7.521 7.521 0 0 1-2.81-1 18.793 18.793 0 0 1-4.148-3.022 17.587 17.587 0 0 1-5.509-12.976v-6.59l.368-.1a48.447 48.447 0 0 0 11.848-4.917l.25-.145.251.145a49.8 49.8 0 0 0 11.85 4.92l.369.1v6.59a17.587 17.587 0 0 1-5.51 12.976 18.815 18.815 0 0 1-4.148 3.021 7.527 7.527 0 0 1-2.811.998z" transform="translate(-33.624 -41.601)" style="fill:#00c092"/>
                    <path id="Path_5912" data-name="Path 5912" class="cls-2" d="M46.588 42.585a49.112 49.112 0 0 1-11.968 4.967v6.212c0 11.652 10.3 16.5 11.968 16.5s11.97-4.85 11.97-16.5v-6.212a50.656 50.656 0 0 1-11.97-4.968m0-.989a1 1 0 0 1 .5.134 49.328 49.328 0 0 0 11.73 4.871.99.99 0 0 1 .737.954v6.212a18.07 18.07 0 0 1-5.661 13.331c-2.831 2.715-6.061 4.16-7.306 4.16s-4.474-1.445-7.3-4.16a18.066 18.066 0 0 1-5.661-13.331v-6.214a.989.989 0 0 1 .737-.954 47.964 47.964 0 0 0 11.722-4.868 1 1 0 0 1 .502-.13z" transform="translate(-33.623 -41.596)"/>
                </g>
            </g>
        </g>
        <g id="Group_5253" data-name="Group 5253" transform="translate(39.088 50.761)">
            <path id="Path_5901" data-name="Path 5901" d="M42.421 55.463a1.707 1.707 0 0 0-2.318 0 1.5 1.5 0 0 0-.068 2.132c.022.023.044.045.068.067l3.546 3.361a1.7 1.7 0 0 0 2.317 0l7.14-6.776a1.5 1.5 0 0 0 .068-2.132c-.022-.024-.045-.045-.068-.067a1.707 1.707 0 0 0-2.318 0L44.8 57.724z" transform="translate(-39.125 -51.1)" style="fill:#fff"/>
            <path id="Path_5913" data-name="Path 5913" class="cls-2" d="M44.8 61.966a2.189 2.189 0 0 1-1.5-.588l-3.549-3.364-.087-.086a1.993 1.993 0 0 1 .09-2.83 2.215 2.215 0 0 1 3 0l2.046 1.937 5.639-5.35a2.211 2.211 0 0 1 3 0l.088.086a1.99 1.99 0 0 1-.088 2.834l-7.135 6.773a2.2 2.2 0 0 1-1.504.588zM41.26 55.5a1.2 1.2 0 0 0-.819.319 1.01 1.01 0 0 0-.045 1.434l3.595 3.41a1.2 1.2 0 0 0 1.631 0l7.137-6.774a1.011 1.011 0 0 0 .05-1.436 1.222 1.222 0 0 0-1.683-.044l-5.979 5.673a.5.5 0 0 1-.69 0l-2.381-2.26a1.2 1.2 0 0 0-.816-.322z" transform="translate(-39.123 -51.095)"/>
        </g>
        <g id="Group_5252" data-name="Group 5252" transform="translate(39.256 31.464)">
            <path id="Path_5903" data-name="Path 5903" class="cls-2" d="M40.462 31.576h.028a1.165 1.165 0 1 1 0 2.329h-.028a1.165 1.165 0 1 1 0-2.329z" transform="translate(-39.291 -31.575)"/>
            <path id="Path_5904" data-name="Path 5904" class="cls-2" d="M43.84 31.575h8.649a1.165 1.165 0 1 1 0 2.329H43.84a1.165 1.165 0 1 1 0-2.329z" transform="translate(-39.3 -31.575)"/>
        </g>
    </g>
</svg>
