<svg xmlns="http://www.w3.org/2000/svg" width="72.65" height="56">
    <defs>
        <style>
            .cls-1{fill:#f8ae40}.cls-2{fill:#323c6b}.cls-6{fill:#434f66}.cls-7{fill:#e63f34}
        </style>
    </defs>
    <g id="Group_5125" data-name="Group 5125" transform="translate(-17.962 -25.313)">
        <g id="travel" transform="translate(18.294 25.313)">
            <g id="Group_5127" data-name="Group 5127" transform="translate(23.326)">
                <path id="Path_5784" data-name="Path 5784" class="cls-1" d="m45.236 48.671-7.568-20.794 5.671-2.064 13.24 18.731z" transform="translate(-37.164 -25.31)"/>
                <path id="Path_5800" data-name="Path 5800" class="cls-2" d="M45.238 49.177a.5.5 0 0 1-.472-.331L37.2 28.052a.5.5 0 0 1 .3-.645l5.671-2.064a.5.5 0 0 1 .582.182l13.24 18.731a.5.5 0 0 1-.238.762L45.41 49.146a.49.49 0 0 1-.172.031zm-6.924-21 7.225 19.853 10.252-3.73-12.638-17.88z" transform="translate(-37.167 -25.313)"/>
            </g>
            <g id="Group_5128" data-name="Group 5128" transform="translate(3.44 13.292)">
                <path id="Path_5785" data-name="Path 5785" d="M22.213 52.744 75.279 36.2a5.394 5.394 0 0 1 4.051.344l4.494 2.344a4.933 4.933 0 0 1 5.988 2.465c.843 2.062-.388 4.324-2.774 5.1L49.51 58.15l-24.888.265z" transform="translate(-21.709 -35.455)" style="fill:#ffc84a"/>
                <path id="Path_5801" data-name="Path 5801" class="cls-2" d="M24.7 58.921a.589.589 0 0 1-.551-.331l-2.4-5.672a.486.486 0 0 1 .35-.644l52.936-16.54a6 6 0 0 1 4.546.387l4.253 2.224a6.029 6.029 0 0 1 3.76.267 4.809 4.809 0 0 1 2.69 2.582c.956 2.339-.411 4.857-3.113 5.732L49.73 58.625a.662.662 0 0 1-.193.031l-24.827.265zm-1.653-5.875 2.061 4.865 24.311-.26 37.345-11.668a3.384 3.384 0 0 0 2.416-4.456 3.742 3.742 0 0 0-2.093-2.009 4.7 4.7 0 0 0-3.134-.15.667.667 0 0 1-.5-.044l-4.481-2.344a4.665 4.665 0 0 0-3.536-.3z" transform="translate(-21.712 -35.457)"/>
            </g>
            <g id="Group_5129" data-name="Group 5129" transform="translate(0 19.496)">
                <path id="Path_5786" data-name="Path 5786" class="cls-1" d="m22.233 52.709-3.44-9.456 3.781-1.376 7.226 8.076z" transform="translate(-18.289 -41.374)"/>
                <path id="Path_5802" data-name="Path 5802" class="cls-2" d="M22.235 53.215a.5.5 0 0 1-.472-.332l-3.44-9.455a.5.5 0 0 1 .3-.645l3.781-1.376a.5.5 0 0 1 .546.137l7.221 8.076a.5.5 0 0 1-.2.808l-7.561 2.755a.491.491 0 0 1-.175.032zm-2.8-9.659 3.1 8.511 6.393-2.33-6.5-7.269z" transform="translate(-18.292 -41.377)"/>
            </g>
            <g id="Group_5130" data-name="Group 5130" transform="translate(33.567 30.068)">
                <path id="Path_5787" data-name="Path 5787" class="cls-1" d="m46.561 52.32 7.567 20.8 5.672-2.069-1.9-22.86z" transform="translate(-46.057 -47.688)"/>
                <path id="Path_5803" data-name="Path 5803" class="cls-2" d="M54.131 73.621a.5.5 0 0 1-.473-.331L46.091 52.5a.5.5 0 0 1 .3-.645l11.342-4.129a.5.5 0 0 1 .673.431l1.9 22.861a.5.5 0 0 1-.329.514L54.3 73.59a.494.494 0 0 1-.169.031zm-6.924-21 7.224 19.85 4.838-1.76-1.81-21.819z" transform="translate(-46.06 -47.691)"/>
            </g>
            <g id="Group_5125-2" data-name="Group 5125" transform="translate(17.908 17.92)">
                <path id="Path_5791" data-name="Path 5791" class="cls-2" d="M0 .688 1.89 0l.688 1.89-1.89.688z" transform="translate(35.376)"/>
                <path id="Path_5792" data-name="Path 5792" class="cls-2" d="M0 .688 1.89 0l.688 1.89-1.89.688z" transform="translate(31.57 1.31)"/>
                <path id="Path_5793" data-name="Path 5793" class="cls-2" d="M0 .688 1.891 0l.687 1.891-1.89.688z" transform="translate(27.767 2.619)"/>
                <path id="Path_5794" data-name="Path 5794" class="cls-2" d="M0 .688 1.89 0l.688 1.89-1.89.688z" transform="translate(23.962 3.93)"/>
                <path id="Path_5795" data-name="Path 5795" class="cls-2" d="M0 .688 1.89 0l.688 1.891-1.89.688z" transform="translate(20.157 5.238)"/>
                <path id="Path_5796" data-name="Path 5796" class="cls-2" d="M0 .687 1.89 0l.688 1.89-1.89.688z" transform="translate(16.352 6.547)"/>
                <path id="Path_5797" data-name="Path 5797" class="cls-2" d="M0 .688 1.89 0l.688 1.89-1.891.688z" transform="translate(12.548 7.857)"/>
                <path id="Path_5798" data-name="Path 5798" class="cls-2" d="M0 .69 1.89 0l.69 1.89-1.89.69z" transform="translate(8.751 9.153)"/>
                <path id="Path_5799" data-name="Path 5799" d="m31.7 52.384 1.89-.69.689 1.89-1.89.689z" transform="translate(-31.701 -39.707)" style="fill:#0d2348"/>
            </g>
        </g>
        <g id="save-time" transform="translate(17.962 52.982)">
            <circle id="Ellipse_399" data-name="Ellipse 399" cx="10.892" cy="10.892" r="10.892" transform="translate(3.273 3.272)" style="fill:#ebf0f3"/>
            <g id="Group_5092" data-name="Group 5092" transform="translate(3.277 3.279)">
                <g id="Group_5096" data-name="Group 5096" transform="translate(10.206 5.435)">
                    <path id="Path_5687" data-name="Path 5687" class="cls-6" d="M29.6 62.629a.68.68 0 0 1-.681-.681V58.54a.681.681 0 0 1 1.361 0v3.409a.681.681 0 0 1-.68.68z" transform="translate(-28.918 -57.859)"/>
                </g>
                <g id="Group_5097" data-name="Group 5097" transform="translate(11.569 10.205)">
                    <path id="Path_5688" data-name="Path 5688" class="cls-6" d="M35.47 63.1h-4.764a.681.681 0 0 1 0-1.361h4.765a.681.681 0 0 1 0 1.361z" transform="translate(-30.025 -61.735)"/>
                </g>
                <path id="Path_5689" data-name="Path 5689" class="cls-6" d="M29.6 56.159a.68.68 0 0 1-.681-.679v-1.356a.681.681 0 0 1 1.361 0v1.354a.682.682 0 0 1-.679.682z" transform="translate(-18.711 -53.443)"/>
                <path id="Path_5690" data-name="Path 5690" class="cls-6" d="M29.6 71.647a.68.68 0 0 1-.681-.679v-1.361a.681.681 0 0 1 1.361 0v1.361a.681.681 0 0 1-.68.679z" transform="translate(-18.711 -49.871)"/>
                <path id="Path_5691" data-name="Path 5691" class="cls-6" d="M38.151 63.1H36.79a.681.681 0 0 1 0-1.361h1.361a.681.681 0 0 1 0 1.361z" transform="translate(-17.053 -51.53)"/>
                <path id="Path_5692" data-name="Path 5692" class="cls-6" d="M22.659 63.1h-1.353a.681.681 0 0 1 0-1.361h1.354a.681.681 0 0 1 0 1.361z" transform="translate(-20.625 -51.53)"/>
                <path id="Path_5693" data-name="Path 5693" class="cls-6" d="M35.645 69.143a.677.677 0 0 1-.481-.2l-.962-.962a.681.681 0 0 1 .962-.962l.962.962a.681.681 0 0 1-.481 1.162z" transform="translate(-17.537 -50.356)"/>
                <path id="Path_5694" data-name="Path 5694" class="cls-6" d="M24.694 58.192a.677.677 0 0 1-.481-.2l-.962-.962a.681.681 0 0 1 .962-.962l.962.962a.681.681 0 0 1-.481 1.162z" transform="translate(-20.064 -52.882)"/>
                <path id="Path_5695" data-name="Path 5695" class="cls-6" d="M34.684 58.192a.68.68 0 0 1-.684-.68.674.674 0 0 1 .2-.484l.962-.962a.681.681 0 0 1 .962.962l-.962.962a.682.682 0 0 1-.478.202z" transform="translate(-17.539 -52.882)"/>
                <path id="Path_5696" data-name="Path 5696" class="cls-6" d="M23.733 69.143a.681.681 0 0 1-.481-1.162l.962-.962a.681.681 0 0 1 .962.962l-.962.962a.681.681 0 0 1-.481.2z" transform="translate(-20.065 -50.356)"/>
            </g>
            <g id="Group_5098" data-name="Group 5098" transform="translate(12.803 12.803)">
                <circle id="Ellipse_400" data-name="Ellipse 400" class="cls-7" cx="1.361" cy="1.361" r="1.361"/>
            </g>
            <g id="Group_5099" data-name="Group 5099">
                <g id="Group_5131" data-name="Group 5131">
                    <path id="Path_5697" data-name="Path 5697" class="cls-7" d="M31.9 51.779a12.935 12.935 0 1 0 12.932 12.935A12.935 12.935 0 0 0 31.9 51.779zm0 23.145a10.215 10.215 0 1 1 10.212-10.215A10.215 10.215 0 0 1 31.9 74.924z" transform="translate(-17.731 -50.548)"/>
                    <path id="Path_5697-2" data-name="Path 5697" class="cls-2" d="M32.128 52.01a12.935 12.935 0 1 1-12.935 12.935A12.935 12.935 0 0 1 32.128 52.01m0-1.231a14.166 14.166 0 1 0 14.165 14.166 14.181 14.181 0 0 0-14.165-14.166z" transform="translate(-17.962 -50.779)"/>
                </g>
            </g>
        </g>
    </g>
</svg>
