<svg xmlns="http://www.w3.org/2000/svg" width="36" height="24">
    <path data-name="Path 5805" d="M33.434-42.909a6.346 6.346 0 0 1 5.014 2.329 7.854 7.854 0 0 1 2.006 5.266 6.926 6.926 0 0 1-2.407 5.519 7.719 7.719 0 0 1-5.114 2.076 7.725 7.725 0 0 1-5.265-2.38 8.112 8.112 0 0 1-2.557-6.228 15.358 15.358 0 0 1 3.811-10.38q3.811-4.405 7.822-5.013l.8 1.62a18.8 18.8 0 0 0-5.265 3.544q-2.958 2.633-3.159 5.165a8.725 8.725 0 0 1 4.314-1.518zm-20.657 0a6.346 6.346 0 0 1 5.013 2.329 7.854 7.854 0 0 1 2.01 5.266 6.926 6.926 0 0 1-2.407 5.519 7.664 7.664 0 0 1-5.064 2.076A7.851 7.851 0 0 1 7.06-30.1a8.036 8.036 0 0 1-2.607-6.228 15.358 15.358 0 0 1 3.811-10.38q3.811-4.405 7.822-5.013l.8 1.62a18.8 18.8 0 0 0-5.265 3.544q-2.956 2.636-3.157 5.167a8.725 8.725 0 0 1 4.312-1.519z" transform="translate(-4.453 51.719)" style="fill:#fec13b"/>
</svg>
