<svg xmlns="http://www.w3.org/2000/svg" width="21" height="16">
    <path d="M1.313 70.379a.663.663 0 0 1 .656-.667h5.906V65.8a.327.327 0 0 1 .558-.238l5.808 5.963a.674.674 0 0 1 0 .946l-5.808 5.962a.326.326 0 0 1-.558-.238v-3.912H1.969a.663.663 0 0 1-.656-.667v-3.237m-1.313 0v3.238a1.985 1.985 0 0 0 1.969 2h4.594V78.2a1.637 1.637 0 0 0 2.8 1.179l5.812-5.958a2.024 2.024 0 0 0 0-2.833L9.36 64.621a1.637 1.637 0 0 0-2.8 1.179v2.579H1.969a1.988 1.988 0 0 0-1.969 2zM21 78V66a1.985 1.985 0 0 0-1.969-2h-5.414a.5.5 0 0 0-.492.5v.333a.5.5 0 0 0 .492.5h5.414a.663.663 0 0 1 .656.667v12a.663.663 0 0 1-.656.667h-5.414a.5.5 0 0 0-.492.5v.333a.5.5 0 0 0 .492.5h5.414A1.985 1.985 0 0 0 21 78z" transform="translate(0 -64)" style="fill:#292724"/>
</svg>
