<svg width="184" height="56" viewBox="0 0 184 56" fill="none" xmlns="http://www.w3.org/2000/svg">
<g opacity="0.5" clip-path="url(#clip0)">
<path d="M7.78889 28.0152C14.8771 28.0152 20.9876 24.8205 25.1427 18.9225L26.6092 16.9565C29.5423 12.7788 34.1862 10.3213 39.319 10.3213C44.4519 10.3213 49.0959 12.7788 52.0289 16.9565L53.251 18.431C57.4061 24.0832 63.5166 27.5237 70.6048 27.5237C77.693 27.5237 83.8035 24.329 87.9586 18.431L89.4251 16.2193C92.3582 12.0416 97.0021 9.58408 102.135 9.58408C107.268 9.58408 111.912 12.0416 114.845 16.2193L115.578 17.448C119.733 23.1002 125.844 26.5407 132.932 26.5407C140.02 26.5407 146.131 23.346 150.286 17.448L151.019 16.465C153.708 12.2873 158.352 9.82983 163.484 9.82983C168.617 9.82983 173.261 12.2873 176.194 16.465L179.372 21.1343L184.016 17.6938L180.838 13.2703C176.683 7.61809 170.573 4.17762 163.484 4.17762C156.396 4.17762 150.286 7.37235 146.131 13.2703L145.397 14.2533C142.464 18.431 137.82 20.8885 132.687 20.8885C127.555 20.8885 122.911 18.431 119.978 14.2533L119.244 13.0246C115.089 7.37235 108.979 3.93187 101.891 3.93187C94.8024 3.93187 88.6919 7.1266 84.5367 13.0246L83.0702 15.2363C80.1372 19.414 75.4932 21.8715 70.3604 21.8715C65.2276 21.8715 60.5836 19.414 57.6505 15.2363L56.4284 13.7618C52.2733 8.10959 46.1628 4.66912 39.0746 4.66912C31.9865 4.66912 25.876 7.86384 21.7208 13.7618L20.2543 15.7278C17.5657 19.9055 12.9217 22.1172 7.78889 22.1172C2.65608 22.1172 -1.98792 19.6598 -4.92096 15.482L-7.36516 11.7958C-11.5203 6.14361 -17.6308 2.70313 -24.719 2.70313C-31.8071 2.70313 -37.9176 5.89786 -42.0728 11.7958C-45.0058 15.9735 -49.6498 18.431 -54.7826 18.431C-59.9154 18.431 -64.5594 15.9735 -67.4924 11.7958L-69.6922 8.84684C-73.8474 3.19463 -79.9579 -0.24585 -87.046 -0.24585C-94.1342 -0.24585 -100.245 2.94888 -104.4 8.84684L-108.555 14.7448C-111.488 18.9225 -116.132 21.38 -121.265 21.38C-126.398 21.38 -131.042 18.9225 -133.975 14.7448L-136.419 11.3043L-141.063 14.499L-138.619 17.9395C-134.463 23.5917 -128.353 27.0322 -121.265 27.0322C-114.177 27.0322 -108.066 23.8375 -103.911 17.9395L-99.7559 12.2873C-96.8228 8.10959 -92.1788 5.65211 -87.046 5.65211C-81.9132 5.65211 -77.2692 8.10959 -74.3362 12.2873L-72.1364 15.2363C-67.9813 20.8885 -61.8708 24.329 -54.7826 24.329C-47.6944 24.329 -41.5839 21.1342 -37.4288 15.2363C-34.4957 11.0586 -29.8518 8.60109 -24.719 8.60109C-19.5861 8.60109 -14.9422 11.0586 -12.0091 15.2363L-9.56491 18.9225C-5.65421 24.5747 0.700714 28.0152 7.78889 28.0152Z" fill="#242C36" fill-opacity="0.2"/>
<path d="M7.78889 56.0307C14.8771 56.0307 20.9876 52.836 25.1427 46.938L26.6092 44.972C29.5423 40.7943 34.1862 38.3368 39.319 38.3368C44.4519 38.3368 49.0959 40.7943 52.0289 44.972L53.251 46.4465C57.4061 52.0987 63.5166 55.5392 70.6048 55.5392C77.693 55.5392 83.8035 52.3445 87.9586 46.4465L89.1807 44.2348C92.1137 40.057 96.7577 37.5996 101.891 37.5996C107.023 37.5996 111.667 40.057 114.6 44.2348L115.578 45.4635C119.733 51.1157 125.844 54.5562 132.932 54.5562C140.02 54.5562 146.131 51.3615 150.286 45.4635L151.019 44.4805C153.952 40.3028 158.596 37.8453 163.729 37.8453C168.862 37.8453 173.506 40.3028 176.439 44.4805L179.616 48.904L184.016 45.7093L180.838 41.2858C176.683 35.6336 170.573 32.1931 163.484 32.1931C156.396 32.1931 150.286 35.3878 146.131 41.2858L145.397 42.2688C142.464 46.4465 137.82 48.904 132.687 48.904C127.555 48.904 122.911 46.4465 119.978 42.2688L119.244 41.04C115.089 35.3878 108.979 31.9474 101.891 31.9474C94.8024 31.9474 88.6919 35.1421 84.5367 41.04L83.0702 43.2518C80.1372 47.4295 75.4932 49.887 70.3604 49.887C65.2276 49.887 60.5836 47.4295 57.6505 43.2518L56.4284 41.7773C52.2733 36.1251 46.1628 32.6846 39.0746 32.6846C31.9865 32.6846 25.876 35.8793 21.7208 41.7773L20.2543 43.7433C17.3213 47.921 12.6773 50.3785 7.54448 50.3785C2.41165 50.3785 -2.23233 47.921 -5.16537 43.7433L-7.60957 40.057C-11.7647 34.4048 -17.8752 30.9644 -24.9634 30.9644C-32.0516 30.9644 -38.162 34.1591 -42.3172 40.057C-45.2502 44.2348 -49.8942 46.6922 -55.027 46.6922C-60.1599 46.6922 -64.8038 44.2348 -67.7369 40.057L-69.9366 37.1081C-74.0918 31.4559 -80.2023 28.0154 -87.2904 28.0154C-94.3786 28.0154 -100.489 31.2101 -104.644 37.1081L-108.799 43.006C-111.732 47.1837 -116.376 49.6412 -121.509 49.6412C-126.642 49.6412 -131.286 47.1837 -134.219 43.006L-136.663 39.5655L-141.307 42.7603L-138.863 46.2007C-134.708 51.853 -128.597 55.2934 -121.509 55.2934C-114.421 55.2934 -108.311 52.0987 -104.155 46.2007L-100 40.3028C-97.0672 36.1251 -92.4233 33.6676 -87.2904 33.6676C-82.1576 33.6676 -77.5137 36.1251 -74.5806 40.3028L-72.3808 43.2518C-68.2257 48.904 -62.1152 52.3445 -55.027 52.3445C-47.9389 52.3445 -41.8283 49.1497 -37.6732 43.2518C-34.7402 39.0741 -30.0962 36.6166 -24.9634 36.6166C-19.8306 36.6166 -15.1866 39.0741 -12.2536 43.2518L-9.80936 46.938C-5.65421 52.5902 0.700714 56.0307 7.78889 56.0307Z" fill="#242C36" fill-opacity="0.2"/>
</g>
<defs>
<clipPath id="clip0">
<rect width="184" height="56" fill="white" transform="matrix(-1 0 0 1 184 0)"/>
</clipPath>
</defs>
</svg>
