<svg xmlns="http://www.w3.org/2000/svg" width="190.121" height="32">
    <g data-name="Group 992">
        <g data-name="Group 988">
            <path data-name="Path 3684" d="M-266.9-47.348a1.547 1.547 0 0 0 .389 1.117 1.37 1.37 0 0 0 1.036.4 1.37 1.37 0 0 0 1.036-.4 1.547 1.547 0 0 0 .389-1.117v-19.077h4.308a1.516 1.516 0 0 0 1-.324 1.233 1.233 0 0 0 .389-1 1.233 1.233 0 0 0-.389-1 1.516 1.516 0 0 0-1-.324H-271.2a1.516 1.516 0 0 0-1 .324 1.233 1.233 0 0 0-.389 1 1.233 1.233 0 0 0 .389 1 1.516 1.516 0 0 0 1 .324h4.308zm20.016 0a1.547 1.547 0 0 0 .389 1.117 1.37 1.37 0 0 0 1.036.4 1.37 1.37 0 0 0 1.036-.4 1.547 1.547 0 0 0 .389-1.117V-56.9a7.379 7.379 0 0 0-.567-3.061 5.959 5.959 0 0 0-1.441-2.024 5.363 5.363 0 0 0-1.927-1.117 6.669 6.669 0 0 0-2.057-.34 6.688 6.688 0 0 0-2.559.518 5.3 5.3 0 0 0-2.2 1.749l-.065-.065v-8.26a1.547 1.547 0 0 0-.389-1.117 1.37 1.37 0 0 0-1.036-.4 1.37 1.37 0 0 0-1.036.4 1.547 1.547 0 0 0-.389 1.117v22.154a1.547 1.547 0 0 0 .389 1.117 1.37 1.37 0 0 0 1.036.4 1.37 1.37 0 0 0 1.036-.4 1.547 1.547 0 0 0 .389-1.117v-9.393a4.806 4.806 0 0 1 .356-1.943 3.721 3.721 0 0 1 .926-1.318 3.724 3.724 0 0 1 1.279-.745 4.393 4.393 0 0 1 1.425-.243 4.393 4.393 0 0 1 1.425.243 3.724 3.724 0 0 1 1.279.745 3.721 3.721 0 0 1 .923 1.312 4.806 4.806 0 0 1 .356 1.943zm17.846-6.186a1.6 1.6 0 0 0 1.263-.389 1.731 1.731 0 0 0 .324-1.134 9.62 9.62 0 0 0-.5-3.061 8.706 8.706 0 0 0-1.441-2.688 7.2 7.2 0 0 0-2.332-1.911 6.674 6.674 0 0 0-3.142-.729 7.247 7.247 0 0 0-3.255.713 7.205 7.205 0 0 0-2.429 1.927 8.857 8.857 0 0 0-1.522 2.818 10.532 10.532 0 0 0-.534 3.352 11.966 11.966 0 0 0 .453 3.3 8.076 8.076 0 0 0 1.425 2.818 7 7 0 0 0 2.462 1.96 8.036 8.036 0 0 0 3.563.729 8.927 8.927 0 0 0 2.494-.356 11.193 11.193 0 0 0 2.219-.891 6.549 6.549 0 0 0 1.587-1.15 1.726 1.726 0 0 0 .6-1.134 1.272 1.272 0 0 0-.324-.939.99.99 0 0 0-.713-.324 1.339 1.339 0 0 0-.826.356q-.437.356-1.069.794a7.852 7.852 0 0 1-1.571.81 6.465 6.465 0 0 1-2.364.372 5.354 5.354 0 0 1-2.138-.4 4.71 4.71 0 0 1-1.6-1.117 4.755 4.755 0 0 1-1-1.668 6.089 6.089 0 0 1-.34-2.057zm-10.721-2.138a8.1 8.1 0 0 1 .308-1.943 5.11 5.11 0 0 1 .858-1.733 4.386 4.386 0 0 1 1.49-1.231 4.347 4.347 0 0 1 2.235-.4 4.134 4.134 0 0 1 2.04.486 4.315 4.315 0 0 1 1.425 1.247 5.53 5.53 0 0 1 .826 1.7 6.65 6.65 0 0 1 .275 1.879zm19.563-13.6a7.064 7.064 0 0 0-2.85.551 7.013 7.013 0 0 0-2.138 1.409 6.215 6.215 0 0 0-1.344 1.911 5.028 5.028 0 0 0-.47 2.057 5 5 0 0 0 .81 3 6.4 6.4 0 0 0 2.024 1.814 13.544 13.544 0 0 0 2.64 1.15q1.425.453 2.64.972a6.66 6.66 0 0 1 2.024 1.3 2.823 2.823 0 0 1 .81 2.138 5.009 5.009 0 0 1-.324 1.814 4.472 4.472 0 0 1-.939 1.49 4.41 4.41 0 0 1-1.49 1.02 5 5 0 0 1-1.976.372 5.949 5.949 0 0 1-1.911-.275 9.48 9.48 0 0 1-1.441-.615q-.632-.34-1.085-.615a1.606 1.606 0 0 0-.81-.275 1.013 1.013 0 0 0-.907.437 1.8 1.8 0 0 0-.291 1.02 1.474 1.474 0 0 0 .567 1.117 5.12 5.12 0 0 0 1.49.874 10.679 10.679 0 0 0 2.073.583 12.656 12.656 0 0 0 2.283.211 8.714 8.714 0 0 0 3.336-.6 7.24 7.24 0 0 0 2.445-1.6 6.829 6.829 0 0 0 1.506-2.332 7.508 7.508 0 0 0 .524-2.769 5.434 5.434 0 0 0-.81-3.126 6.453 6.453 0 0 0-2.024-1.911 12.44 12.44 0 0 0-2.64-1.182q-1.425-.453-2.64-.972a7.249 7.249 0 0 1-2.024-1.247 2.544 2.544 0 0 1-.81-1.992 2.993 2.993 0 0 1 1.036-2.364 3.839 3.839 0 0 1 2.624-.907 5.48 5.48 0 0 1 1.733.227 5.56 5.56 0 0 1 1.134.518q.47.291.826.518a1.535 1.535 0 0 0 .842.227 1.149 1.149 0 0 0 .891-.372 1.276 1.276 0 0 0 .34-.891 1.508 1.508 0 0 0-.486-1.053 4.082 4.082 0 0 0-1.279-.858 8.741 8.741 0 0 0-1.814-.567 10.311 10.311 0 0 0-2.09-.21zm11.3 7.352a1.547 1.547 0 0 0-.389-1.117 1.37 1.37 0 0 0-1.036-.4 1.37 1.37 0 0 0-1.036.4 1.547 1.547 0 0 0-.389 1.117v14.575a1.547 1.547 0 0 0 .389 1.117 1.37 1.37 0 0 0 1.036.4 1.37 1.37 0 0 0 1.036-.4 1.547 1.547 0 0 0 .389-1.117zm-3.174-5.6a1.693 1.693 0 0 0 .5 1.247 1.693 1.693 0 0 0 1.247.5 1.693 1.693 0 0 0 1.247-.5 1.693 1.693 0 0 0 .5-1.247 1.693 1.693 0 0 0-.5-1.247 1.693 1.693 0 0 0-1.247-.5 1.693 1.693 0 0 0-1.247.5 1.693 1.693 0 0 0-.492 1.241zm15.838 20.178a1.547 1.547 0 0 0 .389 1.117 1.37 1.37 0 0 0 1.036.4 1.37 1.37 0 0 0 1.036-.4 1.547 1.547 0 0 0 .389-1.117V-57a4.215 4.215 0 0 1 .955-2.915 3.439 3.439 0 0 1 2.7-1.069 3.49 3.49 0 0 1 2.721 1.069 4.17 4.17 0 0 1 .985 2.915v9.652a1.547 1.547 0 0 0 .389 1.117 1.37 1.37 0 0 0 1.036.4 1.37 1.37 0 0 0 1.036-.4 1.547 1.547 0 0 0 .389-1.117V-56.9a7.379 7.379 0 0 0-.567-3.061 5.959 5.959 0 0 0-1.441-2.024 5.363 5.363 0 0 0-1.927-1.117 6.669 6.669 0 0 0-2.057-.34 5.725 5.725 0 0 0-3.109.777 7.554 7.554 0 0 0-2.17 2.138 5.654 5.654 0 0 0-2.219-2.283 5.507 5.507 0 0 0-2.51-.632 5.807 5.807 0 0 0-1.668.211 5.482 5.482 0 0 0-1.215.518 3.727 3.727 0 0 0-.858.68q-.34.372-.6.7l-.065-.065v-.518a1.547 1.547 0 0 0-.389-1.117 1.37 1.37 0 0 0-1.036-.4 1.37 1.37 0 0 0-1.036.4 1.547 1.547 0 0 0-.389 1.117v14.575a1.547 1.547 0 0 0 .389 1.117 1.37 1.37 0 0 0 1.036.4 1.37 1.37 0 0 0 1.036-.4 1.547 1.547 0 0 0 .389-1.117V-57a4.215 4.215 0 0 1 .956-2.915 3.439 3.439 0 0 1 2.7-1.069 3.49 3.49 0 0 1 2.721 1.069 4.17 4.17 0 0 1 .976 2.915zm18.2-7.287a10.421 10.421 0 0 1 .243-2.219 6.51 6.51 0 0 1 .81-2.04 4.676 4.676 0 0 1 1.474-1.506 3.988 3.988 0 0 1 2.2-.583 3.969 3.969 0 0 1 2.219.583 4.739 4.739 0 0 1 1.457 1.506 6.51 6.51 0 0 1 .81 2.04 10.42 10.42 0 0 1 .243 2.219 10.419 10.419 0 0 1-.243 2.219 6.51 6.51 0 0 1-.81 2.04 4.739 4.739 0 0 1-1.457 1.506 3.969 3.969 0 0 1-2.219.583 3.988 3.988 0 0 1-2.2-.583 4.676 4.676 0 0 1-1.474-1.506 6.51 6.51 0 0 1-.81-2.04 10.42 10.42 0 0 1-.232-2.225zm-2.559 14.089a1.547 1.547 0 0 0 .389 1.117 1.37 1.37 0 0 0 1.036.4 1.37 1.37 0 0 0 1.036-.4 1.547 1.547 0 0 0 .389-1.117v-7.611h.065a7.659 7.659 0 0 0 .713.81 4.906 4.906 0 0 0 1 .761 5.771 5.771 0 0 0 1.312.551 5.638 5.638 0 0 0 1.571.211 6.482 6.482 0 0 0 3.109-.729 7.217 7.217 0 0 0 2.316-1.96 8.7 8.7 0 0 0 1.441-2.818 11.223 11.223 0 0 0 .486-3.3 11.223 11.223 0 0 0-.486-3.3 8.7 8.7 0 0 0-1.441-2.818 7.217 7.217 0 0 0-2.316-1.96 6.482 6.482 0 0 0-3.109-.729q-3.368 0-4.6 2.364h-.065v-.842a1.547 1.547 0 0 0-.389-1.117 1.37 1.37 0 0 0-1.036-.4 1.37 1.37 0 0 0-1.036.4 1.547 1.547 0 0 0-.389 1.117zm19.444-28.96a1.547 1.547 0 0 0-.389-1.117 1.37 1.37 0 0 0-1.036-.4 1.37 1.37 0 0 0-1.036.4A1.547 1.547 0 0 0-164-69.5v22.154a1.547 1.547 0 0 0 .389 1.117 1.37 1.37 0 0 0 1.036.4 1.37 1.37 0 0 0 1.036-.4 1.547 1.547 0 0 0 .389-1.117zm6.381 22.866-1.814 4.826q-.259.745-.34 1.036a2.059 2.059 0 0 0-.081.551 1.061 1.061 0 0 0 .4.874 1.394 1.394 0 0 0 .891.324 1.277 1.277 0 0 0 .891-.308 1.844 1.844 0 0 0 .5-.761l7.19-20.567q.259-.745.324-1.036a2.543 2.543 0 0 0 .065-.551 1.061 1.061 0 0 0-.4-.874 1.393 1.393 0 0 0-.891-.324 1.217 1.217 0 0 0-.874.308 1.923 1.923 0 0 0-.486.761l-3.887 11.822h-.065l-3.951-11.822a1.777 1.777 0 0 0-.518-.761 1.338 1.338 0 0 0-.907-.308 1.394 1.394 0 0 0-.891.324 1.061 1.061 0 0 0-.4.874 2.544 2.544 0 0 0 .065.551q.065.291.324 1.036z" transform="translate(272.596 71.024)" style="fill:#f9ac19"/>
            <path data-name="Path 3685" d="M206.489-67.753a1.547 1.547 0 0 0-.389-1.117 1.37 1.37 0 0 0-1.036-.4 1.37 1.37 0 0 0-1.036.4 1.547 1.547 0 0 0-.389 1.117v20.178a1.728 1.728 0 0 0 .356 1.1 1.394 1.394 0 0 0 1.166.453h7.417a1.516 1.516 0 0 0 1-.324 1.233 1.233 0 0 0 .389-1 1.233 1.233 0 0 0-.389-1 1.516 1.516 0 0 0-1-.324h-6.089zm20.988 14.219a1.6 1.6 0 0 0 1.263-.389 1.731 1.731 0 0 0 .324-1.134 9.62 9.62 0 0 0-.5-3.061 8.707 8.707 0 0 0-1.441-2.688 7.2 7.2 0 0 0-2.332-1.911 6.674 6.674 0 0 0-3.142-.729 7.247 7.247 0 0 0-3.255.713 7.2 7.2 0 0 0-2.429 1.927 8.856 8.856 0 0 0-1.522 2.818 10.53 10.53 0 0 0-.534 3.352 11.967 11.967 0 0 0 .453 3.3 8.076 8.076 0 0 0 1.425 2.818 7.006 7.006 0 0 0 2.462 1.96 8.036 8.036 0 0 0 3.563.729 8.926 8.926 0 0 0 2.494-.356 11.191 11.191 0 0 0 2.219-.891 6.547 6.547 0 0 0 1.587-1.15 1.726 1.726 0 0 0 .6-1.134 1.272 1.272 0 0 0-.324-.939.991.991 0 0 0-.713-.324 1.339 1.339 0 0 0-.826.356q-.437.356-1.069.794a7.853 7.853 0 0 1-1.571.81 6.465 6.465 0 0 1-2.364.372 5.354 5.354 0 0 1-2.138-.4 4.71 4.71 0 0 1-1.6-1.117 4.756 4.756 0 0 1-1-1.668 6.09 6.09 0 0 1-.34-2.057zm-10.721-2.138a8.1 8.1 0 0 1 .308-1.943 5.11 5.11 0 0 1 .858-1.733 4.385 4.385 0 0 1 1.49-1.231 4.347 4.347 0 0 1 2.235-.4 4.133 4.133 0 0 1 2.04.486 4.315 4.315 0 0 1 1.425 1.247 5.53 5.53 0 0 1 .826 1.7 6.651 6.651 0 0 1 .275 1.879zm27.854-6.381a1.223 1.223 0 0 0-.453-1.069 1.515 1.515 0 0 0-.874-.324 1.811 1.811 0 0 0-1.053.324 1.2 1.2 0 0 0-.47 1.069v.777h-.06a4.958 4.958 0 0 0-.745-.777 5.6 5.6 0 0 0-1.036-.7 6.689 6.689 0 0 0-1.247-.5 4.762 4.762 0 0 0-1.344-.194 6.914 6.914 0 0 0-3.223.729 7.225 7.225 0 0 0-2.381 1.96 8.768 8.768 0 0 0-1.474 2.818 10.888 10.888 0 0 0-.5 3.3 10.888 10.888 0 0 0 .5 3.3 8.768 8.768 0 0 0 1.474 2.818 7.225 7.225 0 0 0 2.381 1.96 6.914 6.914 0 0 0 3.223.729 5.031 5.031 0 0 0 2.591-.664 4.824 4.824 0 0 0 1.781-1.8h.065v1.49a7.981 7.981 0 0 1-.227 1.879 4.95 4.95 0 0 1-.761 1.7 4.072 4.072 0 0 1-1.441 1.247 4.762 4.762 0 0 1-2.267.486 5.86 5.86 0 0 1-2.008-.308 8.691 8.691 0 0 1-1.49-.7q-.648-.389-1.15-.7a1.884 1.884 0 0 0-.988-.308 1 1 0 0 0-.939.437 1.728 1.728 0 0 0-.259.891 1.529 1.529 0 0 0 .615 1.1 6.474 6.474 0 0 0 1.587 1 11.83 11.83 0 0 0 2.138.745 9.333 9.333 0 0 0 2.267.292 8.647 8.647 0 0 0 3.19-.567 6.787 6.787 0 0 0 2.462-1.636 7.286 7.286 0 0 0 1.571-2.591 10.046 10.046 0 0 0 .551-3.433zm-12.016 7.417a10.417 10.417 0 0 1 .243-2.219 6.51 6.51 0 0 1 .81-2.04 4.677 4.677 0 0 1 1.474-1.506 3.988 3.988 0 0 1 2.2-.583 3.969 3.969 0 0 1 2.219.583 4.739 4.739 0 0 1 1.46 1.507 6.511 6.511 0 0 1 .81 2.04 10.418 10.418 0 0 1 .243 2.219 10.418 10.418 0 0 1-.243 2.219 6.51 6.51 0 0 1-.81 2.04 4.739 4.739 0 0 1-1.457 1.506 3.969 3.969 0 0 1-2.219.583 3.988 3.988 0 0 1-2.2-.583 4.677 4.677 0 0 1-1.474-1.506 6.51 6.51 0 0 1-.81-2.04 10.416 10.416 0 0 1-.246-2.219zm28.858-7.417a1.223 1.223 0 0 0-.452-1.068 1.515 1.515 0 0 0-.875-.324 1.484 1.484 0 0 0-.891.324 1.243 1.243 0 0 0-.437 1.069v.907h-.065a8.148 8.148 0 0 0-2.105-1.7 5.341 5.341 0 0 0-2.591-.6 6.914 6.914 0 0 0-3.223.729 7.226 7.226 0 0 0-2.381 1.96 8.768 8.768 0 0 0-1.474 2.818 10.887 10.887 0 0 0-.5 3.3 10.887 10.887 0 0 0 .5 3.3 8.768 8.768 0 0 0 1.474 2.818 7.226 7.226 0 0 0 2.381 1.96 6.914 6.914 0 0 0 3.223.729 5.379 5.379 0 0 0 2.575-.632 6.234 6.234 0 0 0 2.121-1.96h.065v1.2a1.243 1.243 0 0 0 .437 1.069 1.484 1.484 0 0 0 .891.324 1.515 1.515 0 0 0 .875-.32 1.223 1.223 0 0 0 .453-1.069zm-12.146 7.417a10.42 10.42 0 0 1 .243-2.219 6.511 6.511 0 0 1 .81-2.04 4.676 4.676 0 0 1 1.474-1.506 3.988 3.988 0 0 1 2.2-.583 3.969 3.969 0 0 1 2.219.583 4.739 4.739 0 0 1 1.458 1.506 6.51 6.51 0 0 1 .81 2.04 10.42 10.42 0 0 1 .243 2.219 10.42 10.42 0 0 1-.243 2.219 6.51 6.51 0 0 1-.81 2.04 4.739 4.739 0 0 1-1.458 1.506 3.969 3.969 0 0 1-2.219.583 3.988 3.988 0 0 1-2.2-.583 4.676 4.676 0 0 1-1.474-1.506 6.51 6.51 0 0 1-.81-2.04 10.42 10.42 0 0 1-.242-2.218zM266.764-69.5a1.547 1.547 0 0 0-.389-1.117 1.37 1.37 0 0 0-1.036-.4 1.37 1.37 0 0 0-1.036.4 1.547 1.547 0 0 0-.389 1.117v22.154a1.547 1.547 0 0 0 .389 1.117 1.37 1.37 0 0 0 1.036.4 1.37 1.37 0 0 0 1.036-.4 1.547 1.547 0 0 0 .389-1.117z" transform="translate(-76.643 71.024)" style="fill:#292724"/>
        </g>
    </g>
</svg>
